G04 #@! TF.GenerationSoftware,KiCad,Pcbnew,(5.1.4)-1*
G04 #@! TF.CreationDate,2020-03-26T20:17:56-03:00*
G04 #@! TF.ProjectId,Protoboard-power,50726f74-6f62-46f6-9172-642d706f7765,rev?*
G04 #@! TF.SameCoordinates,Original*
G04 #@! TF.FileFunction,Legend,Top*
G04 #@! TF.FilePolarity,Positive*
%FSLAX46Y46*%
G04 Gerber Fmt 4.6, Leading zero omitted, Abs format (unit mm)*
G04 Created by KiCad (PCBNEW (5.1.4)-1) date 2020-03-26 20:17:56*
%MOMM*%
%LPD*%
G04 APERTURE LIST*
%ADD10C,0.150000*%
%ADD11C,0.010000*%
%ADD12C,0.120000*%
G04 APERTURE END LIST*
D10*
X120889285Y-76042857D02*
X121639285Y-75792857D01*
X120889285Y-75542857D01*
X121639285Y-75292857D02*
X120889285Y-75292857D01*
X121639285Y-74935714D02*
X120889285Y-74935714D01*
X121639285Y-74507142D01*
X120889285Y-74507142D01*
X121567857Y-74150000D02*
X121603571Y-74114285D01*
X121639285Y-74150000D01*
X121603571Y-74185714D01*
X121567857Y-74150000D01*
X121639285Y-74150000D01*
X121175000Y-74150000D02*
X121210714Y-74114285D01*
X121246428Y-74150000D01*
X121210714Y-74185714D01*
X121175000Y-74150000D01*
X121246428Y-74150000D01*
X121639285Y-73185714D02*
X121639285Y-73042857D01*
X121603571Y-72971428D01*
X121567857Y-72935714D01*
X121460714Y-72864285D01*
X121317857Y-72828571D01*
X121032142Y-72828571D01*
X120960714Y-72864285D01*
X120925000Y-72900000D01*
X120889285Y-72971428D01*
X120889285Y-73114285D01*
X120925000Y-73185714D01*
X120960714Y-73221428D01*
X121032142Y-73257142D01*
X121210714Y-73257142D01*
X121282142Y-73221428D01*
X121317857Y-73185714D01*
X121353571Y-73114285D01*
X121353571Y-72971428D01*
X121317857Y-72900000D01*
X121282142Y-72864285D01*
X121210714Y-72828571D01*
X121353571Y-72507142D02*
X121353571Y-71935714D01*
X121639285Y-71185714D02*
X121639285Y-71614285D01*
X121639285Y-71400000D02*
X120889285Y-71400000D01*
X120996428Y-71471428D01*
X121067857Y-71542857D01*
X121103571Y-71614285D01*
X120960714Y-70900000D02*
X120925000Y-70864285D01*
X120889285Y-70792857D01*
X120889285Y-70614285D01*
X120925000Y-70542857D01*
X120960714Y-70507142D01*
X121032142Y-70471428D01*
X121103571Y-70471428D01*
X121210714Y-70507142D01*
X121639285Y-70935714D01*
X121639285Y-70471428D01*
X120889285Y-70257142D02*
X121639285Y-70007142D01*
X120889285Y-69757142D01*
X121639285Y-69507142D02*
X120889285Y-69507142D01*
X120889285Y-69328571D01*
X120925000Y-69221428D01*
X120996428Y-69150000D01*
X121067857Y-69114285D01*
X121210714Y-69078571D01*
X121317857Y-69078571D01*
X121460714Y-69114285D01*
X121532142Y-69150000D01*
X121603571Y-69221428D01*
X121639285Y-69328571D01*
X121639285Y-69507142D01*
X121567857Y-68328571D02*
X121603571Y-68364285D01*
X121639285Y-68471428D01*
X121639285Y-68542857D01*
X121603571Y-68650000D01*
X121532142Y-68721428D01*
X121460714Y-68757142D01*
X121317857Y-68792857D01*
X121210714Y-68792857D01*
X121067857Y-68757142D01*
X120996428Y-68721428D01*
X120925000Y-68650000D01*
X120889285Y-68542857D01*
X120889285Y-68471428D01*
X120925000Y-68364285D01*
X120960714Y-68328571D01*
X124539285Y-76953571D02*
X123789285Y-76953571D01*
X123789285Y-76667857D01*
X123825000Y-76596428D01*
X123860714Y-76560714D01*
X123932142Y-76525000D01*
X124039285Y-76525000D01*
X124110714Y-76560714D01*
X124146428Y-76596428D01*
X124182142Y-76667857D01*
X124182142Y-76953571D01*
X124539285Y-76096428D02*
X124503571Y-76167857D01*
X124467857Y-76203571D01*
X124396428Y-76239285D01*
X124182142Y-76239285D01*
X124110714Y-76203571D01*
X124075000Y-76167857D01*
X124039285Y-76096428D01*
X124039285Y-75989285D01*
X124075000Y-75917857D01*
X124110714Y-75882142D01*
X124182142Y-75846428D01*
X124396428Y-75846428D01*
X124467857Y-75882142D01*
X124503571Y-75917857D01*
X124539285Y-75989285D01*
X124539285Y-76096428D01*
X124039285Y-75596428D02*
X124539285Y-75453571D01*
X124182142Y-75310714D01*
X124539285Y-75167857D01*
X124039285Y-75025000D01*
X124503571Y-74453571D02*
X124539285Y-74525000D01*
X124539285Y-74667857D01*
X124503571Y-74739285D01*
X124432142Y-74775000D01*
X124146428Y-74775000D01*
X124075000Y-74739285D01*
X124039285Y-74667857D01*
X124039285Y-74525000D01*
X124075000Y-74453571D01*
X124146428Y-74417857D01*
X124217857Y-74417857D01*
X124289285Y-74775000D01*
X124539285Y-74096428D02*
X124039285Y-74096428D01*
X124182142Y-74096428D02*
X124110714Y-74060714D01*
X124075000Y-74025000D01*
X124039285Y-73953571D01*
X124039285Y-73882142D01*
X123789285Y-72917857D02*
X123789285Y-72775000D01*
X123825000Y-72703571D01*
X123896428Y-72632142D01*
X124039285Y-72596428D01*
X124289285Y-72596428D01*
X124432142Y-72632142D01*
X124503571Y-72703571D01*
X124539285Y-72775000D01*
X124539285Y-72917857D01*
X124503571Y-72989285D01*
X124432142Y-73060714D01*
X124289285Y-73096428D01*
X124039285Y-73096428D01*
X123896428Y-73060714D01*
X123825000Y-72989285D01*
X123789285Y-72917857D01*
X124539285Y-72275000D02*
X123789285Y-72275000D01*
X124539285Y-71846428D01*
X123789285Y-71846428D01*
X124253571Y-71489285D02*
X124253571Y-70917857D01*
X123789285Y-70417857D02*
X123789285Y-70275000D01*
X123825000Y-70203571D01*
X123896428Y-70132142D01*
X124039285Y-70096428D01*
X124289285Y-70096428D01*
X124432142Y-70132142D01*
X124503571Y-70203571D01*
X124539285Y-70275000D01*
X124539285Y-70417857D01*
X124503571Y-70489285D01*
X124432142Y-70560714D01*
X124289285Y-70596428D01*
X124039285Y-70596428D01*
X123896428Y-70560714D01*
X123825000Y-70489285D01*
X123789285Y-70417857D01*
X124146428Y-69525000D02*
X124146428Y-69775000D01*
X124539285Y-69775000D02*
X123789285Y-69775000D01*
X123789285Y-69417857D01*
X124146428Y-68882142D02*
X124146428Y-69132142D01*
X124539285Y-69132142D02*
X123789285Y-69132142D01*
X123789285Y-68775000D01*
X141996428Y-69189285D02*
X141996428Y-68439285D01*
X142282142Y-68439285D01*
X142353571Y-68475000D01*
X142389285Y-68510714D01*
X142425000Y-68582142D01*
X142425000Y-68689285D01*
X142389285Y-68760714D01*
X142353571Y-68796428D01*
X142282142Y-68832142D01*
X141996428Y-68832142D01*
X142853571Y-69189285D02*
X142782142Y-69153571D01*
X142746428Y-69117857D01*
X142710714Y-69046428D01*
X142710714Y-68832142D01*
X142746428Y-68760714D01*
X142782142Y-68725000D01*
X142853571Y-68689285D01*
X142960714Y-68689285D01*
X143032142Y-68725000D01*
X143067857Y-68760714D01*
X143103571Y-68832142D01*
X143103571Y-69046428D01*
X143067857Y-69117857D01*
X143032142Y-69153571D01*
X142960714Y-69189285D01*
X142853571Y-69189285D01*
X143353571Y-68689285D02*
X143496428Y-69189285D01*
X143639285Y-68832142D01*
X143782142Y-69189285D01*
X143925000Y-68689285D01*
X144496428Y-69153571D02*
X144425000Y-69189285D01*
X144282142Y-69189285D01*
X144210714Y-69153571D01*
X144175000Y-69082142D01*
X144175000Y-68796428D01*
X144210714Y-68725000D01*
X144282142Y-68689285D01*
X144425000Y-68689285D01*
X144496428Y-68725000D01*
X144532142Y-68796428D01*
X144532142Y-68867857D01*
X144175000Y-68939285D01*
X144853571Y-69189285D02*
X144853571Y-68689285D01*
X144853571Y-68832142D02*
X144889285Y-68760714D01*
X144925000Y-68725000D01*
X144996428Y-68689285D01*
X145067857Y-68689285D01*
X146032142Y-68439285D02*
X146175000Y-68439285D01*
X146246428Y-68475000D01*
X146317857Y-68546428D01*
X146353571Y-68689285D01*
X146353571Y-68939285D01*
X146317857Y-69082142D01*
X146246428Y-69153571D01*
X146175000Y-69189285D01*
X146032142Y-69189285D01*
X145960714Y-69153571D01*
X145889285Y-69082142D01*
X145853571Y-68939285D01*
X145853571Y-68689285D01*
X145889285Y-68546428D01*
X145960714Y-68475000D01*
X146032142Y-68439285D01*
X146675000Y-69189285D02*
X146675000Y-68439285D01*
X147103571Y-69189285D01*
X147103571Y-68439285D01*
X135857142Y-92739285D02*
X135857142Y-91989285D01*
X136285714Y-92739285D02*
X135964285Y-92310714D01*
X136285714Y-91989285D02*
X135857142Y-92417857D01*
X136607142Y-92739285D02*
X136607142Y-92239285D01*
X136607142Y-91989285D02*
X136571428Y-92025000D01*
X136607142Y-92060714D01*
X136642857Y-92025000D01*
X136607142Y-91989285D01*
X136607142Y-92060714D01*
X137392857Y-92667857D02*
X137357142Y-92703571D01*
X137250000Y-92739285D01*
X137178571Y-92739285D01*
X137071428Y-92703571D01*
X137000000Y-92632142D01*
X136964285Y-92560714D01*
X136928571Y-92417857D01*
X136928571Y-92310714D01*
X136964285Y-92167857D01*
X137000000Y-92096428D01*
X137071428Y-92025000D01*
X137178571Y-91989285D01*
X137250000Y-91989285D01*
X137357142Y-92025000D01*
X137392857Y-92060714D01*
X138035714Y-92739285D02*
X138035714Y-92346428D01*
X138000000Y-92275000D01*
X137928571Y-92239285D01*
X137785714Y-92239285D01*
X137714285Y-92275000D01*
X138035714Y-92703571D02*
X137964285Y-92739285D01*
X137785714Y-92739285D01*
X137714285Y-92703571D01*
X137678571Y-92632142D01*
X137678571Y-92560714D01*
X137714285Y-92489285D01*
X137785714Y-92453571D01*
X137964285Y-92453571D01*
X138035714Y-92417857D01*
X138714285Y-92739285D02*
X138714285Y-91989285D01*
X138714285Y-92703571D02*
X138642857Y-92739285D01*
X138500000Y-92739285D01*
X138428571Y-92703571D01*
X138392857Y-92667857D01*
X138357142Y-92596428D01*
X138357142Y-92382142D01*
X138392857Y-92310714D01*
X138428571Y-92275000D01*
X138500000Y-92239285D01*
X138642857Y-92239285D01*
X138714285Y-92275000D01*
X140000000Y-91989285D02*
X139642857Y-91989285D01*
X139607142Y-92346428D01*
X139642857Y-92310714D01*
X139714285Y-92275000D01*
X139892857Y-92275000D01*
X139964285Y-92310714D01*
X140000000Y-92346428D01*
X140035714Y-92417857D01*
X140035714Y-92596428D01*
X140000000Y-92667857D01*
X139964285Y-92703571D01*
X139892857Y-92739285D01*
X139714285Y-92739285D01*
X139642857Y-92703571D01*
X139607142Y-92667857D01*
X140357142Y-92667857D02*
X140392857Y-92703571D01*
X140357142Y-92739285D01*
X140321428Y-92703571D01*
X140357142Y-92667857D01*
X140357142Y-92739285D01*
X141107142Y-92739285D02*
X140678571Y-92739285D01*
X140892857Y-92739285D02*
X140892857Y-91989285D01*
X140821428Y-92096428D01*
X140750000Y-92167857D01*
X140678571Y-92203571D01*
X141428571Y-92667857D02*
X141464285Y-92703571D01*
X141428571Y-92739285D01*
X141392857Y-92703571D01*
X141428571Y-92667857D01*
X141428571Y-92739285D01*
X142107142Y-92239285D02*
X142107142Y-92739285D01*
X141928571Y-91953571D02*
X141750000Y-92489285D01*
X142214285Y-92489285D01*
X104017857Y-92739285D02*
X104017857Y-91989285D01*
X104732142Y-92739285D02*
X104375000Y-92739285D01*
X104375000Y-91989285D01*
X104946428Y-92703571D02*
X105053571Y-92739285D01*
X105232142Y-92739285D01*
X105303571Y-92703571D01*
X105339285Y-92667857D01*
X105375000Y-92596428D01*
X105375000Y-92525000D01*
X105339285Y-92453571D01*
X105303571Y-92417857D01*
X105232142Y-92382142D01*
X105089285Y-92346428D01*
X105017857Y-92310714D01*
X104982142Y-92275000D01*
X104946428Y-92203571D01*
X104946428Y-92132142D01*
X104982142Y-92060714D01*
X105017857Y-92025000D01*
X105089285Y-91989285D01*
X105267857Y-91989285D01*
X105375000Y-92025000D01*
X106482142Y-93025000D02*
X106446428Y-92989285D01*
X106375000Y-92882142D01*
X106339285Y-92810714D01*
X106303571Y-92703571D01*
X106267857Y-92525000D01*
X106267857Y-92382142D01*
X106303571Y-92203571D01*
X106339285Y-92096428D01*
X106375000Y-92025000D01*
X106446428Y-91917857D01*
X106482142Y-91882142D01*
X106767857Y-92739285D02*
X106767857Y-91989285D01*
X107053571Y-91989285D01*
X107125000Y-92025000D01*
X107160714Y-92060714D01*
X107196428Y-92132142D01*
X107196428Y-92239285D01*
X107160714Y-92310714D01*
X107125000Y-92346428D01*
X107053571Y-92382142D01*
X106767857Y-92382142D01*
X107517857Y-92739285D02*
X107517857Y-92239285D01*
X107517857Y-92382142D02*
X107553571Y-92310714D01*
X107589285Y-92275000D01*
X107660714Y-92239285D01*
X107732142Y-92239285D01*
X108089285Y-92739285D02*
X108017857Y-92703571D01*
X107982142Y-92667857D01*
X107946428Y-92596428D01*
X107946428Y-92382142D01*
X107982142Y-92310714D01*
X108017857Y-92275000D01*
X108089285Y-92239285D01*
X108196428Y-92239285D01*
X108267857Y-92275000D01*
X108303571Y-92310714D01*
X108339285Y-92382142D01*
X108339285Y-92596428D01*
X108303571Y-92667857D01*
X108267857Y-92703571D01*
X108196428Y-92739285D01*
X108089285Y-92739285D01*
X108553571Y-92239285D02*
X108839285Y-92239285D01*
X108660714Y-91989285D02*
X108660714Y-92632142D01*
X108696428Y-92703571D01*
X108767857Y-92739285D01*
X108839285Y-92739285D01*
X109196428Y-92739285D02*
X109125000Y-92703571D01*
X109089285Y-92667857D01*
X109053571Y-92596428D01*
X109053571Y-92382142D01*
X109089285Y-92310714D01*
X109125000Y-92275000D01*
X109196428Y-92239285D01*
X109303571Y-92239285D01*
X109375000Y-92275000D01*
X109410714Y-92310714D01*
X109446428Y-92382142D01*
X109446428Y-92596428D01*
X109410714Y-92667857D01*
X109375000Y-92703571D01*
X109303571Y-92739285D01*
X109196428Y-92739285D01*
X109767857Y-92739285D02*
X109767857Y-91989285D01*
X109767857Y-92275000D02*
X109839285Y-92239285D01*
X109982142Y-92239285D01*
X110053571Y-92275000D01*
X110089285Y-92310714D01*
X110125000Y-92382142D01*
X110125000Y-92596428D01*
X110089285Y-92667857D01*
X110053571Y-92703571D01*
X109982142Y-92739285D01*
X109839285Y-92739285D01*
X109767857Y-92703571D01*
X110553571Y-92739285D02*
X110482142Y-92703571D01*
X110446428Y-92667857D01*
X110410714Y-92596428D01*
X110410714Y-92382142D01*
X110446428Y-92310714D01*
X110482142Y-92275000D01*
X110553571Y-92239285D01*
X110660714Y-92239285D01*
X110732142Y-92275000D01*
X110767857Y-92310714D01*
X110803571Y-92382142D01*
X110803571Y-92596428D01*
X110767857Y-92667857D01*
X110732142Y-92703571D01*
X110660714Y-92739285D01*
X110553571Y-92739285D01*
X111446428Y-92739285D02*
X111446428Y-92346428D01*
X111410714Y-92275000D01*
X111339285Y-92239285D01*
X111196428Y-92239285D01*
X111125000Y-92275000D01*
X111446428Y-92703571D02*
X111375000Y-92739285D01*
X111196428Y-92739285D01*
X111125000Y-92703571D01*
X111089285Y-92632142D01*
X111089285Y-92560714D01*
X111125000Y-92489285D01*
X111196428Y-92453571D01*
X111375000Y-92453571D01*
X111446428Y-92417857D01*
X111803571Y-92739285D02*
X111803571Y-92239285D01*
X111803571Y-92382142D02*
X111839285Y-92310714D01*
X111875000Y-92275000D01*
X111946428Y-92239285D01*
X112017857Y-92239285D01*
X112589285Y-92739285D02*
X112589285Y-91989285D01*
X112589285Y-92703571D02*
X112517857Y-92739285D01*
X112375000Y-92739285D01*
X112303571Y-92703571D01*
X112267857Y-92667857D01*
X112232142Y-92596428D01*
X112232142Y-92382142D01*
X112267857Y-92310714D01*
X112303571Y-92275000D01*
X112375000Y-92239285D01*
X112517857Y-92239285D01*
X112589285Y-92275000D01*
X112946428Y-92453571D02*
X113517857Y-92453571D01*
X113875000Y-92239285D02*
X113875000Y-92989285D01*
X113875000Y-92275000D02*
X113946428Y-92239285D01*
X114089285Y-92239285D01*
X114160714Y-92275000D01*
X114196428Y-92310714D01*
X114232142Y-92382142D01*
X114232142Y-92596428D01*
X114196428Y-92667857D01*
X114160714Y-92703571D01*
X114089285Y-92739285D01*
X113946428Y-92739285D01*
X113875000Y-92703571D01*
X114660714Y-92739285D02*
X114589285Y-92703571D01*
X114553571Y-92667857D01*
X114517857Y-92596428D01*
X114517857Y-92382142D01*
X114553571Y-92310714D01*
X114589285Y-92275000D01*
X114660714Y-92239285D01*
X114767857Y-92239285D01*
X114839285Y-92275000D01*
X114875000Y-92310714D01*
X114910714Y-92382142D01*
X114910714Y-92596428D01*
X114875000Y-92667857D01*
X114839285Y-92703571D01*
X114767857Y-92739285D01*
X114660714Y-92739285D01*
X115160714Y-92239285D02*
X115303571Y-92739285D01*
X115446428Y-92382142D01*
X115589285Y-92739285D01*
X115732142Y-92239285D01*
X116303571Y-92703571D02*
X116232142Y-92739285D01*
X116089285Y-92739285D01*
X116017857Y-92703571D01*
X115982142Y-92632142D01*
X115982142Y-92346428D01*
X116017857Y-92275000D01*
X116089285Y-92239285D01*
X116232142Y-92239285D01*
X116303571Y-92275000D01*
X116339285Y-92346428D01*
X116339285Y-92417857D01*
X115982142Y-92489285D01*
X116660714Y-92739285D02*
X116660714Y-92239285D01*
X116660714Y-92382142D02*
X116696428Y-92310714D01*
X116732142Y-92275000D01*
X116803571Y-92239285D01*
X116875000Y-92239285D01*
X117625000Y-92239285D02*
X117803571Y-92739285D01*
X117982142Y-92239285D01*
X118267857Y-92667857D02*
X118303571Y-92703571D01*
X118267857Y-92739285D01*
X118232142Y-92703571D01*
X118267857Y-92667857D01*
X118267857Y-92739285D01*
X118589285Y-92060714D02*
X118625000Y-92025000D01*
X118696428Y-91989285D01*
X118875000Y-91989285D01*
X118946428Y-92025000D01*
X118982142Y-92060714D01*
X119017857Y-92132142D01*
X119017857Y-92203571D01*
X118982142Y-92310714D01*
X118553571Y-92739285D01*
X119017857Y-92739285D01*
X119482142Y-91989285D02*
X119553571Y-91989285D01*
X119625000Y-92025000D01*
X119660714Y-92060714D01*
X119696428Y-92132142D01*
X119732142Y-92275000D01*
X119732142Y-92453571D01*
X119696428Y-92596428D01*
X119660714Y-92667857D01*
X119625000Y-92703571D01*
X119553571Y-92739285D01*
X119482142Y-92739285D01*
X119410714Y-92703571D01*
X119375000Y-92667857D01*
X119339285Y-92596428D01*
X119303571Y-92453571D01*
X119303571Y-92275000D01*
X119339285Y-92132142D01*
X119375000Y-92060714D01*
X119410714Y-92025000D01*
X119482142Y-91989285D01*
X120017857Y-92060714D02*
X120053571Y-92025000D01*
X120125000Y-91989285D01*
X120303571Y-91989285D01*
X120375000Y-92025000D01*
X120410714Y-92060714D01*
X120446428Y-92132142D01*
X120446428Y-92203571D01*
X120410714Y-92310714D01*
X119982142Y-92739285D01*
X120446428Y-92739285D01*
X120910714Y-91989285D02*
X120982142Y-91989285D01*
X121053571Y-92025000D01*
X121089285Y-92060714D01*
X121125000Y-92132142D01*
X121160714Y-92275000D01*
X121160714Y-92453571D01*
X121125000Y-92596428D01*
X121089285Y-92667857D01*
X121053571Y-92703571D01*
X120982142Y-92739285D01*
X120910714Y-92739285D01*
X120839285Y-92703571D01*
X120803571Y-92667857D01*
X120767857Y-92596428D01*
X120732142Y-92453571D01*
X120732142Y-92275000D01*
X120767857Y-92132142D01*
X120803571Y-92060714D01*
X120839285Y-92025000D01*
X120910714Y-91989285D01*
X121625000Y-91989285D02*
X121696428Y-91989285D01*
X121767857Y-92025000D01*
X121803571Y-92060714D01*
X121839285Y-92132142D01*
X121875000Y-92275000D01*
X121875000Y-92453571D01*
X121839285Y-92596428D01*
X121803571Y-92667857D01*
X121767857Y-92703571D01*
X121696428Y-92739285D01*
X121625000Y-92739285D01*
X121553571Y-92703571D01*
X121517857Y-92667857D01*
X121482142Y-92596428D01*
X121446428Y-92453571D01*
X121446428Y-92275000D01*
X121482142Y-92132142D01*
X121517857Y-92060714D01*
X121553571Y-92025000D01*
X121625000Y-91989285D01*
X122125000Y-91989285D02*
X122589285Y-91989285D01*
X122339285Y-92275000D01*
X122446428Y-92275000D01*
X122517857Y-92310714D01*
X122553571Y-92346428D01*
X122589285Y-92417857D01*
X122589285Y-92596428D01*
X122553571Y-92667857D01*
X122517857Y-92703571D01*
X122446428Y-92739285D01*
X122232142Y-92739285D01*
X122160714Y-92703571D01*
X122125000Y-92667857D01*
X122875000Y-92060714D02*
X122910714Y-92025000D01*
X122982142Y-91989285D01*
X123160714Y-91989285D01*
X123232142Y-92025000D01*
X123267857Y-92060714D01*
X123303571Y-92132142D01*
X123303571Y-92203571D01*
X123267857Y-92310714D01*
X122839285Y-92739285D01*
X123303571Y-92739285D01*
X123589285Y-92060714D02*
X123625000Y-92025000D01*
X123696428Y-91989285D01*
X123875000Y-91989285D01*
X123946428Y-92025000D01*
X123982142Y-92060714D01*
X124017857Y-92132142D01*
X124017857Y-92203571D01*
X123982142Y-92310714D01*
X123553571Y-92739285D01*
X124017857Y-92739285D01*
X124267857Y-93025000D02*
X124303571Y-92989285D01*
X124375000Y-92882142D01*
X124410714Y-92810714D01*
X124446428Y-92703571D01*
X124482142Y-92525000D01*
X124482142Y-92382142D01*
X124446428Y-92203571D01*
X124410714Y-92096428D01*
X124375000Y-92025000D01*
X124303571Y-91917857D01*
X124267857Y-91882142D01*
X147075000Y-84771428D02*
X147039285Y-84842857D01*
X147039285Y-84950000D01*
X147075000Y-85057142D01*
X147146428Y-85128571D01*
X147217857Y-85164285D01*
X147360714Y-85200000D01*
X147467857Y-85200000D01*
X147610714Y-85164285D01*
X147682142Y-85128571D01*
X147753571Y-85057142D01*
X147789285Y-84950000D01*
X147789285Y-84878571D01*
X147753571Y-84771428D01*
X147717857Y-84735714D01*
X147467857Y-84735714D01*
X147467857Y-84878571D01*
X147789285Y-84414285D02*
X147039285Y-84414285D01*
X147789285Y-83985714D01*
X147039285Y-83985714D01*
X147789285Y-83628571D02*
X147039285Y-83628571D01*
X147039285Y-83450000D01*
X147075000Y-83342857D01*
X147146428Y-83271428D01*
X147217857Y-83235714D01*
X147360714Y-83200000D01*
X147467857Y-83200000D01*
X147610714Y-83235714D01*
X147682142Y-83271428D01*
X147753571Y-83342857D01*
X147789285Y-83450000D01*
X147789285Y-83628571D01*
X102575000Y-84771428D02*
X102539285Y-84842857D01*
X102539285Y-84950000D01*
X102575000Y-85057142D01*
X102646428Y-85128571D01*
X102717857Y-85164285D01*
X102860714Y-85200000D01*
X102967857Y-85200000D01*
X103110714Y-85164285D01*
X103182142Y-85128571D01*
X103253571Y-85057142D01*
X103289285Y-84950000D01*
X103289285Y-84878571D01*
X103253571Y-84771428D01*
X103217857Y-84735714D01*
X102967857Y-84735714D01*
X102967857Y-84878571D01*
X103289285Y-84414285D02*
X102539285Y-84414285D01*
X103289285Y-83985714D01*
X102539285Y-83985714D01*
X103289285Y-83628571D02*
X102539285Y-83628571D01*
X102539285Y-83450000D01*
X102575000Y-83342857D01*
X102646428Y-83271428D01*
X102717857Y-83235714D01*
X102860714Y-83200000D01*
X102967857Y-83200000D01*
X103110714Y-83235714D01*
X103182142Y-83271428D01*
X103253571Y-83342857D01*
X103289285Y-83450000D01*
X103289285Y-83628571D01*
X150103571Y-85750000D02*
X150103571Y-85178571D01*
X150389285Y-85464285D02*
X149817857Y-85464285D01*
X149639285Y-84892857D02*
X149639285Y-84428571D01*
X149925000Y-84678571D01*
X149925000Y-84571428D01*
X149960714Y-84500000D01*
X149996428Y-84464285D01*
X150067857Y-84428571D01*
X150246428Y-84428571D01*
X150317857Y-84464285D01*
X150353571Y-84500000D01*
X150389285Y-84571428D01*
X150389285Y-84785714D01*
X150353571Y-84857142D01*
X150317857Y-84892857D01*
X150317857Y-84107142D02*
X150353571Y-84071428D01*
X150389285Y-84107142D01*
X150353571Y-84142857D01*
X150317857Y-84107142D01*
X150389285Y-84107142D01*
X149639285Y-83821428D02*
X149639285Y-83357142D01*
X149925000Y-83607142D01*
X149925000Y-83500000D01*
X149960714Y-83428571D01*
X149996428Y-83392857D01*
X150067857Y-83357142D01*
X150246428Y-83357142D01*
X150317857Y-83392857D01*
X150353571Y-83428571D01*
X150389285Y-83500000D01*
X150389285Y-83714285D01*
X150353571Y-83785714D01*
X150317857Y-83821428D01*
X149639285Y-83142857D02*
X150389285Y-82892857D01*
X149639285Y-82642857D01*
X105553571Y-85750000D02*
X105553571Y-85178571D01*
X105839285Y-85464285D02*
X105267857Y-85464285D01*
X105089285Y-84464285D02*
X105089285Y-84821428D01*
X105446428Y-84857142D01*
X105410714Y-84821428D01*
X105375000Y-84750000D01*
X105375000Y-84571428D01*
X105410714Y-84500000D01*
X105446428Y-84464285D01*
X105517857Y-84428571D01*
X105696428Y-84428571D01*
X105767857Y-84464285D01*
X105803571Y-84500000D01*
X105839285Y-84571428D01*
X105839285Y-84750000D01*
X105803571Y-84821428D01*
X105767857Y-84857142D01*
X105767857Y-84107142D02*
X105803571Y-84071428D01*
X105839285Y-84107142D01*
X105803571Y-84142857D01*
X105767857Y-84107142D01*
X105839285Y-84107142D01*
X105089285Y-83607142D02*
X105089285Y-83535714D01*
X105125000Y-83464285D01*
X105160714Y-83428571D01*
X105232142Y-83392857D01*
X105375000Y-83357142D01*
X105553571Y-83357142D01*
X105696428Y-83392857D01*
X105767857Y-83428571D01*
X105803571Y-83464285D01*
X105839285Y-83535714D01*
X105839285Y-83607142D01*
X105803571Y-83678571D01*
X105767857Y-83714285D01*
X105696428Y-83750000D01*
X105553571Y-83785714D01*
X105375000Y-83785714D01*
X105232142Y-83750000D01*
X105160714Y-83714285D01*
X105125000Y-83678571D01*
X105089285Y-83607142D01*
X105089285Y-83142857D02*
X105839285Y-82892857D01*
X105089285Y-82642857D01*
D11*
G36*
X105376964Y-69440018D02*
G01*
X105433812Y-69741570D01*
X105853338Y-69914512D01*
X106104984Y-69743395D01*
X106175458Y-69695750D01*
X106239163Y-69653210D01*
X106293126Y-69617715D01*
X106334373Y-69591210D01*
X106359934Y-69575636D01*
X106366895Y-69572278D01*
X106379435Y-69580914D01*
X106406231Y-69604792D01*
X106444280Y-69640859D01*
X106490579Y-69686067D01*
X106542123Y-69737364D01*
X106595909Y-69791701D01*
X106648935Y-69846028D01*
X106698195Y-69897295D01*
X106740687Y-69942451D01*
X106773407Y-69978446D01*
X106793351Y-70002230D01*
X106798119Y-70010190D01*
X106791257Y-70024865D01*
X106772020Y-70057014D01*
X106742430Y-70103492D01*
X106704510Y-70161156D01*
X106660282Y-70226860D01*
X106634654Y-70264336D01*
X106587941Y-70332768D01*
X106546432Y-70394520D01*
X106512140Y-70446519D01*
X106487080Y-70485692D01*
X106473264Y-70508965D01*
X106471188Y-70513855D01*
X106475895Y-70527755D01*
X106488723Y-70560150D01*
X106507738Y-70606485D01*
X106531003Y-70662206D01*
X106556584Y-70722758D01*
X106582545Y-70783586D01*
X106606950Y-70840136D01*
X106627863Y-70887852D01*
X106643349Y-70922181D01*
X106651472Y-70938568D01*
X106651952Y-70939212D01*
X106664707Y-70942341D01*
X106698677Y-70949321D01*
X106750340Y-70959467D01*
X106816176Y-70972092D01*
X106892664Y-70986509D01*
X106937290Y-70994823D01*
X107019021Y-71010384D01*
X107092843Y-71025192D01*
X107155021Y-71038436D01*
X107201822Y-71049305D01*
X107229509Y-71056989D01*
X107235074Y-71059427D01*
X107240526Y-71075930D01*
X107244924Y-71113200D01*
X107248272Y-71166880D01*
X107250574Y-71232612D01*
X107251832Y-71306037D01*
X107252048Y-71382796D01*
X107251227Y-71458532D01*
X107249371Y-71528886D01*
X107246482Y-71589500D01*
X107242565Y-71636016D01*
X107237622Y-71664075D01*
X107234657Y-71669916D01*
X107216934Y-71676917D01*
X107179381Y-71686927D01*
X107126964Y-71698769D01*
X107064652Y-71711267D01*
X107042900Y-71715310D01*
X106938024Y-71734520D01*
X106855180Y-71749991D01*
X106791630Y-71762337D01*
X106744637Y-71772173D01*
X106711463Y-71780114D01*
X106689371Y-71786776D01*
X106675624Y-71792773D01*
X106667484Y-71798719D01*
X106666345Y-71799894D01*
X106654977Y-71818826D01*
X106637635Y-71855669D01*
X106616050Y-71905913D01*
X106591954Y-71965046D01*
X106567079Y-72028556D01*
X106543157Y-72091932D01*
X106521919Y-72150662D01*
X106505097Y-72200235D01*
X106494422Y-72236139D01*
X106491627Y-72253862D01*
X106491860Y-72254483D01*
X106501331Y-72268970D01*
X106522818Y-72300844D01*
X106554063Y-72346789D01*
X106592807Y-72403485D01*
X106636793Y-72467617D01*
X106649319Y-72485842D01*
X106693984Y-72551914D01*
X106733288Y-72612200D01*
X106765088Y-72663235D01*
X106787245Y-72701560D01*
X106797617Y-72723711D01*
X106798119Y-72726432D01*
X106789405Y-72740736D01*
X106765325Y-72769072D01*
X106728976Y-72808396D01*
X106683453Y-72855661D01*
X106631852Y-72907823D01*
X106577267Y-72961835D01*
X106522794Y-73014653D01*
X106471529Y-73063231D01*
X106426567Y-73104523D01*
X106391004Y-73135485D01*
X106367935Y-73153070D01*
X106361554Y-73155941D01*
X106346699Y-73149178D01*
X106316286Y-73130939D01*
X106275268Y-73104297D01*
X106243709Y-73082852D01*
X106186525Y-73043503D01*
X106118806Y-72997171D01*
X106050880Y-72950913D01*
X106014361Y-72926155D01*
X105890752Y-72842547D01*
X105786991Y-72898650D01*
X105739720Y-72923228D01*
X105699523Y-72942331D01*
X105672326Y-72953227D01*
X105665402Y-72954743D01*
X105657077Y-72943549D01*
X105640654Y-72911917D01*
X105617357Y-72862765D01*
X105588414Y-72799010D01*
X105555050Y-72723571D01*
X105518491Y-72639364D01*
X105479964Y-72549308D01*
X105440694Y-72456321D01*
X105401908Y-72363320D01*
X105364830Y-72273223D01*
X105330689Y-72188948D01*
X105300708Y-72113413D01*
X105276116Y-72049534D01*
X105258136Y-72000231D01*
X105247997Y-71968421D01*
X105246366Y-71957496D01*
X105259291Y-71943561D01*
X105287589Y-71920940D01*
X105325346Y-71894333D01*
X105328515Y-71892228D01*
X105426100Y-71814114D01*
X105504786Y-71722982D01*
X105563891Y-71621745D01*
X105602732Y-71513318D01*
X105620628Y-71400614D01*
X105616897Y-71286548D01*
X105590857Y-71174034D01*
X105541825Y-71065985D01*
X105527400Y-71042345D01*
X105452369Y-70946887D01*
X105363730Y-70870232D01*
X105264549Y-70812780D01*
X105157895Y-70774929D01*
X105046836Y-70757078D01*
X104934439Y-70759625D01*
X104823773Y-70782970D01*
X104717906Y-70827510D01*
X104619905Y-70893645D01*
X104589590Y-70920487D01*
X104512438Y-71004512D01*
X104456218Y-71092966D01*
X104417653Y-71192115D01*
X104396174Y-71290303D01*
X104390872Y-71400697D01*
X104408552Y-71511640D01*
X104447419Y-71619381D01*
X104505677Y-71720169D01*
X104581531Y-71810256D01*
X104673183Y-71885892D01*
X104685228Y-71893864D01*
X104723389Y-71919974D01*
X104752399Y-71942595D01*
X104766268Y-71957039D01*
X104766469Y-71957496D01*
X104763492Y-71973121D01*
X104751689Y-72008582D01*
X104732286Y-72060962D01*
X104706512Y-72127345D01*
X104675591Y-72204814D01*
X104640751Y-72290450D01*
X104603217Y-72381337D01*
X104564217Y-72474559D01*
X104524977Y-72567197D01*
X104486724Y-72656335D01*
X104450683Y-72739055D01*
X104418083Y-72812441D01*
X104390148Y-72873575D01*
X104368105Y-72919541D01*
X104353182Y-72947421D01*
X104347172Y-72954743D01*
X104328809Y-72949041D01*
X104294448Y-72933749D01*
X104250016Y-72911599D01*
X104225583Y-72898650D01*
X104121822Y-72842547D01*
X103998213Y-72926155D01*
X103935114Y-72968987D01*
X103866030Y-73016122D01*
X103801293Y-73060503D01*
X103768866Y-73082852D01*
X103723259Y-73113477D01*
X103684640Y-73137747D01*
X103658048Y-73152587D01*
X103649410Y-73155724D01*
X103636839Y-73147261D01*
X103609016Y-73123636D01*
X103568639Y-73087302D01*
X103518405Y-73040711D01*
X103461012Y-72986317D01*
X103424714Y-72951392D01*
X103361210Y-72888996D01*
X103306327Y-72833188D01*
X103262286Y-72786354D01*
X103231305Y-72750882D01*
X103215602Y-72729161D01*
X103214095Y-72724752D01*
X103221086Y-72707985D01*
X103240406Y-72674082D01*
X103269909Y-72626476D01*
X103307455Y-72568599D01*
X103350900Y-72503884D01*
X103363255Y-72485842D01*
X103408273Y-72420267D01*
X103448660Y-72361228D01*
X103482160Y-72312042D01*
X103506514Y-72276028D01*
X103519464Y-72256502D01*
X103520715Y-72254483D01*
X103518844Y-72238922D01*
X103508913Y-72204709D01*
X103492653Y-72156355D01*
X103471795Y-72098371D01*
X103448073Y-72035270D01*
X103423216Y-71971563D01*
X103398958Y-71911761D01*
X103377029Y-71860376D01*
X103359162Y-71821919D01*
X103347087Y-71800902D01*
X103346229Y-71799894D01*
X103338846Y-71793888D01*
X103326375Y-71787948D01*
X103306080Y-71781460D01*
X103275222Y-71773809D01*
X103231066Y-71764380D01*
X103170874Y-71752559D01*
X103091907Y-71737729D01*
X102991430Y-71719277D01*
X102969675Y-71715310D01*
X102905198Y-71702853D01*
X102848989Y-71690666D01*
X102806013Y-71679926D01*
X102781240Y-71671809D01*
X102777918Y-71669916D01*
X102772444Y-71653138D01*
X102767994Y-71615645D01*
X102764572Y-71561794D01*
X102762181Y-71495944D01*
X102760823Y-71422453D01*
X102760501Y-71345680D01*
X102761219Y-71269983D01*
X102762979Y-71199720D01*
X102765784Y-71139250D01*
X102769638Y-71092930D01*
X102774543Y-71065119D01*
X102777500Y-71059427D01*
X102793963Y-71053686D01*
X102831449Y-71044345D01*
X102886225Y-71032215D01*
X102954555Y-71018107D01*
X103032706Y-71002830D01*
X103075284Y-70994823D01*
X103156071Y-70979721D01*
X103228113Y-70966040D01*
X103287889Y-70954467D01*
X103331879Y-70945687D01*
X103356561Y-70940387D01*
X103360623Y-70939212D01*
X103367489Y-70925965D01*
X103382002Y-70894057D01*
X103402229Y-70848047D01*
X103426234Y-70792492D01*
X103452082Y-70731953D01*
X103477840Y-70670986D01*
X103501573Y-70614151D01*
X103521346Y-70566006D01*
X103535224Y-70531110D01*
X103541274Y-70514021D01*
X103541386Y-70513274D01*
X103534528Y-70499793D01*
X103515302Y-70468770D01*
X103485728Y-70423289D01*
X103447827Y-70366432D01*
X103403620Y-70301283D01*
X103377921Y-70263862D01*
X103331093Y-70195247D01*
X103289501Y-70132952D01*
X103255175Y-70080129D01*
X103230143Y-70039927D01*
X103216435Y-70015500D01*
X103214456Y-70010024D01*
X103222966Y-69997278D01*
X103246493Y-69970063D01*
X103282032Y-69931428D01*
X103326577Y-69884423D01*
X103377123Y-69832095D01*
X103430664Y-69777495D01*
X103484195Y-69723670D01*
X103534711Y-69673670D01*
X103579206Y-69630543D01*
X103614675Y-69597339D01*
X103638113Y-69577106D01*
X103645954Y-69572278D01*
X103658720Y-69579067D01*
X103689256Y-69598142D01*
X103734590Y-69627561D01*
X103791756Y-69665381D01*
X103857784Y-69709661D01*
X103907590Y-69743395D01*
X104159236Y-69914512D01*
X104368999Y-69828041D01*
X104578763Y-69741570D01*
X104635611Y-69440018D01*
X104692460Y-69138466D01*
X105320115Y-69138466D01*
X105376964Y-69440018D01*
X105376964Y-69440018D01*
G37*
X105376964Y-69440018D02*
X105433812Y-69741570D01*
X105853338Y-69914512D01*
X106104984Y-69743395D01*
X106175458Y-69695750D01*
X106239163Y-69653210D01*
X106293126Y-69617715D01*
X106334373Y-69591210D01*
X106359934Y-69575636D01*
X106366895Y-69572278D01*
X106379435Y-69580914D01*
X106406231Y-69604792D01*
X106444280Y-69640859D01*
X106490579Y-69686067D01*
X106542123Y-69737364D01*
X106595909Y-69791701D01*
X106648935Y-69846028D01*
X106698195Y-69897295D01*
X106740687Y-69942451D01*
X106773407Y-69978446D01*
X106793351Y-70002230D01*
X106798119Y-70010190D01*
X106791257Y-70024865D01*
X106772020Y-70057014D01*
X106742430Y-70103492D01*
X106704510Y-70161156D01*
X106660282Y-70226860D01*
X106634654Y-70264336D01*
X106587941Y-70332768D01*
X106546432Y-70394520D01*
X106512140Y-70446519D01*
X106487080Y-70485692D01*
X106473264Y-70508965D01*
X106471188Y-70513855D01*
X106475895Y-70527755D01*
X106488723Y-70560150D01*
X106507738Y-70606485D01*
X106531003Y-70662206D01*
X106556584Y-70722758D01*
X106582545Y-70783586D01*
X106606950Y-70840136D01*
X106627863Y-70887852D01*
X106643349Y-70922181D01*
X106651472Y-70938568D01*
X106651952Y-70939212D01*
X106664707Y-70942341D01*
X106698677Y-70949321D01*
X106750340Y-70959467D01*
X106816176Y-70972092D01*
X106892664Y-70986509D01*
X106937290Y-70994823D01*
X107019021Y-71010384D01*
X107092843Y-71025192D01*
X107155021Y-71038436D01*
X107201822Y-71049305D01*
X107229509Y-71056989D01*
X107235074Y-71059427D01*
X107240526Y-71075930D01*
X107244924Y-71113200D01*
X107248272Y-71166880D01*
X107250574Y-71232612D01*
X107251832Y-71306037D01*
X107252048Y-71382796D01*
X107251227Y-71458532D01*
X107249371Y-71528886D01*
X107246482Y-71589500D01*
X107242565Y-71636016D01*
X107237622Y-71664075D01*
X107234657Y-71669916D01*
X107216934Y-71676917D01*
X107179381Y-71686927D01*
X107126964Y-71698769D01*
X107064652Y-71711267D01*
X107042900Y-71715310D01*
X106938024Y-71734520D01*
X106855180Y-71749991D01*
X106791630Y-71762337D01*
X106744637Y-71772173D01*
X106711463Y-71780114D01*
X106689371Y-71786776D01*
X106675624Y-71792773D01*
X106667484Y-71798719D01*
X106666345Y-71799894D01*
X106654977Y-71818826D01*
X106637635Y-71855669D01*
X106616050Y-71905913D01*
X106591954Y-71965046D01*
X106567079Y-72028556D01*
X106543157Y-72091932D01*
X106521919Y-72150662D01*
X106505097Y-72200235D01*
X106494422Y-72236139D01*
X106491627Y-72253862D01*
X106491860Y-72254483D01*
X106501331Y-72268970D01*
X106522818Y-72300844D01*
X106554063Y-72346789D01*
X106592807Y-72403485D01*
X106636793Y-72467617D01*
X106649319Y-72485842D01*
X106693984Y-72551914D01*
X106733288Y-72612200D01*
X106765088Y-72663235D01*
X106787245Y-72701560D01*
X106797617Y-72723711D01*
X106798119Y-72726432D01*
X106789405Y-72740736D01*
X106765325Y-72769072D01*
X106728976Y-72808396D01*
X106683453Y-72855661D01*
X106631852Y-72907823D01*
X106577267Y-72961835D01*
X106522794Y-73014653D01*
X106471529Y-73063231D01*
X106426567Y-73104523D01*
X106391004Y-73135485D01*
X106367935Y-73153070D01*
X106361554Y-73155941D01*
X106346699Y-73149178D01*
X106316286Y-73130939D01*
X106275268Y-73104297D01*
X106243709Y-73082852D01*
X106186525Y-73043503D01*
X106118806Y-72997171D01*
X106050880Y-72950913D01*
X106014361Y-72926155D01*
X105890752Y-72842547D01*
X105786991Y-72898650D01*
X105739720Y-72923228D01*
X105699523Y-72942331D01*
X105672326Y-72953227D01*
X105665402Y-72954743D01*
X105657077Y-72943549D01*
X105640654Y-72911917D01*
X105617357Y-72862765D01*
X105588414Y-72799010D01*
X105555050Y-72723571D01*
X105518491Y-72639364D01*
X105479964Y-72549308D01*
X105440694Y-72456321D01*
X105401908Y-72363320D01*
X105364830Y-72273223D01*
X105330689Y-72188948D01*
X105300708Y-72113413D01*
X105276116Y-72049534D01*
X105258136Y-72000231D01*
X105247997Y-71968421D01*
X105246366Y-71957496D01*
X105259291Y-71943561D01*
X105287589Y-71920940D01*
X105325346Y-71894333D01*
X105328515Y-71892228D01*
X105426100Y-71814114D01*
X105504786Y-71722982D01*
X105563891Y-71621745D01*
X105602732Y-71513318D01*
X105620628Y-71400614D01*
X105616897Y-71286548D01*
X105590857Y-71174034D01*
X105541825Y-71065985D01*
X105527400Y-71042345D01*
X105452369Y-70946887D01*
X105363730Y-70870232D01*
X105264549Y-70812780D01*
X105157895Y-70774929D01*
X105046836Y-70757078D01*
X104934439Y-70759625D01*
X104823773Y-70782970D01*
X104717906Y-70827510D01*
X104619905Y-70893645D01*
X104589590Y-70920487D01*
X104512438Y-71004512D01*
X104456218Y-71092966D01*
X104417653Y-71192115D01*
X104396174Y-71290303D01*
X104390872Y-71400697D01*
X104408552Y-71511640D01*
X104447419Y-71619381D01*
X104505677Y-71720169D01*
X104581531Y-71810256D01*
X104673183Y-71885892D01*
X104685228Y-71893864D01*
X104723389Y-71919974D01*
X104752399Y-71942595D01*
X104766268Y-71957039D01*
X104766469Y-71957496D01*
X104763492Y-71973121D01*
X104751689Y-72008582D01*
X104732286Y-72060962D01*
X104706512Y-72127345D01*
X104675591Y-72204814D01*
X104640751Y-72290450D01*
X104603217Y-72381337D01*
X104564217Y-72474559D01*
X104524977Y-72567197D01*
X104486724Y-72656335D01*
X104450683Y-72739055D01*
X104418083Y-72812441D01*
X104390148Y-72873575D01*
X104368105Y-72919541D01*
X104353182Y-72947421D01*
X104347172Y-72954743D01*
X104328809Y-72949041D01*
X104294448Y-72933749D01*
X104250016Y-72911599D01*
X104225583Y-72898650D01*
X104121822Y-72842547D01*
X103998213Y-72926155D01*
X103935114Y-72968987D01*
X103866030Y-73016122D01*
X103801293Y-73060503D01*
X103768866Y-73082852D01*
X103723259Y-73113477D01*
X103684640Y-73137747D01*
X103658048Y-73152587D01*
X103649410Y-73155724D01*
X103636839Y-73147261D01*
X103609016Y-73123636D01*
X103568639Y-73087302D01*
X103518405Y-73040711D01*
X103461012Y-72986317D01*
X103424714Y-72951392D01*
X103361210Y-72888996D01*
X103306327Y-72833188D01*
X103262286Y-72786354D01*
X103231305Y-72750882D01*
X103215602Y-72729161D01*
X103214095Y-72724752D01*
X103221086Y-72707985D01*
X103240406Y-72674082D01*
X103269909Y-72626476D01*
X103307455Y-72568599D01*
X103350900Y-72503884D01*
X103363255Y-72485842D01*
X103408273Y-72420267D01*
X103448660Y-72361228D01*
X103482160Y-72312042D01*
X103506514Y-72276028D01*
X103519464Y-72256502D01*
X103520715Y-72254483D01*
X103518844Y-72238922D01*
X103508913Y-72204709D01*
X103492653Y-72156355D01*
X103471795Y-72098371D01*
X103448073Y-72035270D01*
X103423216Y-71971563D01*
X103398958Y-71911761D01*
X103377029Y-71860376D01*
X103359162Y-71821919D01*
X103347087Y-71800902D01*
X103346229Y-71799894D01*
X103338846Y-71793888D01*
X103326375Y-71787948D01*
X103306080Y-71781460D01*
X103275222Y-71773809D01*
X103231066Y-71764380D01*
X103170874Y-71752559D01*
X103091907Y-71737729D01*
X102991430Y-71719277D01*
X102969675Y-71715310D01*
X102905198Y-71702853D01*
X102848989Y-71690666D01*
X102806013Y-71679926D01*
X102781240Y-71671809D01*
X102777918Y-71669916D01*
X102772444Y-71653138D01*
X102767994Y-71615645D01*
X102764572Y-71561794D01*
X102762181Y-71495944D01*
X102760823Y-71422453D01*
X102760501Y-71345680D01*
X102761219Y-71269983D01*
X102762979Y-71199720D01*
X102765784Y-71139250D01*
X102769638Y-71092930D01*
X102774543Y-71065119D01*
X102777500Y-71059427D01*
X102793963Y-71053686D01*
X102831449Y-71044345D01*
X102886225Y-71032215D01*
X102954555Y-71018107D01*
X103032706Y-71002830D01*
X103075284Y-70994823D01*
X103156071Y-70979721D01*
X103228113Y-70966040D01*
X103287889Y-70954467D01*
X103331879Y-70945687D01*
X103356561Y-70940387D01*
X103360623Y-70939212D01*
X103367489Y-70925965D01*
X103382002Y-70894057D01*
X103402229Y-70848047D01*
X103426234Y-70792492D01*
X103452082Y-70731953D01*
X103477840Y-70670986D01*
X103501573Y-70614151D01*
X103521346Y-70566006D01*
X103535224Y-70531110D01*
X103541274Y-70514021D01*
X103541386Y-70513274D01*
X103534528Y-70499793D01*
X103515302Y-70468770D01*
X103485728Y-70423289D01*
X103447827Y-70366432D01*
X103403620Y-70301283D01*
X103377921Y-70263862D01*
X103331093Y-70195247D01*
X103289501Y-70132952D01*
X103255175Y-70080129D01*
X103230143Y-70039927D01*
X103216435Y-70015500D01*
X103214456Y-70010024D01*
X103222966Y-69997278D01*
X103246493Y-69970063D01*
X103282032Y-69931428D01*
X103326577Y-69884423D01*
X103377123Y-69832095D01*
X103430664Y-69777495D01*
X103484195Y-69723670D01*
X103534711Y-69673670D01*
X103579206Y-69630543D01*
X103614675Y-69597339D01*
X103638113Y-69577106D01*
X103645954Y-69572278D01*
X103658720Y-69579067D01*
X103689256Y-69598142D01*
X103734590Y-69627561D01*
X103791756Y-69665381D01*
X103857784Y-69709661D01*
X103907590Y-69743395D01*
X104159236Y-69914512D01*
X104368999Y-69828041D01*
X104578763Y-69741570D01*
X104635611Y-69440018D01*
X104692460Y-69138466D01*
X105320115Y-69138466D01*
X105376964Y-69440018D01*
G36*
X106799460Y-73608030D02*
G01*
X106842711Y-73621245D01*
X106870558Y-73637941D01*
X106879629Y-73651145D01*
X106877132Y-73666797D01*
X106860931Y-73691385D01*
X106847232Y-73708800D01*
X106818992Y-73740283D01*
X106797775Y-73753529D01*
X106779688Y-73752664D01*
X106726035Y-73739010D01*
X106686630Y-73739630D01*
X106654632Y-73755104D01*
X106643890Y-73764161D01*
X106609505Y-73796027D01*
X106609505Y-74212179D01*
X106471188Y-74212179D01*
X106471188Y-73608614D01*
X106540347Y-73608614D01*
X106581869Y-73610256D01*
X106603291Y-73616087D01*
X106609502Y-73627461D01*
X106609505Y-73627798D01*
X106612439Y-73639713D01*
X106625704Y-73638159D01*
X106644084Y-73629563D01*
X106682046Y-73613568D01*
X106712872Y-73603945D01*
X106752536Y-73601478D01*
X106799460Y-73608030D01*
X106799460Y-73608030D01*
G37*
X106799460Y-73608030D02*
X106842711Y-73621245D01*
X106870558Y-73637941D01*
X106879629Y-73651145D01*
X106877132Y-73666797D01*
X106860931Y-73691385D01*
X106847232Y-73708800D01*
X106818992Y-73740283D01*
X106797775Y-73753529D01*
X106779688Y-73752664D01*
X106726035Y-73739010D01*
X106686630Y-73739630D01*
X106654632Y-73755104D01*
X106643890Y-73764161D01*
X106609505Y-73796027D01*
X106609505Y-74212179D01*
X106471188Y-74212179D01*
X106471188Y-73608614D01*
X106540347Y-73608614D01*
X106581869Y-73610256D01*
X106603291Y-73616087D01*
X106609502Y-73627461D01*
X106609505Y-73627798D01*
X106612439Y-73639713D01*
X106625704Y-73638159D01*
X106644084Y-73629563D01*
X106682046Y-73613568D01*
X106712872Y-73603945D01*
X106752536Y-73601478D01*
X106799460Y-73608030D01*
G36*
X104245988Y-73619002D02*
G01*
X104277283Y-73633950D01*
X104307591Y-73655541D01*
X104330682Y-73680391D01*
X104347500Y-73712087D01*
X104358994Y-73754214D01*
X104366109Y-73810358D01*
X104369793Y-73884106D01*
X104370992Y-73979044D01*
X104371011Y-73988985D01*
X104371287Y-74212179D01*
X104232970Y-74212179D01*
X104232970Y-74006418D01*
X104232872Y-73930189D01*
X104232191Y-73874939D01*
X104230349Y-73836501D01*
X104226767Y-73810706D01*
X104220868Y-73793384D01*
X104212073Y-73780368D01*
X104199820Y-73767507D01*
X104156953Y-73739873D01*
X104110157Y-73734745D01*
X104065576Y-73752217D01*
X104050072Y-73765221D01*
X104038690Y-73777447D01*
X104030519Y-73790540D01*
X104025026Y-73808615D01*
X104021680Y-73835787D01*
X104019949Y-73876170D01*
X104019303Y-73933879D01*
X104019208Y-74004132D01*
X104019208Y-74212179D01*
X103880891Y-74212179D01*
X103880891Y-73608614D01*
X103950050Y-73608614D01*
X103991572Y-73610256D01*
X104012994Y-73616087D01*
X104019205Y-73627461D01*
X104019208Y-73627798D01*
X104022090Y-73638938D01*
X104034801Y-73637674D01*
X104060074Y-73625434D01*
X104117395Y-73607424D01*
X104182963Y-73605421D01*
X104245988Y-73619002D01*
X104245988Y-73619002D01*
G37*
X104245988Y-73619002D02*
X104277283Y-73633950D01*
X104307591Y-73655541D01*
X104330682Y-73680391D01*
X104347500Y-73712087D01*
X104358994Y-73754214D01*
X104366109Y-73810358D01*
X104369793Y-73884106D01*
X104370992Y-73979044D01*
X104371011Y-73988985D01*
X104371287Y-74212179D01*
X104232970Y-74212179D01*
X104232970Y-74006418D01*
X104232872Y-73930189D01*
X104232191Y-73874939D01*
X104230349Y-73836501D01*
X104226767Y-73810706D01*
X104220868Y-73793384D01*
X104212073Y-73780368D01*
X104199820Y-73767507D01*
X104156953Y-73739873D01*
X104110157Y-73734745D01*
X104065576Y-73752217D01*
X104050072Y-73765221D01*
X104038690Y-73777447D01*
X104030519Y-73790540D01*
X104025026Y-73808615D01*
X104021680Y-73835787D01*
X104019949Y-73876170D01*
X104019303Y-73933879D01*
X104019208Y-74004132D01*
X104019208Y-74212179D01*
X103880891Y-74212179D01*
X103880891Y-73608614D01*
X103950050Y-73608614D01*
X103991572Y-73610256D01*
X104012994Y-73616087D01*
X104019205Y-73627461D01*
X104019208Y-73627798D01*
X104022090Y-73638938D01*
X104034801Y-73637674D01*
X104060074Y-73625434D01*
X104117395Y-73607424D01*
X104182963Y-73605421D01*
X104245988Y-73619002D01*
G36*
X107677898Y-73606457D02*
G01*
X107710096Y-73614279D01*
X107771825Y-73642921D01*
X107824610Y-73686667D01*
X107861141Y-73739117D01*
X107866160Y-73750893D01*
X107873045Y-73781740D01*
X107877864Y-73827371D01*
X107879505Y-73873492D01*
X107879505Y-73960693D01*
X107697178Y-73960693D01*
X107621979Y-73960978D01*
X107569003Y-73962704D01*
X107535325Y-73967181D01*
X107518020Y-73975720D01*
X107514163Y-73989630D01*
X107520829Y-74010222D01*
X107532770Y-74034315D01*
X107566080Y-74074525D01*
X107612368Y-74094558D01*
X107668944Y-74093905D01*
X107733031Y-74072101D01*
X107788417Y-74045193D01*
X107834375Y-74081532D01*
X107880333Y-74117872D01*
X107837096Y-74157819D01*
X107779374Y-74195563D01*
X107708386Y-74218320D01*
X107632029Y-74224688D01*
X107558199Y-74213268D01*
X107546287Y-74209393D01*
X107481399Y-74175506D01*
X107433130Y-74124986D01*
X107400465Y-74056325D01*
X107382385Y-73968014D01*
X107382175Y-73966121D01*
X107380556Y-73869878D01*
X107387100Y-73835542D01*
X107514852Y-73835542D01*
X107526584Y-73840822D01*
X107558438Y-73844867D01*
X107605397Y-73847176D01*
X107635154Y-73847525D01*
X107690648Y-73847306D01*
X107725346Y-73845916D01*
X107743601Y-73842251D01*
X107749766Y-73835210D01*
X107748195Y-73823690D01*
X107746878Y-73819233D01*
X107724382Y-73777355D01*
X107689003Y-73743604D01*
X107657780Y-73728773D01*
X107616301Y-73729668D01*
X107574269Y-73748164D01*
X107539012Y-73778786D01*
X107517854Y-73816062D01*
X107514852Y-73835542D01*
X107387100Y-73835542D01*
X107396690Y-73785229D01*
X107428698Y-73714191D01*
X107474701Y-73658779D01*
X107532821Y-73621009D01*
X107601180Y-73602896D01*
X107677898Y-73606457D01*
X107677898Y-73606457D01*
G37*
X107677898Y-73606457D02*
X107710096Y-73614279D01*
X107771825Y-73642921D01*
X107824610Y-73686667D01*
X107861141Y-73739117D01*
X107866160Y-73750893D01*
X107873045Y-73781740D01*
X107877864Y-73827371D01*
X107879505Y-73873492D01*
X107879505Y-73960693D01*
X107697178Y-73960693D01*
X107621979Y-73960978D01*
X107569003Y-73962704D01*
X107535325Y-73967181D01*
X107518020Y-73975720D01*
X107514163Y-73989630D01*
X107520829Y-74010222D01*
X107532770Y-74034315D01*
X107566080Y-74074525D01*
X107612368Y-74094558D01*
X107668944Y-74093905D01*
X107733031Y-74072101D01*
X107788417Y-74045193D01*
X107834375Y-74081532D01*
X107880333Y-74117872D01*
X107837096Y-74157819D01*
X107779374Y-74195563D01*
X107708386Y-74218320D01*
X107632029Y-74224688D01*
X107558199Y-74213268D01*
X107546287Y-74209393D01*
X107481399Y-74175506D01*
X107433130Y-74124986D01*
X107400465Y-74056325D01*
X107382385Y-73968014D01*
X107382175Y-73966121D01*
X107380556Y-73869878D01*
X107387100Y-73835542D01*
X107514852Y-73835542D01*
X107526584Y-73840822D01*
X107558438Y-73844867D01*
X107605397Y-73847176D01*
X107635154Y-73847525D01*
X107690648Y-73847306D01*
X107725346Y-73845916D01*
X107743601Y-73842251D01*
X107749766Y-73835210D01*
X107748195Y-73823690D01*
X107746878Y-73819233D01*
X107724382Y-73777355D01*
X107689003Y-73743604D01*
X107657780Y-73728773D01*
X107616301Y-73729668D01*
X107574269Y-73748164D01*
X107539012Y-73778786D01*
X107517854Y-73816062D01*
X107514852Y-73835542D01*
X107387100Y-73835542D01*
X107396690Y-73785229D01*
X107428698Y-73714191D01*
X107474701Y-73658779D01*
X107532821Y-73621009D01*
X107601180Y-73602896D01*
X107677898Y-73606457D01*
G36*
X107217226Y-73613880D02*
G01*
X107290080Y-73644830D01*
X107313027Y-73659895D01*
X107342354Y-73683048D01*
X107360764Y-73701253D01*
X107363961Y-73707183D01*
X107354935Y-73720340D01*
X107331837Y-73742667D01*
X107313344Y-73758250D01*
X107262728Y-73798926D01*
X107222760Y-73765295D01*
X107191874Y-73743584D01*
X107161759Y-73736090D01*
X107127292Y-73737920D01*
X107072561Y-73751528D01*
X107034886Y-73779772D01*
X107011991Y-73825433D01*
X107001597Y-73891289D01*
X107001595Y-73891331D01*
X107002494Y-73964939D01*
X107016463Y-74018946D01*
X107044328Y-74055716D01*
X107063325Y-74068168D01*
X107113776Y-74083673D01*
X107167663Y-74083683D01*
X107214546Y-74068638D01*
X107225644Y-74061287D01*
X107253476Y-74042511D01*
X107275236Y-74039434D01*
X107298704Y-74053409D01*
X107324649Y-74078510D01*
X107365716Y-74120880D01*
X107320121Y-74158464D01*
X107249674Y-74200882D01*
X107170233Y-74221785D01*
X107087215Y-74220272D01*
X107032694Y-74206411D01*
X106968970Y-74172135D01*
X106918005Y-74118212D01*
X106894851Y-74080149D01*
X106876099Y-74025536D01*
X106866715Y-73956369D01*
X106866643Y-73881407D01*
X106875824Y-73809409D01*
X106894199Y-73749137D01*
X106897093Y-73742958D01*
X106939952Y-73682351D01*
X106997979Y-73638224D01*
X107066591Y-73611493D01*
X107141201Y-73603073D01*
X107217226Y-73613880D01*
X107217226Y-73613880D01*
G37*
X107217226Y-73613880D02*
X107290080Y-73644830D01*
X107313027Y-73659895D01*
X107342354Y-73683048D01*
X107360764Y-73701253D01*
X107363961Y-73707183D01*
X107354935Y-73720340D01*
X107331837Y-73742667D01*
X107313344Y-73758250D01*
X107262728Y-73798926D01*
X107222760Y-73765295D01*
X107191874Y-73743584D01*
X107161759Y-73736090D01*
X107127292Y-73737920D01*
X107072561Y-73751528D01*
X107034886Y-73779772D01*
X107011991Y-73825433D01*
X107001597Y-73891289D01*
X107001595Y-73891331D01*
X107002494Y-73964939D01*
X107016463Y-74018946D01*
X107044328Y-74055716D01*
X107063325Y-74068168D01*
X107113776Y-74083673D01*
X107167663Y-74083683D01*
X107214546Y-74068638D01*
X107225644Y-74061287D01*
X107253476Y-74042511D01*
X107275236Y-74039434D01*
X107298704Y-74053409D01*
X107324649Y-74078510D01*
X107365716Y-74120880D01*
X107320121Y-74158464D01*
X107249674Y-74200882D01*
X107170233Y-74221785D01*
X107087215Y-74220272D01*
X107032694Y-74206411D01*
X106968970Y-74172135D01*
X106918005Y-74118212D01*
X106894851Y-74080149D01*
X106876099Y-74025536D01*
X106866715Y-73956369D01*
X106866643Y-73881407D01*
X106875824Y-73809409D01*
X106894199Y-73749137D01*
X106897093Y-73742958D01*
X106939952Y-73682351D01*
X106997979Y-73638224D01*
X107066591Y-73611493D01*
X107141201Y-73603073D01*
X107217226Y-73613880D01*
G36*
X105993367Y-73804342D02*
G01*
X105994555Y-73896563D01*
X105998897Y-73966610D01*
X106007558Y-74017381D01*
X106021704Y-74051772D01*
X106042500Y-74072679D01*
X106071110Y-74083000D01*
X106106535Y-74085636D01*
X106143636Y-74082682D01*
X106171818Y-74071889D01*
X106192243Y-74050360D01*
X106206079Y-74015199D01*
X106214491Y-73963510D01*
X106218643Y-73892394D01*
X106219703Y-73804342D01*
X106219703Y-73608614D01*
X106358020Y-73608614D01*
X106358020Y-74212179D01*
X106288862Y-74212179D01*
X106247170Y-74210489D01*
X106225701Y-74204556D01*
X106219703Y-74193293D01*
X106216091Y-74183261D01*
X106201714Y-74185383D01*
X106172736Y-74199580D01*
X106106319Y-74221480D01*
X106035875Y-74219928D01*
X105968377Y-74196147D01*
X105936233Y-74177362D01*
X105911715Y-74157022D01*
X105893804Y-74131573D01*
X105881479Y-74097458D01*
X105873723Y-74051121D01*
X105869516Y-73989007D01*
X105867840Y-73907561D01*
X105867624Y-73844578D01*
X105867624Y-73608614D01*
X105993367Y-73608614D01*
X105993367Y-73804342D01*
X105993367Y-73804342D01*
G37*
X105993367Y-73804342D02*
X105994555Y-73896563D01*
X105998897Y-73966610D01*
X106007558Y-74017381D01*
X106021704Y-74051772D01*
X106042500Y-74072679D01*
X106071110Y-74083000D01*
X106106535Y-74085636D01*
X106143636Y-74082682D01*
X106171818Y-74071889D01*
X106192243Y-74050360D01*
X106206079Y-74015199D01*
X106214491Y-73963510D01*
X106218643Y-73892394D01*
X106219703Y-73804342D01*
X106219703Y-73608614D01*
X106358020Y-73608614D01*
X106358020Y-74212179D01*
X106288862Y-74212179D01*
X106247170Y-74210489D01*
X106225701Y-74204556D01*
X106219703Y-74193293D01*
X106216091Y-74183261D01*
X106201714Y-74185383D01*
X106172736Y-74199580D01*
X106106319Y-74221480D01*
X106035875Y-74219928D01*
X105968377Y-74196147D01*
X105936233Y-74177362D01*
X105911715Y-74157022D01*
X105893804Y-74131573D01*
X105881479Y-74097458D01*
X105873723Y-74051121D01*
X105869516Y-73989007D01*
X105867840Y-73907561D01*
X105867624Y-73844578D01*
X105867624Y-73608614D01*
X105993367Y-73608614D01*
X105993367Y-73804342D01*
G36*
X105610762Y-73616055D02*
G01*
X105674363Y-73650692D01*
X105724123Y-73705372D01*
X105747568Y-73749842D01*
X105757634Y-73789121D01*
X105764156Y-73845116D01*
X105766951Y-73909621D01*
X105765836Y-73974429D01*
X105760626Y-74031334D01*
X105754541Y-74061727D01*
X105734014Y-74103306D01*
X105698463Y-74147468D01*
X105655619Y-74186087D01*
X105613211Y-74211034D01*
X105612177Y-74211430D01*
X105559553Y-74222331D01*
X105497188Y-74222601D01*
X105437924Y-74212676D01*
X105415040Y-74204722D01*
X105356102Y-74171300D01*
X105313890Y-74127511D01*
X105286156Y-74069538D01*
X105270651Y-73993565D01*
X105267143Y-73953771D01*
X105267590Y-73903766D01*
X105402376Y-73903766D01*
X105406917Y-73976732D01*
X105419986Y-74032334D01*
X105440756Y-74067861D01*
X105455552Y-74078020D01*
X105493464Y-74085104D01*
X105538527Y-74083007D01*
X105577487Y-74072812D01*
X105587704Y-74067204D01*
X105614659Y-74034538D01*
X105632451Y-73984545D01*
X105640024Y-73923705D01*
X105636325Y-73858497D01*
X105628057Y-73819253D01*
X105604320Y-73773805D01*
X105566849Y-73745396D01*
X105521720Y-73735573D01*
X105475011Y-73745887D01*
X105439132Y-73771112D01*
X105420277Y-73791925D01*
X105409272Y-73812439D01*
X105404026Y-73840203D01*
X105402449Y-73882762D01*
X105402376Y-73903766D01*
X105267590Y-73903766D01*
X105268094Y-73847580D01*
X105285388Y-73760501D01*
X105319029Y-73692530D01*
X105369018Y-73643664D01*
X105435356Y-73613899D01*
X105449601Y-73610448D01*
X105535210Y-73602345D01*
X105610762Y-73616055D01*
X105610762Y-73616055D01*
G37*
X105610762Y-73616055D02*
X105674363Y-73650692D01*
X105724123Y-73705372D01*
X105747568Y-73749842D01*
X105757634Y-73789121D01*
X105764156Y-73845116D01*
X105766951Y-73909621D01*
X105765836Y-73974429D01*
X105760626Y-74031334D01*
X105754541Y-74061727D01*
X105734014Y-74103306D01*
X105698463Y-74147468D01*
X105655619Y-74186087D01*
X105613211Y-74211034D01*
X105612177Y-74211430D01*
X105559553Y-74222331D01*
X105497188Y-74222601D01*
X105437924Y-74212676D01*
X105415040Y-74204722D01*
X105356102Y-74171300D01*
X105313890Y-74127511D01*
X105286156Y-74069538D01*
X105270651Y-73993565D01*
X105267143Y-73953771D01*
X105267590Y-73903766D01*
X105402376Y-73903766D01*
X105406917Y-73976732D01*
X105419986Y-74032334D01*
X105440756Y-74067861D01*
X105455552Y-74078020D01*
X105493464Y-74085104D01*
X105538527Y-74083007D01*
X105577487Y-74072812D01*
X105587704Y-74067204D01*
X105614659Y-74034538D01*
X105632451Y-73984545D01*
X105640024Y-73923705D01*
X105636325Y-73858497D01*
X105628057Y-73819253D01*
X105604320Y-73773805D01*
X105566849Y-73745396D01*
X105521720Y-73735573D01*
X105475011Y-73745887D01*
X105439132Y-73771112D01*
X105420277Y-73791925D01*
X105409272Y-73812439D01*
X105404026Y-73840203D01*
X105402449Y-73882762D01*
X105402376Y-73903766D01*
X105267590Y-73903766D01*
X105268094Y-73847580D01*
X105285388Y-73760501D01*
X105319029Y-73692530D01*
X105369018Y-73643664D01*
X105435356Y-73613899D01*
X105449601Y-73610448D01*
X105535210Y-73602345D01*
X105610762Y-73616055D01*
G36*
X105014017Y-73606452D02*
G01*
X105061634Y-73615482D01*
X105111034Y-73634370D01*
X105116312Y-73636777D01*
X105153774Y-73656476D01*
X105179717Y-73674781D01*
X105188103Y-73686508D01*
X105180117Y-73705632D01*
X105160720Y-73733850D01*
X105152110Y-73744384D01*
X105116628Y-73785847D01*
X105070885Y-73758858D01*
X105027350Y-73740878D01*
X104977050Y-73731267D01*
X104928812Y-73730660D01*
X104891467Y-73739691D01*
X104882505Y-73745327D01*
X104865437Y-73771171D01*
X104863363Y-73800941D01*
X104876134Y-73824197D01*
X104883688Y-73828708D01*
X104906325Y-73834309D01*
X104946115Y-73840892D01*
X104995166Y-73847183D01*
X105004215Y-73848170D01*
X105082996Y-73861798D01*
X105140136Y-73884946D01*
X105178030Y-73919752D01*
X105199079Y-73968354D01*
X105205635Y-74027718D01*
X105196577Y-74095198D01*
X105167164Y-74148188D01*
X105117278Y-74186783D01*
X105046800Y-74211081D01*
X104968565Y-74220667D01*
X104904766Y-74220552D01*
X104853016Y-74211845D01*
X104817673Y-74199825D01*
X104773017Y-74178880D01*
X104731747Y-74154574D01*
X104717079Y-74143876D01*
X104679357Y-74113084D01*
X104724852Y-74067049D01*
X104770347Y-74021013D01*
X104822072Y-74055243D01*
X104873952Y-74080952D01*
X104929351Y-74094399D01*
X104982605Y-74095818D01*
X105028049Y-74085443D01*
X105060016Y-74063507D01*
X105070338Y-74044998D01*
X105068789Y-74015314D01*
X105043140Y-73992615D01*
X104993460Y-73976940D01*
X104939031Y-73969695D01*
X104855264Y-73955873D01*
X104793033Y-73929796D01*
X104751507Y-73890699D01*
X104729853Y-73837820D01*
X104726853Y-73775126D01*
X104741671Y-73709642D01*
X104775454Y-73660144D01*
X104828505Y-73626408D01*
X104901126Y-73608207D01*
X104954928Y-73604639D01*
X105014017Y-73606452D01*
X105014017Y-73606452D01*
G37*
X105014017Y-73606452D02*
X105061634Y-73615482D01*
X105111034Y-73634370D01*
X105116312Y-73636777D01*
X105153774Y-73656476D01*
X105179717Y-73674781D01*
X105188103Y-73686508D01*
X105180117Y-73705632D01*
X105160720Y-73733850D01*
X105152110Y-73744384D01*
X105116628Y-73785847D01*
X105070885Y-73758858D01*
X105027350Y-73740878D01*
X104977050Y-73731267D01*
X104928812Y-73730660D01*
X104891467Y-73739691D01*
X104882505Y-73745327D01*
X104865437Y-73771171D01*
X104863363Y-73800941D01*
X104876134Y-73824197D01*
X104883688Y-73828708D01*
X104906325Y-73834309D01*
X104946115Y-73840892D01*
X104995166Y-73847183D01*
X105004215Y-73848170D01*
X105082996Y-73861798D01*
X105140136Y-73884946D01*
X105178030Y-73919752D01*
X105199079Y-73968354D01*
X105205635Y-74027718D01*
X105196577Y-74095198D01*
X105167164Y-74148188D01*
X105117278Y-74186783D01*
X105046800Y-74211081D01*
X104968565Y-74220667D01*
X104904766Y-74220552D01*
X104853016Y-74211845D01*
X104817673Y-74199825D01*
X104773017Y-74178880D01*
X104731747Y-74154574D01*
X104717079Y-74143876D01*
X104679357Y-74113084D01*
X104724852Y-74067049D01*
X104770347Y-74021013D01*
X104822072Y-74055243D01*
X104873952Y-74080952D01*
X104929351Y-74094399D01*
X104982605Y-74095818D01*
X105028049Y-74085443D01*
X105060016Y-74063507D01*
X105070338Y-74044998D01*
X105068789Y-74015314D01*
X105043140Y-73992615D01*
X104993460Y-73976940D01*
X104939031Y-73969695D01*
X104855264Y-73955873D01*
X104793033Y-73929796D01*
X104751507Y-73890699D01*
X104729853Y-73837820D01*
X104726853Y-73775126D01*
X104741671Y-73709642D01*
X104775454Y-73660144D01*
X104828505Y-73626408D01*
X104901126Y-73608207D01*
X104954928Y-73604639D01*
X105014017Y-73606452D01*
G36*
X103643301Y-73622614D02*
G01*
X103655832Y-73628514D01*
X103699201Y-73660283D01*
X103740210Y-73706646D01*
X103770832Y-73757696D01*
X103779541Y-73781166D01*
X103787488Y-73823091D01*
X103792226Y-73873757D01*
X103792801Y-73894679D01*
X103792871Y-73960693D01*
X103412917Y-73960693D01*
X103421017Y-73995273D01*
X103440896Y-74036170D01*
X103475653Y-74071514D01*
X103517002Y-74094282D01*
X103543351Y-74099010D01*
X103579084Y-74093273D01*
X103621718Y-74078882D01*
X103636201Y-74072262D01*
X103689760Y-74045513D01*
X103735467Y-74080376D01*
X103761842Y-74103955D01*
X103775876Y-74123417D01*
X103776586Y-74129129D01*
X103764049Y-74142973D01*
X103736572Y-74164012D01*
X103711634Y-74180425D01*
X103644336Y-74209930D01*
X103568890Y-74223284D01*
X103494112Y-74219812D01*
X103434505Y-74201663D01*
X103373059Y-74162784D01*
X103329392Y-74111595D01*
X103302074Y-74045367D01*
X103289678Y-73961371D01*
X103288579Y-73922936D01*
X103292978Y-73834861D01*
X103293518Y-73832299D01*
X103419418Y-73832299D01*
X103422885Y-73840558D01*
X103437137Y-73845113D01*
X103466530Y-73847065D01*
X103515425Y-73847517D01*
X103534252Y-73847525D01*
X103591533Y-73846843D01*
X103627859Y-73844364D01*
X103647396Y-73839443D01*
X103654310Y-73831434D01*
X103654555Y-73828862D01*
X103646664Y-73808423D01*
X103626915Y-73779789D01*
X103618425Y-73769763D01*
X103586906Y-73741408D01*
X103554051Y-73730259D01*
X103536349Y-73729327D01*
X103488461Y-73740981D01*
X103448301Y-73772285D01*
X103422827Y-73817752D01*
X103422375Y-73819233D01*
X103419418Y-73832299D01*
X103293518Y-73832299D01*
X103307608Y-73765510D01*
X103333962Y-73710025D01*
X103366193Y-73670639D01*
X103425783Y-73627931D01*
X103495832Y-73605109D01*
X103570339Y-73603046D01*
X103643301Y-73622614D01*
X103643301Y-73622614D01*
G37*
X103643301Y-73622614D02*
X103655832Y-73628514D01*
X103699201Y-73660283D01*
X103740210Y-73706646D01*
X103770832Y-73757696D01*
X103779541Y-73781166D01*
X103787488Y-73823091D01*
X103792226Y-73873757D01*
X103792801Y-73894679D01*
X103792871Y-73960693D01*
X103412917Y-73960693D01*
X103421017Y-73995273D01*
X103440896Y-74036170D01*
X103475653Y-74071514D01*
X103517002Y-74094282D01*
X103543351Y-74099010D01*
X103579084Y-74093273D01*
X103621718Y-74078882D01*
X103636201Y-74072262D01*
X103689760Y-74045513D01*
X103735467Y-74080376D01*
X103761842Y-74103955D01*
X103775876Y-74123417D01*
X103776586Y-74129129D01*
X103764049Y-74142973D01*
X103736572Y-74164012D01*
X103711634Y-74180425D01*
X103644336Y-74209930D01*
X103568890Y-74223284D01*
X103494112Y-74219812D01*
X103434505Y-74201663D01*
X103373059Y-74162784D01*
X103329392Y-74111595D01*
X103302074Y-74045367D01*
X103289678Y-73961371D01*
X103288579Y-73922936D01*
X103292978Y-73834861D01*
X103293518Y-73832299D01*
X103419418Y-73832299D01*
X103422885Y-73840558D01*
X103437137Y-73845113D01*
X103466530Y-73847065D01*
X103515425Y-73847517D01*
X103534252Y-73847525D01*
X103591533Y-73846843D01*
X103627859Y-73844364D01*
X103647396Y-73839443D01*
X103654310Y-73831434D01*
X103654555Y-73828862D01*
X103646664Y-73808423D01*
X103626915Y-73779789D01*
X103618425Y-73769763D01*
X103586906Y-73741408D01*
X103554051Y-73730259D01*
X103536349Y-73729327D01*
X103488461Y-73740981D01*
X103448301Y-73772285D01*
X103422827Y-73817752D01*
X103422375Y-73819233D01*
X103419418Y-73832299D01*
X103293518Y-73832299D01*
X103307608Y-73765510D01*
X103333962Y-73710025D01*
X103366193Y-73670639D01*
X103425783Y-73627931D01*
X103495832Y-73605109D01*
X103570339Y-73603046D01*
X103643301Y-73622614D01*
G36*
X102461739Y-73615148D02*
G01*
X102527521Y-73644231D01*
X102577460Y-73692793D01*
X102611626Y-73760908D01*
X102630093Y-73848651D01*
X102631417Y-73862351D01*
X102632454Y-73958939D01*
X102619007Y-74043602D01*
X102591892Y-74112221D01*
X102577373Y-74134294D01*
X102526799Y-74181011D01*
X102462391Y-74211268D01*
X102390334Y-74223824D01*
X102316815Y-74217439D01*
X102260928Y-74197772D01*
X102212868Y-74164629D01*
X102173588Y-74121175D01*
X102172908Y-74120158D01*
X102156956Y-74093338D01*
X102146590Y-74066368D01*
X102140312Y-74032332D01*
X102136627Y-73984310D01*
X102135003Y-73944931D01*
X102134328Y-73909219D01*
X102260045Y-73909219D01*
X102261274Y-73944770D01*
X102265734Y-73992094D01*
X102273603Y-74022465D01*
X102287793Y-74044072D01*
X102301083Y-74056694D01*
X102348198Y-74083122D01*
X102397495Y-74086653D01*
X102443407Y-74067639D01*
X102466362Y-74046331D01*
X102482904Y-74024859D01*
X102492579Y-74004313D01*
X102496826Y-73977574D01*
X102497080Y-73937523D01*
X102495772Y-73900638D01*
X102492957Y-73847947D01*
X102488495Y-73813772D01*
X102480452Y-73791480D01*
X102466897Y-73774442D01*
X102456155Y-73764703D01*
X102411223Y-73739123D01*
X102362751Y-73737847D01*
X102322106Y-73752999D01*
X102287433Y-73784642D01*
X102266776Y-73836620D01*
X102260045Y-73909219D01*
X102134328Y-73909219D01*
X102133521Y-73866621D01*
X102136052Y-73808056D01*
X102143638Y-73764007D01*
X102157319Y-73729248D01*
X102178135Y-73698551D01*
X102185853Y-73689436D01*
X102234111Y-73644021D01*
X102285872Y-73617493D01*
X102349172Y-73606379D01*
X102380039Y-73605471D01*
X102461739Y-73615148D01*
X102461739Y-73615148D01*
G37*
X102461739Y-73615148D02*
X102527521Y-73644231D01*
X102577460Y-73692793D01*
X102611626Y-73760908D01*
X102630093Y-73848651D01*
X102631417Y-73862351D01*
X102632454Y-73958939D01*
X102619007Y-74043602D01*
X102591892Y-74112221D01*
X102577373Y-74134294D01*
X102526799Y-74181011D01*
X102462391Y-74211268D01*
X102390334Y-74223824D01*
X102316815Y-74217439D01*
X102260928Y-74197772D01*
X102212868Y-74164629D01*
X102173588Y-74121175D01*
X102172908Y-74120158D01*
X102156956Y-74093338D01*
X102146590Y-74066368D01*
X102140312Y-74032332D01*
X102136627Y-73984310D01*
X102135003Y-73944931D01*
X102134328Y-73909219D01*
X102260045Y-73909219D01*
X102261274Y-73944770D01*
X102265734Y-73992094D01*
X102273603Y-74022465D01*
X102287793Y-74044072D01*
X102301083Y-74056694D01*
X102348198Y-74083122D01*
X102397495Y-74086653D01*
X102443407Y-74067639D01*
X102466362Y-74046331D01*
X102482904Y-74024859D01*
X102492579Y-74004313D01*
X102496826Y-73977574D01*
X102497080Y-73937523D01*
X102495772Y-73900638D01*
X102492957Y-73847947D01*
X102488495Y-73813772D01*
X102480452Y-73791480D01*
X102466897Y-73774442D01*
X102456155Y-73764703D01*
X102411223Y-73739123D01*
X102362751Y-73737847D01*
X102322106Y-73752999D01*
X102287433Y-73784642D01*
X102266776Y-73836620D01*
X102260045Y-73909219D01*
X102134328Y-73909219D01*
X102133521Y-73866621D01*
X102136052Y-73808056D01*
X102143638Y-73764007D01*
X102157319Y-73729248D01*
X102178135Y-73698551D01*
X102185853Y-73689436D01*
X102234111Y-73644021D01*
X102285872Y-73617493D01*
X102349172Y-73606379D01*
X102380039Y-73605471D01*
X102461739Y-73615148D01*
G36*
X107032581Y-74554970D02*
G01*
X107092685Y-74570597D01*
X107143021Y-74602848D01*
X107167393Y-74626940D01*
X107207345Y-74683895D01*
X107230242Y-74749965D01*
X107238108Y-74831182D01*
X107238148Y-74837748D01*
X107238218Y-74903763D01*
X106858264Y-74903763D01*
X106866363Y-74938342D01*
X106880987Y-74969659D01*
X106906581Y-75002291D01*
X106911935Y-75007500D01*
X106957943Y-75035694D01*
X107010410Y-75040475D01*
X107070803Y-75021926D01*
X107081040Y-75016931D01*
X107112439Y-75001745D01*
X107133470Y-74993094D01*
X107137139Y-74992293D01*
X107149948Y-75000063D01*
X107174378Y-75019072D01*
X107186779Y-75029460D01*
X107212476Y-75053321D01*
X107220915Y-75069077D01*
X107215058Y-75083571D01*
X107211928Y-75087534D01*
X107190725Y-75104879D01*
X107155738Y-75125959D01*
X107131337Y-75138265D01*
X107062072Y-75159946D01*
X106985388Y-75166971D01*
X106912765Y-75158647D01*
X106892426Y-75152686D01*
X106829476Y-75118952D01*
X106782815Y-75067045D01*
X106752173Y-74996459D01*
X106737282Y-74906692D01*
X106735647Y-74859753D01*
X106740421Y-74791413D01*
X106860990Y-74791413D01*
X106872652Y-74796465D01*
X106903998Y-74800429D01*
X106949571Y-74802768D01*
X106980446Y-74803169D01*
X107035981Y-74802783D01*
X107071033Y-74800975D01*
X107090262Y-74796773D01*
X107098330Y-74789203D01*
X107099901Y-74778218D01*
X107089121Y-74744381D01*
X107061980Y-74710940D01*
X107026277Y-74685272D01*
X106990560Y-74674772D01*
X106942048Y-74684086D01*
X106900053Y-74711013D01*
X106870936Y-74749827D01*
X106860990Y-74791413D01*
X106740421Y-74791413D01*
X106742599Y-74760236D01*
X106764055Y-74680949D01*
X106800470Y-74621263D01*
X106852297Y-74580549D01*
X106919990Y-74558179D01*
X106956662Y-74553871D01*
X107032581Y-74554970D01*
X107032581Y-74554970D01*
G37*
X107032581Y-74554970D02*
X107092685Y-74570597D01*
X107143021Y-74602848D01*
X107167393Y-74626940D01*
X107207345Y-74683895D01*
X107230242Y-74749965D01*
X107238108Y-74831182D01*
X107238148Y-74837748D01*
X107238218Y-74903763D01*
X106858264Y-74903763D01*
X106866363Y-74938342D01*
X106880987Y-74969659D01*
X106906581Y-75002291D01*
X106911935Y-75007500D01*
X106957943Y-75035694D01*
X107010410Y-75040475D01*
X107070803Y-75021926D01*
X107081040Y-75016931D01*
X107112439Y-75001745D01*
X107133470Y-74993094D01*
X107137139Y-74992293D01*
X107149948Y-75000063D01*
X107174378Y-75019072D01*
X107186779Y-75029460D01*
X107212476Y-75053321D01*
X107220915Y-75069077D01*
X107215058Y-75083571D01*
X107211928Y-75087534D01*
X107190725Y-75104879D01*
X107155738Y-75125959D01*
X107131337Y-75138265D01*
X107062072Y-75159946D01*
X106985388Y-75166971D01*
X106912765Y-75158647D01*
X106892426Y-75152686D01*
X106829476Y-75118952D01*
X106782815Y-75067045D01*
X106752173Y-74996459D01*
X106737282Y-74906692D01*
X106735647Y-74859753D01*
X106740421Y-74791413D01*
X106860990Y-74791413D01*
X106872652Y-74796465D01*
X106903998Y-74800429D01*
X106949571Y-74802768D01*
X106980446Y-74803169D01*
X107035981Y-74802783D01*
X107071033Y-74800975D01*
X107090262Y-74796773D01*
X107098330Y-74789203D01*
X107099901Y-74778218D01*
X107089121Y-74744381D01*
X107061980Y-74710940D01*
X107026277Y-74685272D01*
X106990560Y-74674772D01*
X106942048Y-74684086D01*
X106900053Y-74711013D01*
X106870936Y-74749827D01*
X106860990Y-74791413D01*
X106740421Y-74791413D01*
X106742599Y-74760236D01*
X106764055Y-74680949D01*
X106800470Y-74621263D01*
X106852297Y-74580549D01*
X106919990Y-74558179D01*
X106956662Y-74553871D01*
X107032581Y-74554970D01*
G36*
X106635255Y-74551486D02*
G01*
X106683595Y-74561015D01*
X106711114Y-74575125D01*
X106740064Y-74598568D01*
X106698876Y-74650571D01*
X106673482Y-74682064D01*
X106656238Y-74697428D01*
X106639102Y-74699776D01*
X106614027Y-74692217D01*
X106602257Y-74687941D01*
X106554270Y-74681631D01*
X106510324Y-74695156D01*
X106478060Y-74725710D01*
X106472819Y-74735452D01*
X106467112Y-74761258D01*
X106462706Y-74808817D01*
X106459811Y-74874758D01*
X106458631Y-74955710D01*
X106458614Y-74967226D01*
X106458614Y-75167822D01*
X106320297Y-75167822D01*
X106320297Y-74551683D01*
X106389456Y-74551683D01*
X106429333Y-74552725D01*
X106450107Y-74557358D01*
X106457789Y-74567849D01*
X106458614Y-74577745D01*
X106458614Y-74603806D01*
X106491745Y-74577745D01*
X106529735Y-74559965D01*
X106580770Y-74551174D01*
X106635255Y-74551486D01*
X106635255Y-74551486D01*
G37*
X106635255Y-74551486D02*
X106683595Y-74561015D01*
X106711114Y-74575125D01*
X106740064Y-74598568D01*
X106698876Y-74650571D01*
X106673482Y-74682064D01*
X106656238Y-74697428D01*
X106639102Y-74699776D01*
X106614027Y-74692217D01*
X106602257Y-74687941D01*
X106554270Y-74681631D01*
X106510324Y-74695156D01*
X106478060Y-74725710D01*
X106472819Y-74735452D01*
X106467112Y-74761258D01*
X106462706Y-74808817D01*
X106459811Y-74874758D01*
X106458631Y-74955710D01*
X106458614Y-74967226D01*
X106458614Y-75167822D01*
X106320297Y-75167822D01*
X106320297Y-74551683D01*
X106389456Y-74551683D01*
X106429333Y-74552725D01*
X106450107Y-74557358D01*
X106457789Y-74567849D01*
X106458614Y-74577745D01*
X106458614Y-74603806D01*
X106491745Y-74577745D01*
X106529735Y-74559965D01*
X106580770Y-74551174D01*
X106635255Y-74551486D01*
G36*
X106038411Y-74555417D02*
G01*
X106091411Y-74568290D01*
X106106731Y-74575110D01*
X106136428Y-74592974D01*
X106159220Y-74613093D01*
X106176083Y-74638962D01*
X106187998Y-74674073D01*
X106195942Y-74721920D01*
X106200894Y-74785996D01*
X106203831Y-74869794D01*
X106204947Y-74925768D01*
X106209052Y-75167822D01*
X106138932Y-75167822D01*
X106096393Y-75166038D01*
X106074476Y-75159942D01*
X106068812Y-75149706D01*
X106065821Y-75138637D01*
X106052451Y-75140754D01*
X106034233Y-75149629D01*
X105988624Y-75163233D01*
X105930007Y-75166899D01*
X105868354Y-75160903D01*
X105813638Y-75145521D01*
X105808730Y-75143386D01*
X105758723Y-75108255D01*
X105725756Y-75059419D01*
X105710587Y-75002333D01*
X105711746Y-74981824D01*
X105835508Y-74981824D01*
X105846413Y-75009425D01*
X105878745Y-75029204D01*
X105930910Y-75039819D01*
X105958787Y-75041228D01*
X106005247Y-75037620D01*
X106036129Y-75023597D01*
X106043664Y-75016931D01*
X106064076Y-74980666D01*
X106068812Y-74947773D01*
X106068812Y-74903763D01*
X106007513Y-74903763D01*
X105936256Y-74907395D01*
X105886276Y-74918818D01*
X105854696Y-74938824D01*
X105847626Y-74947743D01*
X105835508Y-74981824D01*
X105711746Y-74981824D01*
X105713971Y-74942456D01*
X105736663Y-74885244D01*
X105767624Y-74846580D01*
X105786376Y-74829864D01*
X105804733Y-74818878D01*
X105828619Y-74812180D01*
X105863957Y-74808326D01*
X105916669Y-74805873D01*
X105937577Y-74805168D01*
X106068812Y-74800879D01*
X106068620Y-74761158D01*
X106063537Y-74719405D01*
X106045162Y-74694158D01*
X106008039Y-74678030D01*
X106007043Y-74677742D01*
X105954410Y-74671400D01*
X105902906Y-74679684D01*
X105864630Y-74699827D01*
X105849272Y-74709773D01*
X105832730Y-74708397D01*
X105807275Y-74693987D01*
X105792328Y-74683817D01*
X105763091Y-74662088D01*
X105744980Y-74645800D01*
X105742074Y-74641137D01*
X105754040Y-74617005D01*
X105789396Y-74588185D01*
X105804753Y-74578461D01*
X105848901Y-74561714D01*
X105908398Y-74552227D01*
X105974487Y-74550095D01*
X106038411Y-74555417D01*
X106038411Y-74555417D01*
G37*
X106038411Y-74555417D02*
X106091411Y-74568290D01*
X106106731Y-74575110D01*
X106136428Y-74592974D01*
X106159220Y-74613093D01*
X106176083Y-74638962D01*
X106187998Y-74674073D01*
X106195942Y-74721920D01*
X106200894Y-74785996D01*
X106203831Y-74869794D01*
X106204947Y-74925768D01*
X106209052Y-75167822D01*
X106138932Y-75167822D01*
X106096393Y-75166038D01*
X106074476Y-75159942D01*
X106068812Y-75149706D01*
X106065821Y-75138637D01*
X106052451Y-75140754D01*
X106034233Y-75149629D01*
X105988624Y-75163233D01*
X105930007Y-75166899D01*
X105868354Y-75160903D01*
X105813638Y-75145521D01*
X105808730Y-75143386D01*
X105758723Y-75108255D01*
X105725756Y-75059419D01*
X105710587Y-75002333D01*
X105711746Y-74981824D01*
X105835508Y-74981824D01*
X105846413Y-75009425D01*
X105878745Y-75029204D01*
X105930910Y-75039819D01*
X105958787Y-75041228D01*
X106005247Y-75037620D01*
X106036129Y-75023597D01*
X106043664Y-75016931D01*
X106064076Y-74980666D01*
X106068812Y-74947773D01*
X106068812Y-74903763D01*
X106007513Y-74903763D01*
X105936256Y-74907395D01*
X105886276Y-74918818D01*
X105854696Y-74938824D01*
X105847626Y-74947743D01*
X105835508Y-74981824D01*
X105711746Y-74981824D01*
X105713971Y-74942456D01*
X105736663Y-74885244D01*
X105767624Y-74846580D01*
X105786376Y-74829864D01*
X105804733Y-74818878D01*
X105828619Y-74812180D01*
X105863957Y-74808326D01*
X105916669Y-74805873D01*
X105937577Y-74805168D01*
X106068812Y-74800879D01*
X106068620Y-74761158D01*
X106063537Y-74719405D01*
X106045162Y-74694158D01*
X106008039Y-74678030D01*
X106007043Y-74677742D01*
X105954410Y-74671400D01*
X105902906Y-74679684D01*
X105864630Y-74699827D01*
X105849272Y-74709773D01*
X105832730Y-74708397D01*
X105807275Y-74693987D01*
X105792328Y-74683817D01*
X105763091Y-74662088D01*
X105744980Y-74645800D01*
X105742074Y-74641137D01*
X105754040Y-74617005D01*
X105789396Y-74588185D01*
X105804753Y-74578461D01*
X105848901Y-74561714D01*
X105908398Y-74552227D01*
X105974487Y-74550095D01*
X106038411Y-74555417D01*
G36*
X105281524Y-74554237D02*
G01*
X105331255Y-74557971D01*
X105461291Y-74947773D01*
X105481678Y-74878614D01*
X105493946Y-74835874D01*
X105510085Y-74778115D01*
X105527512Y-74714625D01*
X105536726Y-74680570D01*
X105571388Y-74551683D01*
X105714391Y-74551683D01*
X105671646Y-74686857D01*
X105650596Y-74753342D01*
X105625167Y-74833539D01*
X105598610Y-74917193D01*
X105574902Y-74991782D01*
X105520902Y-75161535D01*
X105462598Y-75165328D01*
X105404295Y-75169122D01*
X105372679Y-75064734D01*
X105353182Y-74999889D01*
X105331904Y-74928400D01*
X105313308Y-74865263D01*
X105312574Y-74862750D01*
X105298684Y-74819969D01*
X105286429Y-74790779D01*
X105277846Y-74779741D01*
X105276082Y-74781018D01*
X105269891Y-74798130D01*
X105258128Y-74834787D01*
X105242225Y-74886378D01*
X105223614Y-74948294D01*
X105213543Y-74982352D01*
X105159007Y-75167822D01*
X105043264Y-75167822D01*
X104950737Y-74875471D01*
X104924744Y-74793462D01*
X104901066Y-74718987D01*
X104880820Y-74655544D01*
X104865126Y-74606632D01*
X104855102Y-74575749D01*
X104852055Y-74566726D01*
X104854467Y-74557487D01*
X104873408Y-74553441D01*
X104912823Y-74553846D01*
X104918993Y-74554152D01*
X104992086Y-74557971D01*
X105039957Y-74734010D01*
X105057553Y-74798211D01*
X105073277Y-74854649D01*
X105085746Y-74898422D01*
X105093574Y-74924630D01*
X105095020Y-74928903D01*
X105101014Y-74923990D01*
X105113101Y-74898532D01*
X105129893Y-74855997D01*
X105150003Y-74799850D01*
X105167003Y-74749130D01*
X105231794Y-74550504D01*
X105281524Y-74554237D01*
X105281524Y-74554237D01*
G37*
X105281524Y-74554237D02*
X105331255Y-74557971D01*
X105461291Y-74947773D01*
X105481678Y-74878614D01*
X105493946Y-74835874D01*
X105510085Y-74778115D01*
X105527512Y-74714625D01*
X105536726Y-74680570D01*
X105571388Y-74551683D01*
X105714391Y-74551683D01*
X105671646Y-74686857D01*
X105650596Y-74753342D01*
X105625167Y-74833539D01*
X105598610Y-74917193D01*
X105574902Y-74991782D01*
X105520902Y-75161535D01*
X105462598Y-75165328D01*
X105404295Y-75169122D01*
X105372679Y-75064734D01*
X105353182Y-74999889D01*
X105331904Y-74928400D01*
X105313308Y-74865263D01*
X105312574Y-74862750D01*
X105298684Y-74819969D01*
X105286429Y-74790779D01*
X105277846Y-74779741D01*
X105276082Y-74781018D01*
X105269891Y-74798130D01*
X105258128Y-74834787D01*
X105242225Y-74886378D01*
X105223614Y-74948294D01*
X105213543Y-74982352D01*
X105159007Y-75167822D01*
X105043264Y-75167822D01*
X104950737Y-74875471D01*
X104924744Y-74793462D01*
X104901066Y-74718987D01*
X104880820Y-74655544D01*
X104865126Y-74606632D01*
X104855102Y-74575749D01*
X104852055Y-74566726D01*
X104854467Y-74557487D01*
X104873408Y-74553441D01*
X104912823Y-74553846D01*
X104918993Y-74554152D01*
X104992086Y-74557971D01*
X105039957Y-74734010D01*
X105057553Y-74798211D01*
X105073277Y-74854649D01*
X105085746Y-74898422D01*
X105093574Y-74924630D01*
X105095020Y-74928903D01*
X105101014Y-74923990D01*
X105113101Y-74898532D01*
X105129893Y-74855997D01*
X105150003Y-74799850D01*
X105167003Y-74749130D01*
X105231794Y-74550504D01*
X105281524Y-74554237D01*
G36*
X104798812Y-75167822D02*
G01*
X104729654Y-75167822D01*
X104689512Y-75166645D01*
X104668606Y-75161772D01*
X104661078Y-75151186D01*
X104660495Y-75144029D01*
X104659226Y-75129676D01*
X104651221Y-75126923D01*
X104630185Y-75135771D01*
X104613827Y-75144029D01*
X104551023Y-75163597D01*
X104482752Y-75164729D01*
X104427248Y-75150135D01*
X104375562Y-75114877D01*
X104336162Y-75062835D01*
X104314587Y-75001450D01*
X104314038Y-74998018D01*
X104310833Y-74960571D01*
X104309239Y-74906813D01*
X104309367Y-74866155D01*
X104446721Y-74866155D01*
X104449903Y-74920194D01*
X104457141Y-74964735D01*
X104466940Y-74989888D01*
X104504011Y-75024260D01*
X104548026Y-75036582D01*
X104593416Y-75026618D01*
X104632203Y-74996895D01*
X104646892Y-74976905D01*
X104655481Y-74953050D01*
X104659504Y-74918230D01*
X104660495Y-74865930D01*
X104658722Y-74814139D01*
X104654037Y-74768634D01*
X104647397Y-74738181D01*
X104646290Y-74735452D01*
X104619509Y-74703000D01*
X104580421Y-74685183D01*
X104536685Y-74682306D01*
X104495962Y-74694674D01*
X104465913Y-74722593D01*
X104462796Y-74728148D01*
X104453039Y-74762022D01*
X104447723Y-74810728D01*
X104446721Y-74866155D01*
X104309367Y-74866155D01*
X104309432Y-74845540D01*
X104310336Y-74812563D01*
X104316486Y-74730981D01*
X104329267Y-74669730D01*
X104350529Y-74624449D01*
X104382122Y-74590779D01*
X104412793Y-74571014D01*
X104455646Y-74557120D01*
X104508944Y-74552354D01*
X104563520Y-74556236D01*
X104610208Y-74568282D01*
X104634876Y-74582693D01*
X104660495Y-74605878D01*
X104660495Y-74312773D01*
X104798812Y-74312773D01*
X104798812Y-75167822D01*
X104798812Y-75167822D01*
G37*
X104798812Y-75167822D02*
X104729654Y-75167822D01*
X104689512Y-75166645D01*
X104668606Y-75161772D01*
X104661078Y-75151186D01*
X104660495Y-75144029D01*
X104659226Y-75129676D01*
X104651221Y-75126923D01*
X104630185Y-75135771D01*
X104613827Y-75144029D01*
X104551023Y-75163597D01*
X104482752Y-75164729D01*
X104427248Y-75150135D01*
X104375562Y-75114877D01*
X104336162Y-75062835D01*
X104314587Y-75001450D01*
X104314038Y-74998018D01*
X104310833Y-74960571D01*
X104309239Y-74906813D01*
X104309367Y-74866155D01*
X104446721Y-74866155D01*
X104449903Y-74920194D01*
X104457141Y-74964735D01*
X104466940Y-74989888D01*
X104504011Y-75024260D01*
X104548026Y-75036582D01*
X104593416Y-75026618D01*
X104632203Y-74996895D01*
X104646892Y-74976905D01*
X104655481Y-74953050D01*
X104659504Y-74918230D01*
X104660495Y-74865930D01*
X104658722Y-74814139D01*
X104654037Y-74768634D01*
X104647397Y-74738181D01*
X104646290Y-74735452D01*
X104619509Y-74703000D01*
X104580421Y-74685183D01*
X104536685Y-74682306D01*
X104495962Y-74694674D01*
X104465913Y-74722593D01*
X104462796Y-74728148D01*
X104453039Y-74762022D01*
X104447723Y-74810728D01*
X104446721Y-74866155D01*
X104309367Y-74866155D01*
X104309432Y-74845540D01*
X104310336Y-74812563D01*
X104316486Y-74730981D01*
X104329267Y-74669730D01*
X104350529Y-74624449D01*
X104382122Y-74590779D01*
X104412793Y-74571014D01*
X104455646Y-74557120D01*
X104508944Y-74552354D01*
X104563520Y-74556236D01*
X104610208Y-74568282D01*
X104634876Y-74582693D01*
X104660495Y-74605878D01*
X104660495Y-74312773D01*
X104798812Y-74312773D01*
X104798812Y-75167822D01*
G36*
X104006644Y-74553020D02*
G01*
X104025461Y-74558660D01*
X104031527Y-74571053D01*
X104031782Y-74576647D01*
X104032871Y-74592230D01*
X104040368Y-74594676D01*
X104060619Y-74583993D01*
X104072649Y-74576694D01*
X104110600Y-74561063D01*
X104155928Y-74553334D01*
X104203456Y-74552740D01*
X104248005Y-74558513D01*
X104284398Y-74569884D01*
X104307457Y-74586088D01*
X104312004Y-74606355D01*
X104309709Y-74611843D01*
X104292980Y-74634626D01*
X104267037Y-74662647D01*
X104262345Y-74667177D01*
X104237617Y-74688005D01*
X104216282Y-74694735D01*
X104186445Y-74690038D01*
X104174492Y-74686917D01*
X104137295Y-74679421D01*
X104111141Y-74682792D01*
X104089054Y-74694681D01*
X104068822Y-74710635D01*
X104053921Y-74730700D01*
X104043566Y-74758702D01*
X104036971Y-74798467D01*
X104033351Y-74853823D01*
X104031922Y-74928594D01*
X104031782Y-74973740D01*
X104031782Y-75167822D01*
X103906040Y-75167822D01*
X103906040Y-74551683D01*
X103968911Y-74551683D01*
X104006644Y-74553020D01*
X104006644Y-74553020D01*
G37*
X104006644Y-74553020D02*
X104025461Y-74558660D01*
X104031527Y-74571053D01*
X104031782Y-74576647D01*
X104032871Y-74592230D01*
X104040368Y-74594676D01*
X104060619Y-74583993D01*
X104072649Y-74576694D01*
X104110600Y-74561063D01*
X104155928Y-74553334D01*
X104203456Y-74552740D01*
X104248005Y-74558513D01*
X104284398Y-74569884D01*
X104307457Y-74586088D01*
X104312004Y-74606355D01*
X104309709Y-74611843D01*
X104292980Y-74634626D01*
X104267037Y-74662647D01*
X104262345Y-74667177D01*
X104237617Y-74688005D01*
X104216282Y-74694735D01*
X104186445Y-74690038D01*
X104174492Y-74686917D01*
X104137295Y-74679421D01*
X104111141Y-74682792D01*
X104089054Y-74694681D01*
X104068822Y-74710635D01*
X104053921Y-74730700D01*
X104043566Y-74758702D01*
X104036971Y-74798467D01*
X104033351Y-74853823D01*
X104031922Y-74928594D01*
X104031782Y-74973740D01*
X104031782Y-75167822D01*
X103906040Y-75167822D01*
X103906040Y-74551683D01*
X103968911Y-74551683D01*
X104006644Y-74553020D01*
G36*
X103615790Y-74556555D02*
G01*
X103674945Y-74572339D01*
X103719977Y-74600948D01*
X103751754Y-74638419D01*
X103761634Y-74654411D01*
X103768927Y-74671163D01*
X103774026Y-74692592D01*
X103777321Y-74722616D01*
X103779203Y-74765154D01*
X103780063Y-74824122D01*
X103780293Y-74903440D01*
X103780297Y-74924484D01*
X103780297Y-75167822D01*
X103719941Y-75167822D01*
X103681443Y-75165126D01*
X103652977Y-75158295D01*
X103645845Y-75154083D01*
X103626348Y-75146813D01*
X103606434Y-75154083D01*
X103573647Y-75163160D01*
X103526022Y-75166813D01*
X103473236Y-75165228D01*
X103424964Y-75158589D01*
X103396782Y-75150072D01*
X103342247Y-75115063D01*
X103308165Y-75066479D01*
X103292843Y-75001882D01*
X103292701Y-75000223D01*
X103294045Y-74971566D01*
X103415644Y-74971566D01*
X103426274Y-75004161D01*
X103443590Y-75022505D01*
X103478348Y-75036379D01*
X103524227Y-75041917D01*
X103571012Y-75039191D01*
X103608486Y-75028274D01*
X103618985Y-75021269D01*
X103637332Y-74988904D01*
X103641980Y-74952111D01*
X103641980Y-74903763D01*
X103572418Y-74903763D01*
X103506333Y-74908850D01*
X103456236Y-74923263D01*
X103425071Y-74945729D01*
X103415644Y-74971566D01*
X103294045Y-74971566D01*
X103296013Y-74929647D01*
X103319290Y-74873845D01*
X103363052Y-74831647D01*
X103369101Y-74827808D01*
X103395093Y-74815309D01*
X103427265Y-74807740D01*
X103472240Y-74804061D01*
X103525669Y-74803216D01*
X103641980Y-74803169D01*
X103641980Y-74754411D01*
X103637047Y-74716581D01*
X103624457Y-74691236D01*
X103622983Y-74689887D01*
X103594966Y-74678800D01*
X103552674Y-74674503D01*
X103505936Y-74676615D01*
X103464582Y-74684756D01*
X103440043Y-74696965D01*
X103426747Y-74706746D01*
X103412706Y-74708613D01*
X103393329Y-74700600D01*
X103364024Y-74680739D01*
X103320197Y-74647063D01*
X103316175Y-74643909D01*
X103318236Y-74632236D01*
X103335432Y-74612822D01*
X103361567Y-74591248D01*
X103390448Y-74573096D01*
X103399522Y-74568809D01*
X103432620Y-74560256D01*
X103481120Y-74554155D01*
X103535305Y-74551708D01*
X103537839Y-74551703D01*
X103615790Y-74556555D01*
X103615790Y-74556555D01*
G37*
X103615790Y-74556555D02*
X103674945Y-74572339D01*
X103719977Y-74600948D01*
X103751754Y-74638419D01*
X103761634Y-74654411D01*
X103768927Y-74671163D01*
X103774026Y-74692592D01*
X103777321Y-74722616D01*
X103779203Y-74765154D01*
X103780063Y-74824122D01*
X103780293Y-74903440D01*
X103780297Y-74924484D01*
X103780297Y-75167822D01*
X103719941Y-75167822D01*
X103681443Y-75165126D01*
X103652977Y-75158295D01*
X103645845Y-75154083D01*
X103626348Y-75146813D01*
X103606434Y-75154083D01*
X103573647Y-75163160D01*
X103526022Y-75166813D01*
X103473236Y-75165228D01*
X103424964Y-75158589D01*
X103396782Y-75150072D01*
X103342247Y-75115063D01*
X103308165Y-75066479D01*
X103292843Y-75001882D01*
X103292701Y-75000223D01*
X103294045Y-74971566D01*
X103415644Y-74971566D01*
X103426274Y-75004161D01*
X103443590Y-75022505D01*
X103478348Y-75036379D01*
X103524227Y-75041917D01*
X103571012Y-75039191D01*
X103608486Y-75028274D01*
X103618985Y-75021269D01*
X103637332Y-74988904D01*
X103641980Y-74952111D01*
X103641980Y-74903763D01*
X103572418Y-74903763D01*
X103506333Y-74908850D01*
X103456236Y-74923263D01*
X103425071Y-74945729D01*
X103415644Y-74971566D01*
X103294045Y-74971566D01*
X103296013Y-74929647D01*
X103319290Y-74873845D01*
X103363052Y-74831647D01*
X103369101Y-74827808D01*
X103395093Y-74815309D01*
X103427265Y-74807740D01*
X103472240Y-74804061D01*
X103525669Y-74803216D01*
X103641980Y-74803169D01*
X103641980Y-74754411D01*
X103637047Y-74716581D01*
X103624457Y-74691236D01*
X103622983Y-74689887D01*
X103594966Y-74678800D01*
X103552674Y-74674503D01*
X103505936Y-74676615D01*
X103464582Y-74684756D01*
X103440043Y-74696965D01*
X103426747Y-74706746D01*
X103412706Y-74708613D01*
X103393329Y-74700600D01*
X103364024Y-74680739D01*
X103320197Y-74647063D01*
X103316175Y-74643909D01*
X103318236Y-74632236D01*
X103335432Y-74612822D01*
X103361567Y-74591248D01*
X103390448Y-74573096D01*
X103399522Y-74568809D01*
X103432620Y-74560256D01*
X103481120Y-74554155D01*
X103535305Y-74551708D01*
X103537839Y-74551703D01*
X103615790Y-74556555D01*
G36*
X103091241Y-73619184D02*
G01*
X103117753Y-73632282D01*
X103150447Y-73655106D01*
X103174275Y-73679996D01*
X103190594Y-73711249D01*
X103200760Y-73753166D01*
X103206128Y-73810044D01*
X103208056Y-73886184D01*
X103208169Y-73918917D01*
X103207839Y-73990656D01*
X103206473Y-74041927D01*
X103203500Y-74077404D01*
X103198351Y-74101763D01*
X103190457Y-74119680D01*
X103182243Y-74131902D01*
X103129813Y-74183905D01*
X103068070Y-74215184D01*
X103001464Y-74224592D01*
X102934442Y-74210980D01*
X102913208Y-74201354D01*
X102862376Y-74174859D01*
X102862376Y-74590052D01*
X102899475Y-74570868D01*
X102948357Y-74556025D01*
X103008439Y-74552222D01*
X103068436Y-74559243D01*
X103113744Y-74575013D01*
X103151325Y-74605047D01*
X103183436Y-74648024D01*
X103185850Y-74652436D01*
X103196033Y-74673221D01*
X103203470Y-74694170D01*
X103208589Y-74719548D01*
X103211819Y-74753618D01*
X103213587Y-74800641D01*
X103214323Y-74864882D01*
X103214456Y-74937176D01*
X103214456Y-75167822D01*
X103076139Y-75167822D01*
X103076139Y-74742533D01*
X103037451Y-74709979D01*
X102997262Y-74683940D01*
X102959203Y-74679205D01*
X102920934Y-74691389D01*
X102900538Y-74703320D01*
X102885358Y-74720313D01*
X102874562Y-74745995D01*
X102867317Y-74783991D01*
X102862792Y-74837926D01*
X102860156Y-74911425D01*
X102859228Y-74960347D01*
X102856089Y-75161535D01*
X102790074Y-75165336D01*
X102724060Y-75169136D01*
X102724060Y-73920650D01*
X102862376Y-73920650D01*
X102865903Y-73990254D01*
X102877785Y-74038569D01*
X102899980Y-74068631D01*
X102934441Y-74083471D01*
X102969258Y-74086436D01*
X103008671Y-74083028D01*
X103034829Y-74069617D01*
X103051186Y-74051896D01*
X103064063Y-74032835D01*
X103071728Y-74011601D01*
X103075139Y-73981849D01*
X103075251Y-73937236D01*
X103074103Y-73899880D01*
X103071468Y-73843604D01*
X103067544Y-73806658D01*
X103060937Y-73783223D01*
X103050251Y-73767480D01*
X103040167Y-73758380D01*
X102998030Y-73738537D01*
X102948160Y-73735332D01*
X102919524Y-73742168D01*
X102891172Y-73766464D01*
X102872391Y-73813728D01*
X102863288Y-73883624D01*
X102862376Y-73920650D01*
X102724060Y-73920650D01*
X102724060Y-73608614D01*
X102793218Y-73608614D01*
X102834740Y-73610256D01*
X102856162Y-73616087D01*
X102862374Y-73627461D01*
X102862376Y-73627798D01*
X102865258Y-73638938D01*
X102877970Y-73637673D01*
X102903243Y-73625433D01*
X102962131Y-73606707D01*
X103028385Y-73604739D01*
X103091241Y-73619184D01*
X103091241Y-73619184D01*
G37*
X103091241Y-73619184D02*
X103117753Y-73632282D01*
X103150447Y-73655106D01*
X103174275Y-73679996D01*
X103190594Y-73711249D01*
X103200760Y-73753166D01*
X103206128Y-73810044D01*
X103208056Y-73886184D01*
X103208169Y-73918917D01*
X103207839Y-73990656D01*
X103206473Y-74041927D01*
X103203500Y-74077404D01*
X103198351Y-74101763D01*
X103190457Y-74119680D01*
X103182243Y-74131902D01*
X103129813Y-74183905D01*
X103068070Y-74215184D01*
X103001464Y-74224592D01*
X102934442Y-74210980D01*
X102913208Y-74201354D01*
X102862376Y-74174859D01*
X102862376Y-74590052D01*
X102899475Y-74570868D01*
X102948357Y-74556025D01*
X103008439Y-74552222D01*
X103068436Y-74559243D01*
X103113744Y-74575013D01*
X103151325Y-74605047D01*
X103183436Y-74648024D01*
X103185850Y-74652436D01*
X103196033Y-74673221D01*
X103203470Y-74694170D01*
X103208589Y-74719548D01*
X103211819Y-74753618D01*
X103213587Y-74800641D01*
X103214323Y-74864882D01*
X103214456Y-74937176D01*
X103214456Y-75167822D01*
X103076139Y-75167822D01*
X103076139Y-74742533D01*
X103037451Y-74709979D01*
X102997262Y-74683940D01*
X102959203Y-74679205D01*
X102920934Y-74691389D01*
X102900538Y-74703320D01*
X102885358Y-74720313D01*
X102874562Y-74745995D01*
X102867317Y-74783991D01*
X102862792Y-74837926D01*
X102860156Y-74911425D01*
X102859228Y-74960347D01*
X102856089Y-75161535D01*
X102790074Y-75165336D01*
X102724060Y-75169136D01*
X102724060Y-73920650D01*
X102862376Y-73920650D01*
X102865903Y-73990254D01*
X102877785Y-74038569D01*
X102899980Y-74068631D01*
X102934441Y-74083471D01*
X102969258Y-74086436D01*
X103008671Y-74083028D01*
X103034829Y-74069617D01*
X103051186Y-74051896D01*
X103064063Y-74032835D01*
X103071728Y-74011601D01*
X103075139Y-73981849D01*
X103075251Y-73937236D01*
X103074103Y-73899880D01*
X103071468Y-73843604D01*
X103067544Y-73806658D01*
X103060937Y-73783223D01*
X103050251Y-73767480D01*
X103040167Y-73758380D01*
X102998030Y-73738537D01*
X102948160Y-73735332D01*
X102919524Y-73742168D01*
X102891172Y-73766464D01*
X102872391Y-73813728D01*
X102863288Y-73883624D01*
X102862376Y-73920650D01*
X102724060Y-73920650D01*
X102724060Y-73608614D01*
X102793218Y-73608614D01*
X102834740Y-73610256D01*
X102856162Y-73616087D01*
X102862374Y-73627461D01*
X102862376Y-73627798D01*
X102865258Y-73638938D01*
X102877970Y-73637673D01*
X102903243Y-73625433D01*
X102962131Y-73606707D01*
X103028385Y-73604739D01*
X103091241Y-73619184D01*
D12*
X125120000Y-85750000D02*
G75*
G03X125120000Y-85750000I-2120000J0D01*
G01*
X122160000Y-85750000D02*
X120920000Y-85750000D01*
X125080000Y-85750000D02*
X123840000Y-85750000D01*
X122160000Y-85790000D02*
X120920000Y-85790000D01*
X125080000Y-85790000D02*
X123840000Y-85790000D01*
X122160000Y-85830000D02*
X120921000Y-85830000D01*
X125079000Y-85830000D02*
X123840000Y-85830000D01*
X125077000Y-85870000D02*
X123840000Y-85870000D01*
X122160000Y-85870000D02*
X120923000Y-85870000D01*
X125074000Y-85910000D02*
X123840000Y-85910000D01*
X122160000Y-85910000D02*
X120926000Y-85910000D01*
X125071000Y-85950000D02*
X123840000Y-85950000D01*
X122160000Y-85950000D02*
X120929000Y-85950000D01*
X125067000Y-85990000D02*
X123840000Y-85990000D01*
X122160000Y-85990000D02*
X120933000Y-85990000D01*
X125062000Y-86030000D02*
X123840000Y-86030000D01*
X122160000Y-86030000D02*
X120938000Y-86030000D01*
X125056000Y-86070000D02*
X123840000Y-86070000D01*
X122160000Y-86070000D02*
X120944000Y-86070000D01*
X125050000Y-86110000D02*
X123840000Y-86110000D01*
X122160000Y-86110000D02*
X120950000Y-86110000D01*
X125042000Y-86150000D02*
X123840000Y-86150000D01*
X122160000Y-86150000D02*
X120958000Y-86150000D01*
X125034000Y-86190000D02*
X123840000Y-86190000D01*
X122160000Y-86190000D02*
X120966000Y-86190000D01*
X125025000Y-86230000D02*
X123840000Y-86230000D01*
X122160000Y-86230000D02*
X120975000Y-86230000D01*
X125016000Y-86270000D02*
X123840000Y-86270000D01*
X122160000Y-86270000D02*
X120984000Y-86270000D01*
X125005000Y-86310000D02*
X123840000Y-86310000D01*
X122160000Y-86310000D02*
X120995000Y-86310000D01*
X124994000Y-86350000D02*
X123840000Y-86350000D01*
X122160000Y-86350000D02*
X121006000Y-86350000D01*
X124982000Y-86390000D02*
X123840000Y-86390000D01*
X122160000Y-86390000D02*
X121018000Y-86390000D01*
X124968000Y-86430000D02*
X123840000Y-86430000D01*
X122160000Y-86430000D02*
X121032000Y-86430000D01*
X124954000Y-86471000D02*
X123840000Y-86471000D01*
X122160000Y-86471000D02*
X121046000Y-86471000D01*
X124940000Y-86511000D02*
X123840000Y-86511000D01*
X122160000Y-86511000D02*
X121060000Y-86511000D01*
X124924000Y-86551000D02*
X123840000Y-86551000D01*
X122160000Y-86551000D02*
X121076000Y-86551000D01*
X124907000Y-86591000D02*
X123840000Y-86591000D01*
X122160000Y-86591000D02*
X121093000Y-86591000D01*
X124889000Y-86631000D02*
X123840000Y-86631000D01*
X122160000Y-86631000D02*
X121111000Y-86631000D01*
X124870000Y-86671000D02*
X123840000Y-86671000D01*
X122160000Y-86671000D02*
X121130000Y-86671000D01*
X124851000Y-86711000D02*
X123840000Y-86711000D01*
X122160000Y-86711000D02*
X121149000Y-86711000D01*
X124830000Y-86751000D02*
X123840000Y-86751000D01*
X122160000Y-86751000D02*
X121170000Y-86751000D01*
X124808000Y-86791000D02*
X123840000Y-86791000D01*
X122160000Y-86791000D02*
X121192000Y-86791000D01*
X124785000Y-86831000D02*
X123840000Y-86831000D01*
X122160000Y-86831000D02*
X121215000Y-86831000D01*
X124760000Y-86871000D02*
X123840000Y-86871000D01*
X122160000Y-86871000D02*
X121240000Y-86871000D01*
X124735000Y-86911000D02*
X123840000Y-86911000D01*
X122160000Y-86911000D02*
X121265000Y-86911000D01*
X124708000Y-86951000D02*
X123840000Y-86951000D01*
X122160000Y-86951000D02*
X121292000Y-86951000D01*
X124680000Y-86991000D02*
X123840000Y-86991000D01*
X122160000Y-86991000D02*
X121320000Y-86991000D01*
X124650000Y-87031000D02*
X123840000Y-87031000D01*
X122160000Y-87031000D02*
X121350000Y-87031000D01*
X124619000Y-87071000D02*
X123840000Y-87071000D01*
X122160000Y-87071000D02*
X121381000Y-87071000D01*
X124587000Y-87111000D02*
X123840000Y-87111000D01*
X122160000Y-87111000D02*
X121413000Y-87111000D01*
X124552000Y-87151000D02*
X123840000Y-87151000D01*
X122160000Y-87151000D02*
X121448000Y-87151000D01*
X124516000Y-87191000D02*
X123840000Y-87191000D01*
X122160000Y-87191000D02*
X121484000Y-87191000D01*
X124478000Y-87231000D02*
X123840000Y-87231000D01*
X122160000Y-87231000D02*
X121522000Y-87231000D01*
X124438000Y-87271000D02*
X123840000Y-87271000D01*
X122160000Y-87271000D02*
X121562000Y-87271000D01*
X124396000Y-87311000D02*
X123840000Y-87311000D01*
X122160000Y-87311000D02*
X121604000Y-87311000D01*
X124351000Y-87351000D02*
X121649000Y-87351000D01*
X124304000Y-87391000D02*
X121696000Y-87391000D01*
X124254000Y-87431000D02*
X121746000Y-87431000D01*
X124200000Y-87471000D02*
X121800000Y-87471000D01*
X124142000Y-87511000D02*
X121858000Y-87511000D01*
X124080000Y-87551000D02*
X121920000Y-87551000D01*
X124013000Y-87591000D02*
X121987000Y-87591000D01*
X123940000Y-87631000D02*
X122060000Y-87631000D01*
X123859000Y-87671000D02*
X122141000Y-87671000D01*
X123768000Y-87711000D02*
X122232000Y-87711000D01*
X123664000Y-87751000D02*
X122336000Y-87751000D01*
X123537000Y-87791000D02*
X122463000Y-87791000D01*
X123370000Y-87831000D02*
X122630000Y-87831000D01*
X124195000Y-83480199D02*
X124195000Y-83880199D01*
X124395000Y-83680199D02*
X123995000Y-83680199D01*
X128220000Y-87455199D02*
X127820000Y-87455199D01*
X128020000Y-87255199D02*
X128020000Y-87655199D01*
X127195000Y-91606000D02*
X126455000Y-91606000D01*
X127362000Y-91566000D02*
X126288000Y-91566000D01*
X127489000Y-91526000D02*
X126161000Y-91526000D01*
X127593000Y-91486000D02*
X126057000Y-91486000D01*
X127684000Y-91446000D02*
X125966000Y-91446000D01*
X127765000Y-91406000D02*
X125885000Y-91406000D01*
X127838000Y-91366000D02*
X125812000Y-91366000D01*
X127905000Y-91326000D02*
X125745000Y-91326000D01*
X127967000Y-91286000D02*
X125683000Y-91286000D01*
X128025000Y-91246000D02*
X125625000Y-91246000D01*
X128079000Y-91206000D02*
X125571000Y-91206000D01*
X128129000Y-91166000D02*
X125521000Y-91166000D01*
X128176000Y-91126000D02*
X125474000Y-91126000D01*
X125985000Y-91086000D02*
X125429000Y-91086000D01*
X128221000Y-91086000D02*
X127665000Y-91086000D01*
X125985000Y-91046000D02*
X125387000Y-91046000D01*
X128263000Y-91046000D02*
X127665000Y-91046000D01*
X125985000Y-91006000D02*
X125347000Y-91006000D01*
X128303000Y-91006000D02*
X127665000Y-91006000D01*
X125985000Y-90966000D02*
X125309000Y-90966000D01*
X128341000Y-90966000D02*
X127665000Y-90966000D01*
X125985000Y-90926000D02*
X125273000Y-90926000D01*
X128377000Y-90926000D02*
X127665000Y-90926000D01*
X125985000Y-90886000D02*
X125238000Y-90886000D01*
X128412000Y-90886000D02*
X127665000Y-90886000D01*
X125985000Y-90846000D02*
X125206000Y-90846000D01*
X128444000Y-90846000D02*
X127665000Y-90846000D01*
X125985000Y-90806000D02*
X125175000Y-90806000D01*
X128475000Y-90806000D02*
X127665000Y-90806000D01*
X125985000Y-90766000D02*
X125145000Y-90766000D01*
X128505000Y-90766000D02*
X127665000Y-90766000D01*
X125985000Y-90726000D02*
X125117000Y-90726000D01*
X128533000Y-90726000D02*
X127665000Y-90726000D01*
X125985000Y-90686000D02*
X125090000Y-90686000D01*
X128560000Y-90686000D02*
X127665000Y-90686000D01*
X125985000Y-90646000D02*
X125065000Y-90646000D01*
X128585000Y-90646000D02*
X127665000Y-90646000D01*
X125985000Y-90606000D02*
X125040000Y-90606000D01*
X128610000Y-90606000D02*
X127665000Y-90606000D01*
X125985000Y-90566000D02*
X125017000Y-90566000D01*
X128633000Y-90566000D02*
X127665000Y-90566000D01*
X125985000Y-90526000D02*
X124995000Y-90526000D01*
X128655000Y-90526000D02*
X127665000Y-90526000D01*
X125985000Y-90486000D02*
X124974000Y-90486000D01*
X128676000Y-90486000D02*
X127665000Y-90486000D01*
X125985000Y-90446000D02*
X124955000Y-90446000D01*
X128695000Y-90446000D02*
X127665000Y-90446000D01*
X125985000Y-90406000D02*
X124936000Y-90406000D01*
X128714000Y-90406000D02*
X127665000Y-90406000D01*
X125985000Y-90366000D02*
X124918000Y-90366000D01*
X128732000Y-90366000D02*
X127665000Y-90366000D01*
X125985000Y-90326000D02*
X124901000Y-90326000D01*
X128749000Y-90326000D02*
X127665000Y-90326000D01*
X125985000Y-90286000D02*
X124885000Y-90286000D01*
X128765000Y-90286000D02*
X127665000Y-90286000D01*
X125985000Y-90246000D02*
X124871000Y-90246000D01*
X128779000Y-90246000D02*
X127665000Y-90246000D01*
X125985000Y-90205000D02*
X124857000Y-90205000D01*
X128793000Y-90205000D02*
X127665000Y-90205000D01*
X125985000Y-90165000D02*
X124843000Y-90165000D01*
X128807000Y-90165000D02*
X127665000Y-90165000D01*
X125985000Y-90125000D02*
X124831000Y-90125000D01*
X128819000Y-90125000D02*
X127665000Y-90125000D01*
X125985000Y-90085000D02*
X124820000Y-90085000D01*
X128830000Y-90085000D02*
X127665000Y-90085000D01*
X125985000Y-90045000D02*
X124809000Y-90045000D01*
X128841000Y-90045000D02*
X127665000Y-90045000D01*
X125985000Y-90005000D02*
X124800000Y-90005000D01*
X128850000Y-90005000D02*
X127665000Y-90005000D01*
X125985000Y-89965000D02*
X124791000Y-89965000D01*
X128859000Y-89965000D02*
X127665000Y-89965000D01*
X125985000Y-89925000D02*
X124783000Y-89925000D01*
X128867000Y-89925000D02*
X127665000Y-89925000D01*
X125985000Y-89885000D02*
X124775000Y-89885000D01*
X128875000Y-89885000D02*
X127665000Y-89885000D01*
X125985000Y-89845000D02*
X124769000Y-89845000D01*
X128881000Y-89845000D02*
X127665000Y-89845000D01*
X125985000Y-89805000D02*
X124763000Y-89805000D01*
X128887000Y-89805000D02*
X127665000Y-89805000D01*
X125985000Y-89765000D02*
X124758000Y-89765000D01*
X128892000Y-89765000D02*
X127665000Y-89765000D01*
X125985000Y-89725000D02*
X124754000Y-89725000D01*
X128896000Y-89725000D02*
X127665000Y-89725000D01*
X125985000Y-89685000D02*
X124751000Y-89685000D01*
X128899000Y-89685000D02*
X127665000Y-89685000D01*
X125985000Y-89645000D02*
X124748000Y-89645000D01*
X128902000Y-89645000D02*
X127665000Y-89645000D01*
X128904000Y-89605000D02*
X127665000Y-89605000D01*
X125985000Y-89605000D02*
X124746000Y-89605000D01*
X128905000Y-89565000D02*
X127665000Y-89565000D01*
X125985000Y-89565000D02*
X124745000Y-89565000D01*
X128905000Y-89525000D02*
X127665000Y-89525000D01*
X125985000Y-89525000D02*
X124745000Y-89525000D01*
X128945000Y-89525000D02*
G75*
G03X128945000Y-89525000I-2120000J0D01*
G01*
X131895000Y-83680199D02*
X131495000Y-83680199D01*
X131695000Y-83480199D02*
X131695000Y-83880199D01*
X130870000Y-87831000D02*
X130130000Y-87831000D01*
X131037000Y-87791000D02*
X129963000Y-87791000D01*
X131164000Y-87751000D02*
X129836000Y-87751000D01*
X131268000Y-87711000D02*
X129732000Y-87711000D01*
X131359000Y-87671000D02*
X129641000Y-87671000D01*
X131440000Y-87631000D02*
X129560000Y-87631000D01*
X131513000Y-87591000D02*
X129487000Y-87591000D01*
X131580000Y-87551000D02*
X129420000Y-87551000D01*
X131642000Y-87511000D02*
X129358000Y-87511000D01*
X131700000Y-87471000D02*
X129300000Y-87471000D01*
X131754000Y-87431000D02*
X129246000Y-87431000D01*
X131804000Y-87391000D02*
X129196000Y-87391000D01*
X131851000Y-87351000D02*
X129149000Y-87351000D01*
X129660000Y-87311000D02*
X129104000Y-87311000D01*
X131896000Y-87311000D02*
X131340000Y-87311000D01*
X129660000Y-87271000D02*
X129062000Y-87271000D01*
X131938000Y-87271000D02*
X131340000Y-87271000D01*
X129660000Y-87231000D02*
X129022000Y-87231000D01*
X131978000Y-87231000D02*
X131340000Y-87231000D01*
X129660000Y-87191000D02*
X128984000Y-87191000D01*
X132016000Y-87191000D02*
X131340000Y-87191000D01*
X129660000Y-87151000D02*
X128948000Y-87151000D01*
X132052000Y-87151000D02*
X131340000Y-87151000D01*
X129660000Y-87111000D02*
X128913000Y-87111000D01*
X132087000Y-87111000D02*
X131340000Y-87111000D01*
X129660000Y-87071000D02*
X128881000Y-87071000D01*
X132119000Y-87071000D02*
X131340000Y-87071000D01*
X129660000Y-87031000D02*
X128850000Y-87031000D01*
X132150000Y-87031000D02*
X131340000Y-87031000D01*
X129660000Y-86991000D02*
X128820000Y-86991000D01*
X132180000Y-86991000D02*
X131340000Y-86991000D01*
X129660000Y-86951000D02*
X128792000Y-86951000D01*
X132208000Y-86951000D02*
X131340000Y-86951000D01*
X129660000Y-86911000D02*
X128765000Y-86911000D01*
X132235000Y-86911000D02*
X131340000Y-86911000D01*
X129660000Y-86871000D02*
X128740000Y-86871000D01*
X132260000Y-86871000D02*
X131340000Y-86871000D01*
X129660000Y-86831000D02*
X128715000Y-86831000D01*
X132285000Y-86831000D02*
X131340000Y-86831000D01*
X129660000Y-86791000D02*
X128692000Y-86791000D01*
X132308000Y-86791000D02*
X131340000Y-86791000D01*
X129660000Y-86751000D02*
X128670000Y-86751000D01*
X132330000Y-86751000D02*
X131340000Y-86751000D01*
X129660000Y-86711000D02*
X128649000Y-86711000D01*
X132351000Y-86711000D02*
X131340000Y-86711000D01*
X129660000Y-86671000D02*
X128630000Y-86671000D01*
X132370000Y-86671000D02*
X131340000Y-86671000D01*
X129660000Y-86631000D02*
X128611000Y-86631000D01*
X132389000Y-86631000D02*
X131340000Y-86631000D01*
X129660000Y-86591000D02*
X128593000Y-86591000D01*
X132407000Y-86591000D02*
X131340000Y-86591000D01*
X129660000Y-86551000D02*
X128576000Y-86551000D01*
X132424000Y-86551000D02*
X131340000Y-86551000D01*
X129660000Y-86511000D02*
X128560000Y-86511000D01*
X132440000Y-86511000D02*
X131340000Y-86511000D01*
X129660000Y-86471000D02*
X128546000Y-86471000D01*
X132454000Y-86471000D02*
X131340000Y-86471000D01*
X129660000Y-86430000D02*
X128532000Y-86430000D01*
X132468000Y-86430000D02*
X131340000Y-86430000D01*
X129660000Y-86390000D02*
X128518000Y-86390000D01*
X132482000Y-86390000D02*
X131340000Y-86390000D01*
X129660000Y-86350000D02*
X128506000Y-86350000D01*
X132494000Y-86350000D02*
X131340000Y-86350000D01*
X129660000Y-86310000D02*
X128495000Y-86310000D01*
X132505000Y-86310000D02*
X131340000Y-86310000D01*
X129660000Y-86270000D02*
X128484000Y-86270000D01*
X132516000Y-86270000D02*
X131340000Y-86270000D01*
X129660000Y-86230000D02*
X128475000Y-86230000D01*
X132525000Y-86230000D02*
X131340000Y-86230000D01*
X129660000Y-86190000D02*
X128466000Y-86190000D01*
X132534000Y-86190000D02*
X131340000Y-86190000D01*
X129660000Y-86150000D02*
X128458000Y-86150000D01*
X132542000Y-86150000D02*
X131340000Y-86150000D01*
X129660000Y-86110000D02*
X128450000Y-86110000D01*
X132550000Y-86110000D02*
X131340000Y-86110000D01*
X129660000Y-86070000D02*
X128444000Y-86070000D01*
X132556000Y-86070000D02*
X131340000Y-86070000D01*
X129660000Y-86030000D02*
X128438000Y-86030000D01*
X132562000Y-86030000D02*
X131340000Y-86030000D01*
X129660000Y-85990000D02*
X128433000Y-85990000D01*
X132567000Y-85990000D02*
X131340000Y-85990000D01*
X129660000Y-85950000D02*
X128429000Y-85950000D01*
X132571000Y-85950000D02*
X131340000Y-85950000D01*
X129660000Y-85910000D02*
X128426000Y-85910000D01*
X132574000Y-85910000D02*
X131340000Y-85910000D01*
X129660000Y-85870000D02*
X128423000Y-85870000D01*
X132577000Y-85870000D02*
X131340000Y-85870000D01*
X132579000Y-85830000D02*
X131340000Y-85830000D01*
X129660000Y-85830000D02*
X128421000Y-85830000D01*
X132580000Y-85790000D02*
X131340000Y-85790000D01*
X129660000Y-85790000D02*
X128420000Y-85790000D01*
X132580000Y-85750000D02*
X131340000Y-85750000D01*
X129660000Y-85750000D02*
X128420000Y-85750000D01*
X132620000Y-85750000D02*
G75*
G03X132620000Y-85750000I-2120000J0D01*
G01*
X143421392Y-70557665D02*
G75*
G03X143264484Y-73790000I1078608J-1672335D01*
G01*
X145578608Y-70557665D02*
G75*
G02X145735516Y-73790000I-1078608J-1672335D01*
G01*
X143420163Y-71188870D02*
G75*
G03X143420000Y-73270961I1079837J-1041130D01*
G01*
X145579837Y-71188870D02*
G75*
G02X145580000Y-73270961I-1079837J-1041130D01*
G01*
X143264000Y-73790000D02*
X143420000Y-73790000D01*
X145580000Y-73790000D02*
X145736000Y-73790000D01*
X126450000Y-78350000D02*
X126450000Y-82650000D01*
X126450000Y-82650000D02*
X132150000Y-82650000D01*
X126450000Y-78350000D02*
X132150000Y-78350000D01*
X111000000Y-77000000D02*
X111000000Y-68000000D01*
X111000000Y-68000000D02*
X120200000Y-68000000D01*
X120200000Y-68000000D02*
X120200000Y-82600000D01*
X120200000Y-82600000D02*
X117400000Y-82600000D01*
X113800000Y-82600000D02*
X111000000Y-82600000D01*
X111000000Y-82600000D02*
X111000000Y-80600000D01*
X120440000Y-81100000D02*
X120440000Y-82840000D01*
X120440000Y-82840000D02*
X118700000Y-82840000D01*
X137130000Y-78690000D02*
X139870000Y-78690000D01*
X139870000Y-78690000D02*
X139870000Y-72150000D01*
X139870000Y-72150000D02*
X137130000Y-72150000D01*
X137130000Y-72150000D02*
X137130000Y-78690000D01*
X138500000Y-79460000D02*
X138500000Y-78690000D01*
X138500000Y-71380000D02*
X138500000Y-72150000D01*
X119100000Y-91410000D02*
X113090000Y-91410000D01*
X116850000Y-84590000D02*
X113090000Y-84590000D01*
X113090000Y-91410000D02*
X113090000Y-90150000D01*
X113090000Y-84590000D02*
X113090000Y-85850000D01*
X140910000Y-91410000D02*
X140910000Y-90150000D01*
X140910000Y-84590000D02*
X140910000Y-85850000D01*
X137150000Y-91410000D02*
X140910000Y-91410000D01*
X134900000Y-84590000D02*
X140910000Y-84590000D01*
D10*
X126157142Y-84316666D02*
X126204761Y-84364285D01*
X126252380Y-84507142D01*
X126252380Y-84602380D01*
X126204761Y-84745238D01*
X126109523Y-84840476D01*
X126014285Y-84888095D01*
X125823809Y-84935714D01*
X125680952Y-84935714D01*
X125490476Y-84888095D01*
X125395238Y-84840476D01*
X125300000Y-84745238D01*
X125252380Y-84602380D01*
X125252380Y-84507142D01*
X125300000Y-84364285D01*
X125347619Y-84316666D01*
X126252380Y-83364285D02*
X126252380Y-83935714D01*
X126252380Y-83650000D02*
X125252380Y-83650000D01*
X125395238Y-83745238D01*
X125490476Y-83840476D01*
X125538095Y-83935714D01*
X129907142Y-91716666D02*
X129954761Y-91764285D01*
X130002380Y-91907142D01*
X130002380Y-92002380D01*
X129954761Y-92145238D01*
X129859523Y-92240476D01*
X129764285Y-92288095D01*
X129573809Y-92335714D01*
X129430952Y-92335714D01*
X129240476Y-92288095D01*
X129145238Y-92240476D01*
X129050000Y-92145238D01*
X129002380Y-92002380D01*
X129002380Y-91907142D01*
X129050000Y-91764285D01*
X129097619Y-91716666D01*
X129097619Y-91335714D02*
X129050000Y-91288095D01*
X129002380Y-91192857D01*
X129002380Y-90954761D01*
X129050000Y-90859523D01*
X129097619Y-90811904D01*
X129192857Y-90764285D01*
X129288095Y-90764285D01*
X129430952Y-90811904D01*
X130002380Y-91383333D01*
X130002380Y-90764285D01*
X133657142Y-84216666D02*
X133704761Y-84264285D01*
X133752380Y-84407142D01*
X133752380Y-84502380D01*
X133704761Y-84645238D01*
X133609523Y-84740476D01*
X133514285Y-84788095D01*
X133323809Y-84835714D01*
X133180952Y-84835714D01*
X132990476Y-84788095D01*
X132895238Y-84740476D01*
X132800000Y-84645238D01*
X132752380Y-84502380D01*
X132752380Y-84407142D01*
X132800000Y-84264285D01*
X132847619Y-84216666D01*
X132752380Y-83883333D02*
X132752380Y-83264285D01*
X133133333Y-83597619D01*
X133133333Y-83454761D01*
X133180952Y-83359523D01*
X133228571Y-83311904D01*
X133323809Y-83264285D01*
X133561904Y-83264285D01*
X133657142Y-83311904D01*
X133704761Y-83359523D01*
X133752380Y-83454761D01*
X133752380Y-83740476D01*
X133704761Y-83835714D01*
X133657142Y-83883333D01*
X141992380Y-72968095D02*
X140992380Y-72968095D01*
X140992380Y-72730000D01*
X141040000Y-72587142D01*
X141135238Y-72491904D01*
X141230476Y-72444285D01*
X141420952Y-72396666D01*
X141563809Y-72396666D01*
X141754285Y-72444285D01*
X141849523Y-72491904D01*
X141944761Y-72587142D01*
X141992380Y-72730000D01*
X141992380Y-72968095D01*
X141992380Y-71444285D02*
X141992380Y-72015714D01*
X141992380Y-71730000D02*
X140992380Y-71730000D01*
X141135238Y-71825238D01*
X141230476Y-71920476D01*
X141278095Y-72015714D01*
X125652380Y-81238095D02*
X124652380Y-81238095D01*
X124652380Y-81000000D01*
X124700000Y-80857142D01*
X124795238Y-80761904D01*
X124890476Y-80714285D01*
X125080952Y-80666666D01*
X125223809Y-80666666D01*
X125414285Y-80714285D01*
X125509523Y-80761904D01*
X125604761Y-80857142D01*
X125652380Y-81000000D01*
X125652380Y-81238095D01*
X124747619Y-80285714D02*
X124700000Y-80238095D01*
X124652380Y-80142857D01*
X124652380Y-79904761D01*
X124700000Y-79809523D01*
X124747619Y-79761904D01*
X124842857Y-79714285D01*
X124938095Y-79714285D01*
X125080952Y-79761904D01*
X125652380Y-80333333D01*
X125652380Y-79714285D01*
X109302380Y-73683333D02*
X110016666Y-73683333D01*
X110159523Y-73730952D01*
X110254761Y-73826190D01*
X110302380Y-73969047D01*
X110302380Y-74064285D01*
X110302380Y-72683333D02*
X110302380Y-73254761D01*
X110302380Y-72969047D02*
X109302380Y-72969047D01*
X109445238Y-73064285D01*
X109540476Y-73159523D01*
X109588095Y-73254761D01*
X107282380Y-79483333D02*
X107996666Y-79483333D01*
X108139523Y-79530952D01*
X108234761Y-79626190D01*
X108282380Y-79769047D01*
X108282380Y-79864285D01*
X107377619Y-79054761D02*
X107330000Y-79007142D01*
X107282380Y-78911904D01*
X107282380Y-78673809D01*
X107330000Y-78578571D01*
X107377619Y-78530952D01*
X107472857Y-78483333D01*
X107568095Y-78483333D01*
X107710952Y-78530952D01*
X108282380Y-79102380D01*
X108282380Y-78483333D01*
X107282380Y-89633333D02*
X107996666Y-89633333D01*
X108139523Y-89680952D01*
X108234761Y-89776190D01*
X108282380Y-89919047D01*
X108282380Y-90014285D01*
X107282380Y-89252380D02*
X107282380Y-88633333D01*
X107663333Y-88966666D01*
X107663333Y-88823809D01*
X107710952Y-88728571D01*
X107758571Y-88680952D01*
X107853809Y-88633333D01*
X108091904Y-88633333D01*
X108187142Y-88680952D01*
X108234761Y-88728571D01*
X108282380Y-88823809D01*
X108282380Y-89109523D01*
X108234761Y-89204761D01*
X108187142Y-89252380D01*
X144502380Y-79483333D02*
X145216666Y-79483333D01*
X145359523Y-79530952D01*
X145454761Y-79626190D01*
X145502380Y-79769047D01*
X145502380Y-79864285D01*
X144835714Y-78578571D02*
X145502380Y-78578571D01*
X144454761Y-78816666D02*
X145169047Y-79054761D01*
X145169047Y-78435714D01*
X144502380Y-89633333D02*
X145216666Y-89633333D01*
X145359523Y-89680952D01*
X145454761Y-89776190D01*
X145502380Y-89919047D01*
X145502380Y-90014285D01*
X144502380Y-88680952D02*
X144502380Y-89157142D01*
X144978571Y-89204761D01*
X144930952Y-89157142D01*
X144883333Y-89061904D01*
X144883333Y-88823809D01*
X144930952Y-88728571D01*
X144978571Y-88680952D01*
X145073809Y-88633333D01*
X145311904Y-88633333D01*
X145407142Y-88680952D01*
X145454761Y-88728571D01*
X145502380Y-88823809D01*
X145502380Y-89061904D01*
X145454761Y-89157142D01*
X145407142Y-89204761D01*
X141502380Y-77766666D02*
X141026190Y-78100000D01*
X141502380Y-78338095D02*
X140502380Y-78338095D01*
X140502380Y-77957142D01*
X140550000Y-77861904D01*
X140597619Y-77814285D01*
X140692857Y-77766666D01*
X140835714Y-77766666D01*
X140930952Y-77814285D01*
X140978571Y-77861904D01*
X141026190Y-77957142D01*
X141026190Y-78338095D01*
X141502380Y-76814285D02*
X141502380Y-77385714D01*
X141502380Y-77100000D02*
X140502380Y-77100000D01*
X140645238Y-77195238D01*
X140740476Y-77290476D01*
X140788095Y-77385714D01*
X135954761Y-70983333D02*
X136002380Y-70840476D01*
X136002380Y-70602380D01*
X135954761Y-70507142D01*
X135907142Y-70459523D01*
X135811904Y-70411904D01*
X135716666Y-70411904D01*
X135621428Y-70459523D01*
X135573809Y-70507142D01*
X135526190Y-70602380D01*
X135478571Y-70792857D01*
X135430952Y-70888095D01*
X135383333Y-70935714D01*
X135288095Y-70983333D01*
X135192857Y-70983333D01*
X135097619Y-70935714D01*
X135050000Y-70888095D01*
X135002380Y-70792857D01*
X135002380Y-70554761D01*
X135050000Y-70411904D01*
X135002380Y-70078571D02*
X136002380Y-69840476D01*
X135288095Y-69650000D01*
X136002380Y-69459523D01*
X135002380Y-69221428D01*
X136002380Y-68316666D02*
X136002380Y-68888095D01*
X136002380Y-68602380D02*
X135002380Y-68602380D01*
X135145238Y-68697619D01*
X135240476Y-68792857D01*
X135288095Y-68888095D01*
X111302380Y-85161904D02*
X112111904Y-85161904D01*
X112207142Y-85114285D01*
X112254761Y-85066666D01*
X112302380Y-84971428D01*
X112302380Y-84780952D01*
X112254761Y-84685714D01*
X112207142Y-84638095D01*
X112111904Y-84590476D01*
X111302380Y-84590476D01*
X112302380Y-83590476D02*
X112302380Y-84161904D01*
X112302380Y-83876190D02*
X111302380Y-83876190D01*
X111445238Y-83971428D01*
X111540476Y-84066666D01*
X111588095Y-84161904D01*
X141652380Y-85161904D02*
X142461904Y-85161904D01*
X142557142Y-85114285D01*
X142604761Y-85066666D01*
X142652380Y-84971428D01*
X142652380Y-84780952D01*
X142604761Y-84685714D01*
X142557142Y-84638095D01*
X142461904Y-84590476D01*
X141652380Y-84590476D01*
X141747619Y-84161904D02*
X141700000Y-84114285D01*
X141652380Y-84019047D01*
X141652380Y-83780952D01*
X141700000Y-83685714D01*
X141747619Y-83638095D01*
X141842857Y-83590476D01*
X141938095Y-83590476D01*
X142080952Y-83638095D01*
X142652380Y-84209523D01*
X142652380Y-83590476D01*
M02*
