M48
; DRILL file {KiCad (5.1.4)-1} date 27/03/2020 20:00:32
; FORMAT={-:-/ absolute / inch / decimal}
; #@! TF.CreationDate,2020-03-27T20:00:32-03:00
; #@! TF.GenerationSoftware,Kicad,Pcbnew,(5.1.4)-1
; #@! TF.FileFunction,Plated,1,2,PTH
FMAT,2
INCH
T1C0.0157
T2C0.0236
T3C0.0315
T4C0.0354
T5C0.0394
T6C0.0433
T7C0.0630
%
G90
G05
T1
X3.9764Y-2.6969
X3.9764Y-3.6417
X4.0531Y-3.2087
X4.1535Y-3.2087
X4.498Y-3.4173
X4.5335Y-2.7756
X4.534Y-3.5644
X4.7323Y-3.3465
X4.7933Y-3.5551
X4.9321Y-3.2707
X5.1181Y-2.8602
X5.2028Y-3.061
X5.2165Y-3.5551
X5.2333Y-3.3888
X5.3346Y-3.2283
X5.5079Y-3.4154
X5.8071Y-3.2087
X5.8504Y-3.6201
X5.9075Y-3.2087
X5.9843Y-2.6969
X5.9843Y-3.6417
T2
X5.1378Y-3.3465
X5.1378Y-3.4055
X4.9931Y-3.4951
X4.9931Y-3.5541
X4.8425Y-3.3465
X4.8425Y-3.4055
T3
X5.4528Y-2.7693
X5.4528Y-3.1693
T4
X5.689Y-2.7937
X5.689Y-2.8937
T5
X4.0535Y-3.1161
X4.1535Y-3.1161
X4.0535Y-3.5157
X4.1535Y-3.5157
X5.8075Y-3.5157
X5.9075Y-3.5157
X5.8075Y-3.1161
X5.9075Y-3.1161
T6
X5.0Y-2.7756
X5.0Y-2.9724
X5.2362Y-2.7756
X5.2362Y-2.9724
T7
X4.3661Y-3.1024
X4.5512Y-2.9843
X4.5512Y-3.2205
T0
M30
