G04 #@! TF.GenerationSoftware,KiCad,Pcbnew,(5.1.4)-1*
G04 #@! TF.CreationDate,2020-03-26T20:17:56-03:00*
G04 #@! TF.ProjectId,Protoboard-power,50726f74-6f62-46f6-9172-642d706f7765,rev?*
G04 #@! TF.SameCoordinates,Original*
G04 #@! TF.FileFunction,Legend,Bot*
G04 #@! TF.FilePolarity,Positive*
%FSLAX46Y46*%
G04 Gerber Fmt 4.6, Leading zero omitted, Abs format (unit mm)*
G04 Created by KiCad (PCBNEW (5.1.4)-1) date 2020-03-26 20:17:56*
%MOMM*%
%LPD*%
G04 APERTURE LIST*
%ADD10C,0.120000*%
G04 APERTURE END LIST*
D10*
X101630000Y-80480000D02*
X101630000Y-77820000D01*
X104230000Y-80480000D02*
X101630000Y-80480000D01*
X104230000Y-77820000D02*
X101630000Y-77820000D01*
X104230000Y-80480000D02*
X104230000Y-77820000D01*
X105500000Y-80480000D02*
X106830000Y-80480000D01*
X106830000Y-80480000D02*
X106830000Y-79150000D01*
X106830000Y-90630000D02*
X106830000Y-89300000D01*
X105500000Y-90630000D02*
X106830000Y-90630000D01*
X104230000Y-90630000D02*
X104230000Y-87970000D01*
X104230000Y-87970000D02*
X101630000Y-87970000D01*
X104230000Y-90630000D02*
X101630000Y-90630000D01*
X101630000Y-90630000D02*
X101630000Y-87970000D01*
X146180000Y-80480000D02*
X146180000Y-77820000D01*
X148780000Y-80480000D02*
X146180000Y-80480000D01*
X148780000Y-77820000D02*
X146180000Y-77820000D01*
X148780000Y-80480000D02*
X148780000Y-77820000D01*
X150050000Y-80480000D02*
X151380000Y-80480000D01*
X151380000Y-80480000D02*
X151380000Y-79150000D01*
X151380000Y-90630000D02*
X151380000Y-89300000D01*
X150050000Y-90630000D02*
X151380000Y-90630000D01*
X148780000Y-90630000D02*
X148780000Y-87970000D01*
X148780000Y-87970000D02*
X146180000Y-87970000D01*
X148780000Y-90630000D02*
X146180000Y-90630000D01*
X146180000Y-90630000D02*
X146180000Y-87970000D01*
M02*
