G04 #@! TF.GenerationSoftware,KiCad,Pcbnew,(5.1.4)-1*
G04 #@! TF.CreationDate,2020-03-26T20:17:56-03:00*
G04 #@! TF.ProjectId,Protoboard-power,50726f74-6f62-46f6-9172-642d706f7765,rev?*
G04 #@! TF.SameCoordinates,Original*
G04 #@! TF.FileFunction,Copper,L2,Bot*
G04 #@! TF.FilePolarity,Positive*
%FSLAX46Y46*%
G04 Gerber Fmt 4.6, Leading zero omitted, Abs format (unit mm)*
G04 Created by KiCad (PCBNEW (5.1.4)-1) date 2020-03-26 20:17:56*
%MOMM*%
%LPD*%
G04 APERTURE LIST*
%ADD10R,1.200000X1.200000*%
%ADD11C,1.200000*%
%ADD12R,1.800000X1.800000*%
%ADD13C,1.800000*%
%ADD14R,2.600000X2.600000*%
%ADD15C,2.600000*%
%ADD16R,1.700000X1.700000*%
%ADD17O,1.700000X1.700000*%
%ADD18C,1.600000*%
%ADD19O,1.600000X1.600000*%
%ADD20C,2.000000*%
%ADD21C,0.800000*%
%ADD22C,1.250000*%
%ADD23C,0.254000*%
G04 APERTURE END LIST*
D10*
X123000000Y-85000000D03*
D11*
X123000000Y-86500000D03*
X126825000Y-90275000D03*
D10*
X126825000Y-88775000D03*
D11*
X130500000Y-86500000D03*
D10*
X130500000Y-85000000D03*
D12*
X144500000Y-73500000D03*
D13*
X144500000Y-70960000D03*
D14*
X115600000Y-81800000D03*
D15*
X115600000Y-75800000D03*
X110900000Y-78800000D03*
D16*
X105500000Y-79150000D03*
D17*
X102960000Y-79150000D03*
X102960000Y-89300000D03*
D16*
X105500000Y-89300000D03*
X150050000Y-79150000D03*
D17*
X147510000Y-79150000D03*
X147510000Y-89300000D03*
D16*
X150050000Y-89300000D03*
D18*
X138500000Y-80500000D03*
D19*
X138500000Y-70340000D03*
D20*
X133000000Y-70500000D03*
X133000000Y-75500000D03*
X127000000Y-70500000D03*
X127000000Y-75500000D03*
D21*
X105500000Y-81500000D03*
X115163990Y-90536010D03*
X132500000Y-90300000D03*
X101000000Y-68500000D03*
X101000000Y-92500000D03*
X152000000Y-92500000D03*
X152000000Y-68500000D03*
X115150000Y-70500000D03*
X130000000Y-72650000D03*
X114250000Y-86800000D03*
X147500000Y-81500000D03*
X102950000Y-81500000D03*
X121750000Y-90300000D03*
X139900000Y-86750000D03*
X120200000Y-85000000D03*
X125275000Y-83075000D03*
X135500000Y-82000000D03*
X132925000Y-86075000D03*
X148600000Y-91950000D03*
X150050000Y-81500000D03*
X132150000Y-77750000D03*
D22*
X105500000Y-79150000D02*
X105500000Y-89300000D01*
X113927980Y-89300000D02*
X115163990Y-90536010D01*
X105500000Y-89300000D02*
X113927980Y-89300000D01*
X115163990Y-91101695D02*
X116676285Y-92613990D01*
X115163990Y-90536010D02*
X115163990Y-91101695D01*
X116676285Y-92613990D02*
X130186010Y-92613990D01*
X130675000Y-90775000D02*
X132025000Y-90775000D01*
X128675000Y-88775000D02*
X130675000Y-90775000D01*
X126825000Y-88775000D02*
X128675000Y-88775000D01*
X130186010Y-92613990D02*
X132025000Y-90775000D01*
X132025000Y-90775000D02*
X132500000Y-90300000D01*
X144500000Y-76140000D02*
X147510000Y-79150000D01*
X144500000Y-73500000D02*
X144500000Y-76140000D01*
X113761523Y-75800000D02*
X115600000Y-75800000D01*
X105107919Y-75800000D02*
X113761523Y-75800000D01*
X102960000Y-77947919D02*
X105107919Y-75800000D01*
X102960000Y-79150000D02*
X102960000Y-77947919D01*
X115600000Y-77638477D02*
X113050000Y-80188477D01*
X115600000Y-75800000D02*
X115600000Y-77638477D01*
X122151472Y-86500000D02*
X123000000Y-86500000D01*
X116214998Y-86500000D02*
X122151472Y-86500000D01*
X113050000Y-83335002D02*
X116214998Y-86500000D01*
X113050000Y-80188477D02*
X113050000Y-83335002D01*
X125926472Y-90275000D02*
X126825000Y-90275000D01*
X123000000Y-86500000D02*
X130500000Y-86500000D01*
X145400000Y-79150000D02*
X142675000Y-81875000D01*
X147510000Y-79150000D02*
X145400000Y-79150000D01*
X147510000Y-79150000D02*
X147510000Y-89300000D01*
X102960000Y-79150000D02*
X102960000Y-89300000D01*
X121775000Y-90275000D02*
X121750000Y-90300000D01*
X126825000Y-90275000D02*
X121775000Y-90275000D01*
X121750000Y-87750000D02*
X123000000Y-86500000D01*
X121750000Y-90300000D02*
X121750000Y-87750000D01*
X123000000Y-85000000D02*
X120200000Y-85000000D01*
X123350000Y-85000000D02*
X125275000Y-83075000D01*
X123000000Y-85000000D02*
X123350000Y-85000000D01*
X137000000Y-80500000D02*
X135500000Y-82000000D01*
X138500000Y-80500000D02*
X137000000Y-80500000D01*
X131850000Y-85000000D02*
X132925000Y-86075000D01*
X130500000Y-85000000D02*
X131850000Y-85000000D01*
X150050000Y-79150000D02*
X150050000Y-89300000D01*
X148600000Y-91950000D02*
X149900000Y-91950000D01*
X150050000Y-91800000D02*
X150050000Y-89300000D01*
X149900000Y-91950000D02*
X150050000Y-91800000D01*
X139120000Y-70960000D02*
X138500000Y-70340000D01*
X144500000Y-70960000D02*
X139120000Y-70960000D01*
X133000000Y-70500000D02*
X133000000Y-75500000D01*
X133000000Y-76900000D02*
X132150000Y-77750000D01*
X133000000Y-75500000D02*
X133000000Y-76900000D01*
X115600000Y-81800000D02*
X118850000Y-81800000D01*
X125150000Y-75500000D02*
X127000000Y-75500000D01*
X118850000Y-81800000D02*
X125150000Y-75500000D01*
X127000000Y-70500000D02*
X127000000Y-75500000D01*
D23*
G36*
X152494001Y-93058000D02*
G01*
X131164698Y-93058000D01*
X132272698Y-91950000D01*
X147589133Y-91950000D01*
X147608557Y-92147210D01*
X147666081Y-92336842D01*
X147759495Y-92511608D01*
X147885209Y-92664791D01*
X148038392Y-92790505D01*
X148213158Y-92883919D01*
X148402790Y-92941443D01*
X148550586Y-92956000D01*
X149850586Y-92956000D01*
X149900000Y-92960867D01*
X149949414Y-92956000D01*
X150097210Y-92941443D01*
X150286842Y-92883919D01*
X150461608Y-92790505D01*
X150614791Y-92664791D01*
X150646296Y-92626402D01*
X150726402Y-92546296D01*
X150764791Y-92514791D01*
X150890505Y-92361608D01*
X150983919Y-92186842D01*
X151041443Y-91997210D01*
X151056000Y-91849414D01*
X151056000Y-91849413D01*
X151060867Y-91800001D01*
X151056000Y-91750587D01*
X151056000Y-90498627D01*
X151112696Y-90468322D01*
X151170711Y-90420711D01*
X151218322Y-90362696D01*
X151253701Y-90296508D01*
X151275487Y-90224689D01*
X151282843Y-90150000D01*
X151282843Y-88450000D01*
X151275487Y-88375311D01*
X151253701Y-88303492D01*
X151218322Y-88237304D01*
X151170711Y-88179289D01*
X151112696Y-88131678D01*
X151056000Y-88101373D01*
X151056000Y-80348627D01*
X151112696Y-80318322D01*
X151170711Y-80270711D01*
X151218322Y-80212696D01*
X151253701Y-80146508D01*
X151275487Y-80074689D01*
X151282843Y-80000000D01*
X151282843Y-78300000D01*
X151275487Y-78225311D01*
X151253701Y-78153492D01*
X151218322Y-78087304D01*
X151170711Y-78029289D01*
X151112696Y-77981678D01*
X151046508Y-77946299D01*
X150974689Y-77924513D01*
X150900000Y-77917157D01*
X149200000Y-77917157D01*
X149125311Y-77924513D01*
X149053492Y-77946299D01*
X148987304Y-77981678D01*
X148929289Y-78029289D01*
X148881678Y-78087304D01*
X148846299Y-78153492D01*
X148824513Y-78225311D01*
X148817157Y-78300000D01*
X148817157Y-78456633D01*
X148705178Y-78268645D01*
X148510269Y-78052412D01*
X148276920Y-77878359D01*
X148014099Y-77753175D01*
X147866890Y-77708524D01*
X147637000Y-77829845D01*
X147637000Y-79023000D01*
X147657000Y-79023000D01*
X147657000Y-79277000D01*
X147637000Y-79277000D01*
X147637000Y-80470155D01*
X147866890Y-80591476D01*
X148014099Y-80546825D01*
X148276920Y-80421641D01*
X148510269Y-80247588D01*
X148705178Y-80031355D01*
X148817157Y-79843367D01*
X148817157Y-80000000D01*
X148824513Y-80074689D01*
X148846299Y-80146508D01*
X148881678Y-80212696D01*
X148929289Y-80270711D01*
X148987304Y-80318322D01*
X149044000Y-80348627D01*
X149044001Y-88101372D01*
X148987304Y-88131678D01*
X148929289Y-88179289D01*
X148881678Y-88237304D01*
X148846299Y-88303492D01*
X148824513Y-88375311D01*
X148817157Y-88450000D01*
X148817157Y-88606633D01*
X148705178Y-88418645D01*
X148510269Y-88202412D01*
X148276920Y-88028359D01*
X148014099Y-87903175D01*
X147866890Y-87858524D01*
X147637000Y-87979845D01*
X147637000Y-89173000D01*
X147657000Y-89173000D01*
X147657000Y-89427000D01*
X147637000Y-89427000D01*
X147637000Y-90620155D01*
X147866890Y-90741476D01*
X148014099Y-90696825D01*
X148276920Y-90571641D01*
X148510269Y-90397588D01*
X148705178Y-90181355D01*
X148817157Y-89993367D01*
X148817157Y-90150000D01*
X148824513Y-90224689D01*
X148846299Y-90296508D01*
X148881678Y-90362696D01*
X148929289Y-90420711D01*
X148987304Y-90468322D01*
X149044001Y-90498628D01*
X149044000Y-90944000D01*
X148550586Y-90944000D01*
X148402790Y-90958557D01*
X148213158Y-91016081D01*
X148038392Y-91109495D01*
X147885209Y-91235209D01*
X147759495Y-91388392D01*
X147666081Y-91563158D01*
X147608557Y-91752790D01*
X147589133Y-91950000D01*
X132272698Y-91950000D01*
X132701409Y-91521290D01*
X132739791Y-91489791D01*
X132771296Y-91451402D01*
X133246290Y-90976408D01*
X133340504Y-90861607D01*
X133433918Y-90686843D01*
X133491443Y-90497211D01*
X133510866Y-90300001D01*
X133491443Y-90102791D01*
X133433918Y-89913159D01*
X133340504Y-89738393D01*
X133273618Y-89656891D01*
X146068519Y-89656891D01*
X146165843Y-89931252D01*
X146314822Y-90181355D01*
X146509731Y-90397588D01*
X146743080Y-90571641D01*
X147005901Y-90696825D01*
X147153110Y-90741476D01*
X147383000Y-90620155D01*
X147383000Y-89427000D01*
X146189186Y-89427000D01*
X146068519Y-89656891D01*
X133273618Y-89656891D01*
X133214790Y-89585210D01*
X133061607Y-89459496D01*
X132886841Y-89366082D01*
X132697209Y-89308557D01*
X132499999Y-89289134D01*
X132302789Y-89308557D01*
X132113157Y-89366082D01*
X131938393Y-89459496D01*
X131823592Y-89553710D01*
X131608302Y-89769000D01*
X131091699Y-89769000D01*
X130265808Y-88943109D01*
X146068519Y-88943109D01*
X146189186Y-89173000D01*
X147383000Y-89173000D01*
X147383000Y-87979845D01*
X147153110Y-87858524D01*
X147005901Y-87903175D01*
X146743080Y-88028359D01*
X146509731Y-88202412D01*
X146314822Y-88418645D01*
X146165843Y-88668748D01*
X146068519Y-88943109D01*
X130265808Y-88943109D01*
X129421296Y-88098598D01*
X129389791Y-88060209D01*
X129236608Y-87934495D01*
X129061842Y-87841081D01*
X128872210Y-87783557D01*
X128724414Y-87769000D01*
X128675000Y-87764133D01*
X128625586Y-87769000D01*
X126775586Y-87769000D01*
X126627790Y-87783557D01*
X126599439Y-87792157D01*
X126225000Y-87792157D01*
X126150311Y-87799513D01*
X126078492Y-87821299D01*
X126012304Y-87856678D01*
X125954289Y-87904289D01*
X125906678Y-87962304D01*
X125871299Y-88028492D01*
X125849513Y-88100311D01*
X125842157Y-88175000D01*
X125842157Y-88549439D01*
X125833557Y-88577790D01*
X125814133Y-88775000D01*
X125833557Y-88972210D01*
X125842157Y-89000561D01*
X125842157Y-89375000D01*
X125849513Y-89449689D01*
X125860373Y-89485491D01*
X125858128Y-89487736D01*
X125862329Y-89491937D01*
X125871299Y-89521508D01*
X125906678Y-89587696D01*
X125928810Y-89614664D01*
X125751652Y-89652148D01*
X125650763Y-89873516D01*
X125595000Y-90110313D01*
X125586505Y-90353438D01*
X125625605Y-90593549D01*
X125710798Y-90821418D01*
X125751652Y-90897852D01*
X125975236Y-90945159D01*
X126645395Y-90275000D01*
X126631253Y-90260858D01*
X126810858Y-90081253D01*
X126825000Y-90095395D01*
X126839143Y-90081253D01*
X127018748Y-90260858D01*
X127004605Y-90275000D01*
X127674764Y-90945159D01*
X127898348Y-90897852D01*
X127999237Y-90676484D01*
X128055000Y-90439687D01*
X128063495Y-90196562D01*
X128024395Y-89956451D01*
X127958799Y-89781000D01*
X128258302Y-89781000D01*
X129927301Y-91450000D01*
X129769312Y-91607990D01*
X117092984Y-91607990D01*
X116609758Y-91124764D01*
X126154841Y-91124764D01*
X126202148Y-91348348D01*
X126423516Y-91449237D01*
X126660313Y-91505000D01*
X126903438Y-91513495D01*
X127143549Y-91474395D01*
X127371418Y-91389202D01*
X127447852Y-91348348D01*
X127495159Y-91124764D01*
X126825000Y-90454605D01*
X126154841Y-91124764D01*
X116609758Y-91124764D01*
X116169990Y-90684997D01*
X116169990Y-90585423D01*
X116174857Y-90536009D01*
X116155433Y-90338799D01*
X116141067Y-90291443D01*
X116097909Y-90149168D01*
X116004495Y-89974402D01*
X115878781Y-89821219D01*
X115840397Y-89789718D01*
X114674276Y-88623598D01*
X114642771Y-88585209D01*
X114489588Y-88459495D01*
X114314822Y-88366081D01*
X114125190Y-88308557D01*
X113977394Y-88294000D01*
X113927980Y-88289133D01*
X113878566Y-88294000D01*
X106698627Y-88294000D01*
X106668322Y-88237304D01*
X106620711Y-88179289D01*
X106562696Y-88131678D01*
X106506000Y-88101373D01*
X106506000Y-87349764D01*
X122329841Y-87349764D01*
X122377148Y-87573348D01*
X122598516Y-87674237D01*
X122835313Y-87730000D01*
X123078438Y-87738495D01*
X123318549Y-87699395D01*
X123546418Y-87614202D01*
X123622852Y-87573348D01*
X123670159Y-87349764D01*
X129829841Y-87349764D01*
X129877148Y-87573348D01*
X130098516Y-87674237D01*
X130335313Y-87730000D01*
X130578438Y-87738495D01*
X130818549Y-87699395D01*
X131046418Y-87614202D01*
X131122852Y-87573348D01*
X131170159Y-87349764D01*
X130500000Y-86679605D01*
X129829841Y-87349764D01*
X123670159Y-87349764D01*
X123000000Y-86679605D01*
X122329841Y-87349764D01*
X106506000Y-87349764D01*
X106506000Y-85000000D01*
X119189133Y-85000000D01*
X119208557Y-85197210D01*
X119266081Y-85386842D01*
X119359495Y-85561608D01*
X119485209Y-85714791D01*
X119638392Y-85840505D01*
X119813158Y-85933919D01*
X120002790Y-85991443D01*
X120150586Y-86006000D01*
X121867927Y-86006000D01*
X121825763Y-86098516D01*
X121770000Y-86335313D01*
X121761505Y-86578438D01*
X121800605Y-86818549D01*
X121885798Y-87046418D01*
X121926652Y-87122852D01*
X122150236Y-87170159D01*
X122820395Y-86500000D01*
X122806253Y-86485858D01*
X122985858Y-86306253D01*
X123000000Y-86320395D01*
X123014143Y-86306253D01*
X123193748Y-86485858D01*
X123179605Y-86500000D01*
X123849764Y-87170159D01*
X124073348Y-87122852D01*
X124174237Y-86901484D01*
X124230000Y-86664687D01*
X124233013Y-86578438D01*
X129261505Y-86578438D01*
X129300605Y-86818549D01*
X129385798Y-87046418D01*
X129426652Y-87122852D01*
X129650236Y-87170159D01*
X130320395Y-86500000D01*
X130306253Y-86485858D01*
X130485858Y-86306253D01*
X130500000Y-86320395D01*
X130514143Y-86306253D01*
X130693748Y-86485858D01*
X130679605Y-86500000D01*
X131349764Y-87170159D01*
X131573348Y-87122852D01*
X131674237Y-86901484D01*
X131730000Y-86664687D01*
X131738495Y-86421562D01*
X131717026Y-86289725D01*
X132248591Y-86821290D01*
X132363392Y-86915504D01*
X132538158Y-87008919D01*
X132727790Y-87066443D01*
X132925000Y-87085867D01*
X133122210Y-87066443D01*
X133311842Y-87008919D01*
X133486607Y-86915504D01*
X133639791Y-86789791D01*
X133765504Y-86636607D01*
X133858919Y-86461842D01*
X133916443Y-86272210D01*
X133935867Y-86075000D01*
X133916443Y-85877790D01*
X133858919Y-85688158D01*
X133765504Y-85513392D01*
X133671290Y-85398591D01*
X132596296Y-84323598D01*
X132564791Y-84285209D01*
X132411608Y-84159495D01*
X132236842Y-84066081D01*
X132047210Y-84008557D01*
X131899414Y-83994000D01*
X131850000Y-83989133D01*
X131800586Y-83994000D01*
X130450586Y-83994000D01*
X130302790Y-84008557D01*
X130274439Y-84017157D01*
X129900000Y-84017157D01*
X129825311Y-84024513D01*
X129753492Y-84046299D01*
X129687304Y-84081678D01*
X129629289Y-84129289D01*
X129581678Y-84187304D01*
X129546299Y-84253492D01*
X129524513Y-84325311D01*
X129517157Y-84400000D01*
X129517157Y-84774439D01*
X129508557Y-84802790D01*
X129489133Y-85000000D01*
X129508557Y-85197210D01*
X129517157Y-85225561D01*
X129517157Y-85600000D01*
X129524513Y-85674689D01*
X129535373Y-85710491D01*
X129533128Y-85712736D01*
X129537329Y-85716937D01*
X129546299Y-85746508D01*
X129581678Y-85812696D01*
X129603810Y-85839664D01*
X129426652Y-85877148D01*
X129325763Y-86098516D01*
X129270000Y-86335313D01*
X129261505Y-86578438D01*
X124233013Y-86578438D01*
X124238495Y-86421562D01*
X124199395Y-86181451D01*
X124114202Y-85953582D01*
X124073348Y-85877148D01*
X123908363Y-85842240D01*
X123911608Y-85840505D01*
X124064791Y-85714791D01*
X124096296Y-85676402D01*
X126021290Y-83751409D01*
X126115504Y-83636608D01*
X126208918Y-83461842D01*
X126266443Y-83272211D01*
X126285867Y-83075001D01*
X126266443Y-82877791D01*
X126208918Y-82688159D01*
X126115504Y-82513393D01*
X125989790Y-82360210D01*
X125836607Y-82234496D01*
X125661841Y-82141082D01*
X125472209Y-82083557D01*
X125274999Y-82064133D01*
X125077789Y-82083557D01*
X124888158Y-82141082D01*
X124713392Y-82234496D01*
X124598591Y-82328710D01*
X122933302Y-83994000D01*
X120150586Y-83994000D01*
X120002790Y-84008557D01*
X119813158Y-84066081D01*
X119638392Y-84159495D01*
X119485209Y-84285209D01*
X119359495Y-84438392D01*
X119266081Y-84613158D01*
X119208557Y-84802790D01*
X119189133Y-85000000D01*
X106506000Y-85000000D01*
X106506000Y-80500000D01*
X113917157Y-80500000D01*
X113917157Y-83100000D01*
X113924513Y-83174689D01*
X113946299Y-83246508D01*
X113981678Y-83312696D01*
X114029289Y-83370711D01*
X114087304Y-83418322D01*
X114153492Y-83453701D01*
X114225311Y-83475487D01*
X114300000Y-83482843D01*
X116900000Y-83482843D01*
X116974689Y-83475487D01*
X117046508Y-83453701D01*
X117112696Y-83418322D01*
X117170711Y-83370711D01*
X117218322Y-83312696D01*
X117253701Y-83246508D01*
X117275487Y-83174689D01*
X117282843Y-83100000D01*
X117282843Y-82806000D01*
X118800586Y-82806000D01*
X118850000Y-82810867D01*
X118899414Y-82806000D01*
X119047210Y-82791443D01*
X119236842Y-82733919D01*
X119411608Y-82640505D01*
X119564791Y-82514791D01*
X119596296Y-82476402D01*
X120072698Y-82000000D01*
X134489133Y-82000000D01*
X134508557Y-82197209D01*
X134566081Y-82386841D01*
X134659496Y-82561607D01*
X134785210Y-82714790D01*
X134938393Y-82840504D01*
X135113159Y-82933919D01*
X135302791Y-82991443D01*
X135500000Y-83010867D01*
X135697209Y-82991443D01*
X135886841Y-82933919D01*
X136061607Y-82840504D01*
X136176408Y-82746290D01*
X137416699Y-81506000D01*
X137879843Y-81506000D01*
X137940587Y-81546588D01*
X138155515Y-81635614D01*
X138383682Y-81681000D01*
X138616318Y-81681000D01*
X138844485Y-81635614D01*
X139059413Y-81546588D01*
X139252843Y-81417342D01*
X139417342Y-81252843D01*
X139546588Y-81059413D01*
X139635614Y-80844485D01*
X139681000Y-80616318D01*
X139681000Y-80383682D01*
X139635614Y-80155515D01*
X139546588Y-79940587D01*
X139417342Y-79747157D01*
X139252843Y-79582658D01*
X139139450Y-79506891D01*
X146068519Y-79506891D01*
X146165843Y-79781252D01*
X146314822Y-80031355D01*
X146509731Y-80247588D01*
X146743080Y-80421641D01*
X147005901Y-80546825D01*
X147153110Y-80591476D01*
X147383000Y-80470155D01*
X147383000Y-79277000D01*
X146189186Y-79277000D01*
X146068519Y-79506891D01*
X139139450Y-79506891D01*
X139059413Y-79453412D01*
X138844485Y-79364386D01*
X138616318Y-79319000D01*
X138383682Y-79319000D01*
X138155515Y-79364386D01*
X137940587Y-79453412D01*
X137879843Y-79494000D01*
X137049406Y-79494000D01*
X136999999Y-79489134D01*
X136950592Y-79494000D01*
X136950586Y-79494000D01*
X136822689Y-79506597D01*
X136802789Y-79508557D01*
X136745265Y-79526007D01*
X136613158Y-79566081D01*
X136438392Y-79659495D01*
X136285209Y-79785209D01*
X136253708Y-79823593D01*
X134753710Y-81323592D01*
X134659496Y-81438393D01*
X134566081Y-81613159D01*
X134508557Y-81802791D01*
X134489133Y-82000000D01*
X120072698Y-82000000D01*
X123279589Y-78793109D01*
X146068519Y-78793109D01*
X146189186Y-79023000D01*
X147383000Y-79023000D01*
X147383000Y-77829845D01*
X147153110Y-77708524D01*
X147005901Y-77753175D01*
X146743080Y-77878359D01*
X146509731Y-78052412D01*
X146314822Y-78268645D01*
X146165843Y-78518748D01*
X146068519Y-78793109D01*
X123279589Y-78793109D01*
X124322698Y-77750000D01*
X131139133Y-77750000D01*
X131158557Y-77947209D01*
X131216081Y-78136841D01*
X131309496Y-78311607D01*
X131435210Y-78464790D01*
X131588393Y-78590504D01*
X131763159Y-78683919D01*
X131952791Y-78741443D01*
X132150000Y-78760867D01*
X132347209Y-78741443D01*
X132536841Y-78683919D01*
X132711607Y-78590504D01*
X132826408Y-78496290D01*
X133676407Y-77646292D01*
X133714791Y-77614791D01*
X133840505Y-77461608D01*
X133933919Y-77286842D01*
X133991443Y-77097210D01*
X134006000Y-76949414D01*
X134010867Y-76900000D01*
X134006000Y-76850586D01*
X134006000Y-76447029D01*
X134072693Y-76380336D01*
X134223826Y-76154149D01*
X134327929Y-75902823D01*
X134381000Y-75636017D01*
X134381000Y-75363983D01*
X134327929Y-75097177D01*
X134223826Y-74845851D01*
X134072693Y-74619664D01*
X134006000Y-74552971D01*
X134006000Y-74400000D01*
X142961928Y-74400000D01*
X142974188Y-74524482D01*
X143010498Y-74644180D01*
X143069463Y-74754494D01*
X143148815Y-74851185D01*
X143245506Y-74930537D01*
X143355820Y-74989502D01*
X143475518Y-75025812D01*
X143600000Y-75038072D01*
X144214250Y-75035000D01*
X144373000Y-74876250D01*
X144373000Y-73627000D01*
X144627000Y-73627000D01*
X144627000Y-74876250D01*
X144785750Y-75035000D01*
X145400000Y-75038072D01*
X145524482Y-75025812D01*
X145644180Y-74989502D01*
X145754494Y-74930537D01*
X145851185Y-74851185D01*
X145930537Y-74754494D01*
X145989502Y-74644180D01*
X146025812Y-74524482D01*
X146038072Y-74400000D01*
X146035000Y-73785750D01*
X145876250Y-73627000D01*
X144627000Y-73627000D01*
X144373000Y-73627000D01*
X143123750Y-73627000D01*
X142965000Y-73785750D01*
X142961928Y-74400000D01*
X134006000Y-74400000D01*
X134006000Y-71447029D01*
X134072693Y-71380336D01*
X134223826Y-71154149D01*
X134327929Y-70902823D01*
X134381000Y-70636017D01*
X134381000Y-70363983D01*
X134376230Y-70340000D01*
X137313286Y-70340000D01*
X137336088Y-70571516D01*
X137403619Y-70794136D01*
X137513283Y-70999303D01*
X137660866Y-71179134D01*
X137840697Y-71326717D01*
X138045864Y-71436381D01*
X138229340Y-71492038D01*
X138373704Y-71636402D01*
X138405209Y-71674791D01*
X138558392Y-71800505D01*
X138733158Y-71893919D01*
X138865265Y-71933993D01*
X138922789Y-71951443D01*
X138942689Y-71953403D01*
X139070586Y-71966000D01*
X139070592Y-71966000D01*
X139119999Y-71970866D01*
X139169406Y-71966000D01*
X143558655Y-71966000D01*
X143475518Y-71974188D01*
X143355820Y-72010498D01*
X143245506Y-72069463D01*
X143148815Y-72148815D01*
X143069463Y-72245506D01*
X143010498Y-72355820D01*
X142974188Y-72475518D01*
X142961928Y-72600000D01*
X142965000Y-73214250D01*
X143123750Y-73373000D01*
X144373000Y-73373000D01*
X144373000Y-73353000D01*
X144627000Y-73353000D01*
X144627000Y-73373000D01*
X145876250Y-73373000D01*
X146035000Y-73214250D01*
X146038072Y-72600000D01*
X146025812Y-72475518D01*
X145989502Y-72355820D01*
X145930537Y-72245506D01*
X145851185Y-72148815D01*
X145754494Y-72069463D01*
X145644180Y-72010498D01*
X145524482Y-71974188D01*
X145400000Y-71961928D01*
X145305541Y-71962400D01*
X145316590Y-71955018D01*
X145495018Y-71776590D01*
X145635207Y-71566781D01*
X145731772Y-71333654D01*
X145781000Y-71086167D01*
X145781000Y-70833833D01*
X145731772Y-70586346D01*
X145635207Y-70353219D01*
X145495018Y-70143410D01*
X145316590Y-69964982D01*
X145106781Y-69824793D01*
X144873654Y-69728228D01*
X144626167Y-69679000D01*
X144373833Y-69679000D01*
X144126346Y-69728228D01*
X143893219Y-69824793D01*
X143699846Y-69954000D01*
X139617050Y-69954000D01*
X139596381Y-69885864D01*
X139486717Y-69680697D01*
X139339134Y-69500866D01*
X139159303Y-69353283D01*
X138954136Y-69243619D01*
X138731516Y-69176088D01*
X138558016Y-69159000D01*
X138441984Y-69159000D01*
X138268484Y-69176088D01*
X138045864Y-69243619D01*
X137840697Y-69353283D01*
X137660866Y-69500866D01*
X137513283Y-69680697D01*
X137403619Y-69885864D01*
X137336088Y-70108484D01*
X137313286Y-70340000D01*
X134376230Y-70340000D01*
X134327929Y-70097177D01*
X134223826Y-69845851D01*
X134072693Y-69619664D01*
X133880336Y-69427307D01*
X133654149Y-69276174D01*
X133402823Y-69172071D01*
X133136017Y-69119000D01*
X132863983Y-69119000D01*
X132597177Y-69172071D01*
X132345851Y-69276174D01*
X132119664Y-69427307D01*
X131927307Y-69619664D01*
X131776174Y-69845851D01*
X131672071Y-70097177D01*
X131619000Y-70363983D01*
X131619000Y-70636017D01*
X131672071Y-70902823D01*
X131776174Y-71154149D01*
X131927307Y-71380336D01*
X131994000Y-71447029D01*
X131994001Y-74552970D01*
X131927307Y-74619664D01*
X131776174Y-74845851D01*
X131672071Y-75097177D01*
X131619000Y-75363983D01*
X131619000Y-75636017D01*
X131672071Y-75902823D01*
X131776174Y-76154149D01*
X131927307Y-76380336D01*
X131994001Y-76447030D01*
X131994001Y-76483301D01*
X131403710Y-77073592D01*
X131309496Y-77188393D01*
X131216081Y-77363159D01*
X131158557Y-77552791D01*
X131139133Y-77750000D01*
X124322698Y-77750000D01*
X125566699Y-76506000D01*
X126052971Y-76506000D01*
X126119664Y-76572693D01*
X126345851Y-76723826D01*
X126597177Y-76827929D01*
X126863983Y-76881000D01*
X127136017Y-76881000D01*
X127402823Y-76827929D01*
X127654149Y-76723826D01*
X127880336Y-76572693D01*
X128072693Y-76380336D01*
X128223826Y-76154149D01*
X128327929Y-75902823D01*
X128381000Y-75636017D01*
X128381000Y-75363983D01*
X128327929Y-75097177D01*
X128223826Y-74845851D01*
X128072693Y-74619664D01*
X128006000Y-74552971D01*
X128006000Y-71447029D01*
X128072693Y-71380336D01*
X128223826Y-71154149D01*
X128327929Y-70902823D01*
X128381000Y-70636017D01*
X128381000Y-70363983D01*
X128327929Y-70097177D01*
X128223826Y-69845851D01*
X128072693Y-69619664D01*
X127880336Y-69427307D01*
X127654149Y-69276174D01*
X127402823Y-69172071D01*
X127136017Y-69119000D01*
X126863983Y-69119000D01*
X126597177Y-69172071D01*
X126345851Y-69276174D01*
X126119664Y-69427307D01*
X125927307Y-69619664D01*
X125776174Y-69845851D01*
X125672071Y-70097177D01*
X125619000Y-70363983D01*
X125619000Y-70636017D01*
X125672071Y-70902823D01*
X125776174Y-71154149D01*
X125927307Y-71380336D01*
X125994000Y-71447029D01*
X125994001Y-74494000D01*
X125199406Y-74494000D01*
X125149999Y-74489134D01*
X125100592Y-74494000D01*
X125100586Y-74494000D01*
X124972689Y-74506597D01*
X124952789Y-74508557D01*
X124900292Y-74524482D01*
X124763158Y-74566081D01*
X124588392Y-74659495D01*
X124435209Y-74785209D01*
X124403708Y-74823593D01*
X118433302Y-80794000D01*
X117282843Y-80794000D01*
X117282843Y-80500000D01*
X117275487Y-80425311D01*
X117253701Y-80353492D01*
X117218322Y-80287304D01*
X117170711Y-80229289D01*
X117112696Y-80181678D01*
X117046508Y-80146299D01*
X116974689Y-80124513D01*
X116900000Y-80117157D01*
X114300000Y-80117157D01*
X114225311Y-80124513D01*
X114153492Y-80146299D01*
X114087304Y-80181678D01*
X114029289Y-80229289D01*
X113981678Y-80287304D01*
X113946299Y-80353492D01*
X113924513Y-80425311D01*
X113917157Y-80500000D01*
X106506000Y-80500000D01*
X106506000Y-80348627D01*
X106562696Y-80318322D01*
X106620711Y-80270711D01*
X106668322Y-80212696D01*
X106703701Y-80146508D01*
X106725487Y-80074689D01*
X106732843Y-80000000D01*
X106732843Y-78634436D01*
X109219000Y-78634436D01*
X109219000Y-78965564D01*
X109283600Y-79290330D01*
X109410317Y-79596252D01*
X109594282Y-79871575D01*
X109828425Y-80105718D01*
X110103748Y-80289683D01*
X110409670Y-80416400D01*
X110734436Y-80481000D01*
X111065564Y-80481000D01*
X111390330Y-80416400D01*
X111696252Y-80289683D01*
X111971575Y-80105718D01*
X112205718Y-79871575D01*
X112389683Y-79596252D01*
X112516400Y-79290330D01*
X112581000Y-78965564D01*
X112581000Y-78634436D01*
X112516400Y-78309670D01*
X112389683Y-78003748D01*
X112205718Y-77728425D01*
X111971575Y-77494282D01*
X111696252Y-77310317D01*
X111390330Y-77183600D01*
X111217511Y-77149224D01*
X114430381Y-77149224D01*
X114562317Y-77444312D01*
X114903045Y-77615159D01*
X115270557Y-77716250D01*
X115650729Y-77743701D01*
X116028951Y-77696457D01*
X116390690Y-77576333D01*
X116637683Y-77444312D01*
X116769619Y-77149224D01*
X115600000Y-75979605D01*
X114430381Y-77149224D01*
X111217511Y-77149224D01*
X111065564Y-77119000D01*
X110734436Y-77119000D01*
X110409670Y-77183600D01*
X110103748Y-77310317D01*
X109828425Y-77494282D01*
X109594282Y-77728425D01*
X109410317Y-78003748D01*
X109283600Y-78309670D01*
X109219000Y-78634436D01*
X106732843Y-78634436D01*
X106732843Y-78300000D01*
X106725487Y-78225311D01*
X106703701Y-78153492D01*
X106668322Y-78087304D01*
X106620711Y-78029289D01*
X106562696Y-77981678D01*
X106496508Y-77946299D01*
X106424689Y-77924513D01*
X106350000Y-77917157D01*
X104650000Y-77917157D01*
X104575311Y-77924513D01*
X104503492Y-77946299D01*
X104437304Y-77981678D01*
X104379289Y-78029289D01*
X104331678Y-78087304D01*
X104296299Y-78153492D01*
X104274513Y-78225311D01*
X104267157Y-78300000D01*
X104267157Y-78456633D01*
X104155178Y-78268645D01*
X103960269Y-78052412D01*
X103726920Y-77878359D01*
X103464099Y-77753175D01*
X103316890Y-77708524D01*
X103087000Y-77829845D01*
X103087000Y-79023000D01*
X103107000Y-79023000D01*
X103107000Y-79277000D01*
X103087000Y-79277000D01*
X103087000Y-80470155D01*
X103316890Y-80591476D01*
X103464099Y-80546825D01*
X103726920Y-80421641D01*
X103960269Y-80247588D01*
X104155178Y-80031355D01*
X104267157Y-79843367D01*
X104267157Y-80000000D01*
X104274513Y-80074689D01*
X104296299Y-80146508D01*
X104331678Y-80212696D01*
X104379289Y-80270711D01*
X104437304Y-80318322D01*
X104494000Y-80348627D01*
X104494001Y-88101372D01*
X104437304Y-88131678D01*
X104379289Y-88179289D01*
X104331678Y-88237304D01*
X104296299Y-88303492D01*
X104274513Y-88375311D01*
X104267157Y-88450000D01*
X104267157Y-88606633D01*
X104155178Y-88418645D01*
X103960269Y-88202412D01*
X103726920Y-88028359D01*
X103464099Y-87903175D01*
X103316890Y-87858524D01*
X103087000Y-87979845D01*
X103087000Y-89173000D01*
X103107000Y-89173000D01*
X103107000Y-89427000D01*
X103087000Y-89427000D01*
X103087000Y-90620155D01*
X103316890Y-90741476D01*
X103464099Y-90696825D01*
X103726920Y-90571641D01*
X103960269Y-90397588D01*
X104155178Y-90181355D01*
X104267157Y-89993367D01*
X104267157Y-90150000D01*
X104274513Y-90224689D01*
X104296299Y-90296508D01*
X104331678Y-90362696D01*
X104379289Y-90420711D01*
X104437304Y-90468322D01*
X104503492Y-90503701D01*
X104575311Y-90525487D01*
X104650000Y-90532843D01*
X106350000Y-90532843D01*
X106424689Y-90525487D01*
X106496508Y-90503701D01*
X106562696Y-90468322D01*
X106620711Y-90420711D01*
X106668322Y-90362696D01*
X106698627Y-90306000D01*
X113511282Y-90306000D01*
X114157990Y-90952709D01*
X114157990Y-91052281D01*
X114153123Y-91101695D01*
X114172547Y-91298904D01*
X114230071Y-91488536D01*
X114250873Y-91527453D01*
X114323486Y-91663303D01*
X114449200Y-91816486D01*
X114487583Y-91847986D01*
X115697596Y-93058000D01*
X100506000Y-93058000D01*
X100506000Y-89656891D01*
X101518519Y-89656891D01*
X101615843Y-89931252D01*
X101764822Y-90181355D01*
X101959731Y-90397588D01*
X102193080Y-90571641D01*
X102455901Y-90696825D01*
X102603110Y-90741476D01*
X102833000Y-90620155D01*
X102833000Y-89427000D01*
X101639186Y-89427000D01*
X101518519Y-89656891D01*
X100506000Y-89656891D01*
X100506000Y-88943109D01*
X101518519Y-88943109D01*
X101639186Y-89173000D01*
X102833000Y-89173000D01*
X102833000Y-87979845D01*
X102603110Y-87858524D01*
X102455901Y-87903175D01*
X102193080Y-88028359D01*
X101959731Y-88202412D01*
X101764822Y-88418645D01*
X101615843Y-88668748D01*
X101518519Y-88943109D01*
X100506000Y-88943109D01*
X100506000Y-79506891D01*
X101518519Y-79506891D01*
X101615843Y-79781252D01*
X101764822Y-80031355D01*
X101959731Y-80247588D01*
X102193080Y-80421641D01*
X102455901Y-80546825D01*
X102603110Y-80591476D01*
X102833000Y-80470155D01*
X102833000Y-79277000D01*
X101639186Y-79277000D01*
X101518519Y-79506891D01*
X100506000Y-79506891D01*
X100506000Y-78793109D01*
X101518519Y-78793109D01*
X101639186Y-79023000D01*
X102833000Y-79023000D01*
X102833000Y-77829845D01*
X102603110Y-77708524D01*
X102455901Y-77753175D01*
X102193080Y-77878359D01*
X101959731Y-78052412D01*
X101764822Y-78268645D01*
X101615843Y-78518748D01*
X101518519Y-78793109D01*
X100506000Y-78793109D01*
X100506000Y-75850729D01*
X113656299Y-75850729D01*
X113703543Y-76228951D01*
X113823667Y-76590690D01*
X113955688Y-76837683D01*
X114250776Y-76969619D01*
X115420395Y-75800000D01*
X115779605Y-75800000D01*
X116949224Y-76969619D01*
X117244312Y-76837683D01*
X117415159Y-76496955D01*
X117516250Y-76129443D01*
X117543701Y-75749271D01*
X117496457Y-75371049D01*
X117376333Y-75009310D01*
X117244312Y-74762317D01*
X116949224Y-74630381D01*
X115779605Y-75800000D01*
X115420395Y-75800000D01*
X114250776Y-74630381D01*
X113955688Y-74762317D01*
X113784841Y-75103045D01*
X113683750Y-75470557D01*
X113656299Y-75850729D01*
X100506000Y-75850729D01*
X100506000Y-74450776D01*
X114430381Y-74450776D01*
X115600000Y-75620395D01*
X116769619Y-74450776D01*
X116637683Y-74155688D01*
X116296955Y-73984841D01*
X115929443Y-73883750D01*
X115549271Y-73856299D01*
X115171049Y-73903543D01*
X114809310Y-74023667D01*
X114562317Y-74155688D01*
X114430381Y-74450776D01*
X100506000Y-74450776D01*
X100506000Y-68070000D01*
X152494000Y-68070000D01*
X152494001Y-93058000D01*
X152494001Y-93058000D01*
G37*
X152494001Y-93058000D02*
X131164698Y-93058000D01*
X132272698Y-91950000D01*
X147589133Y-91950000D01*
X147608557Y-92147210D01*
X147666081Y-92336842D01*
X147759495Y-92511608D01*
X147885209Y-92664791D01*
X148038392Y-92790505D01*
X148213158Y-92883919D01*
X148402790Y-92941443D01*
X148550586Y-92956000D01*
X149850586Y-92956000D01*
X149900000Y-92960867D01*
X149949414Y-92956000D01*
X150097210Y-92941443D01*
X150286842Y-92883919D01*
X150461608Y-92790505D01*
X150614791Y-92664791D01*
X150646296Y-92626402D01*
X150726402Y-92546296D01*
X150764791Y-92514791D01*
X150890505Y-92361608D01*
X150983919Y-92186842D01*
X151041443Y-91997210D01*
X151056000Y-91849414D01*
X151056000Y-91849413D01*
X151060867Y-91800001D01*
X151056000Y-91750587D01*
X151056000Y-90498627D01*
X151112696Y-90468322D01*
X151170711Y-90420711D01*
X151218322Y-90362696D01*
X151253701Y-90296508D01*
X151275487Y-90224689D01*
X151282843Y-90150000D01*
X151282843Y-88450000D01*
X151275487Y-88375311D01*
X151253701Y-88303492D01*
X151218322Y-88237304D01*
X151170711Y-88179289D01*
X151112696Y-88131678D01*
X151056000Y-88101373D01*
X151056000Y-80348627D01*
X151112696Y-80318322D01*
X151170711Y-80270711D01*
X151218322Y-80212696D01*
X151253701Y-80146508D01*
X151275487Y-80074689D01*
X151282843Y-80000000D01*
X151282843Y-78300000D01*
X151275487Y-78225311D01*
X151253701Y-78153492D01*
X151218322Y-78087304D01*
X151170711Y-78029289D01*
X151112696Y-77981678D01*
X151046508Y-77946299D01*
X150974689Y-77924513D01*
X150900000Y-77917157D01*
X149200000Y-77917157D01*
X149125311Y-77924513D01*
X149053492Y-77946299D01*
X148987304Y-77981678D01*
X148929289Y-78029289D01*
X148881678Y-78087304D01*
X148846299Y-78153492D01*
X148824513Y-78225311D01*
X148817157Y-78300000D01*
X148817157Y-78456633D01*
X148705178Y-78268645D01*
X148510269Y-78052412D01*
X148276920Y-77878359D01*
X148014099Y-77753175D01*
X147866890Y-77708524D01*
X147637000Y-77829845D01*
X147637000Y-79023000D01*
X147657000Y-79023000D01*
X147657000Y-79277000D01*
X147637000Y-79277000D01*
X147637000Y-80470155D01*
X147866890Y-80591476D01*
X148014099Y-80546825D01*
X148276920Y-80421641D01*
X148510269Y-80247588D01*
X148705178Y-80031355D01*
X148817157Y-79843367D01*
X148817157Y-80000000D01*
X148824513Y-80074689D01*
X148846299Y-80146508D01*
X148881678Y-80212696D01*
X148929289Y-80270711D01*
X148987304Y-80318322D01*
X149044000Y-80348627D01*
X149044001Y-88101372D01*
X148987304Y-88131678D01*
X148929289Y-88179289D01*
X148881678Y-88237304D01*
X148846299Y-88303492D01*
X148824513Y-88375311D01*
X148817157Y-88450000D01*
X148817157Y-88606633D01*
X148705178Y-88418645D01*
X148510269Y-88202412D01*
X148276920Y-88028359D01*
X148014099Y-87903175D01*
X147866890Y-87858524D01*
X147637000Y-87979845D01*
X147637000Y-89173000D01*
X147657000Y-89173000D01*
X147657000Y-89427000D01*
X147637000Y-89427000D01*
X147637000Y-90620155D01*
X147866890Y-90741476D01*
X148014099Y-90696825D01*
X148276920Y-90571641D01*
X148510269Y-90397588D01*
X148705178Y-90181355D01*
X148817157Y-89993367D01*
X148817157Y-90150000D01*
X148824513Y-90224689D01*
X148846299Y-90296508D01*
X148881678Y-90362696D01*
X148929289Y-90420711D01*
X148987304Y-90468322D01*
X149044001Y-90498628D01*
X149044000Y-90944000D01*
X148550586Y-90944000D01*
X148402790Y-90958557D01*
X148213158Y-91016081D01*
X148038392Y-91109495D01*
X147885209Y-91235209D01*
X147759495Y-91388392D01*
X147666081Y-91563158D01*
X147608557Y-91752790D01*
X147589133Y-91950000D01*
X132272698Y-91950000D01*
X132701409Y-91521290D01*
X132739791Y-91489791D01*
X132771296Y-91451402D01*
X133246290Y-90976408D01*
X133340504Y-90861607D01*
X133433918Y-90686843D01*
X133491443Y-90497211D01*
X133510866Y-90300001D01*
X133491443Y-90102791D01*
X133433918Y-89913159D01*
X133340504Y-89738393D01*
X133273618Y-89656891D01*
X146068519Y-89656891D01*
X146165843Y-89931252D01*
X146314822Y-90181355D01*
X146509731Y-90397588D01*
X146743080Y-90571641D01*
X147005901Y-90696825D01*
X147153110Y-90741476D01*
X147383000Y-90620155D01*
X147383000Y-89427000D01*
X146189186Y-89427000D01*
X146068519Y-89656891D01*
X133273618Y-89656891D01*
X133214790Y-89585210D01*
X133061607Y-89459496D01*
X132886841Y-89366082D01*
X132697209Y-89308557D01*
X132499999Y-89289134D01*
X132302789Y-89308557D01*
X132113157Y-89366082D01*
X131938393Y-89459496D01*
X131823592Y-89553710D01*
X131608302Y-89769000D01*
X131091699Y-89769000D01*
X130265808Y-88943109D01*
X146068519Y-88943109D01*
X146189186Y-89173000D01*
X147383000Y-89173000D01*
X147383000Y-87979845D01*
X147153110Y-87858524D01*
X147005901Y-87903175D01*
X146743080Y-88028359D01*
X146509731Y-88202412D01*
X146314822Y-88418645D01*
X146165843Y-88668748D01*
X146068519Y-88943109D01*
X130265808Y-88943109D01*
X129421296Y-88098598D01*
X129389791Y-88060209D01*
X129236608Y-87934495D01*
X129061842Y-87841081D01*
X128872210Y-87783557D01*
X128724414Y-87769000D01*
X128675000Y-87764133D01*
X128625586Y-87769000D01*
X126775586Y-87769000D01*
X126627790Y-87783557D01*
X126599439Y-87792157D01*
X126225000Y-87792157D01*
X126150311Y-87799513D01*
X126078492Y-87821299D01*
X126012304Y-87856678D01*
X125954289Y-87904289D01*
X125906678Y-87962304D01*
X125871299Y-88028492D01*
X125849513Y-88100311D01*
X125842157Y-88175000D01*
X125842157Y-88549439D01*
X125833557Y-88577790D01*
X125814133Y-88775000D01*
X125833557Y-88972210D01*
X125842157Y-89000561D01*
X125842157Y-89375000D01*
X125849513Y-89449689D01*
X125860373Y-89485491D01*
X125858128Y-89487736D01*
X125862329Y-89491937D01*
X125871299Y-89521508D01*
X125906678Y-89587696D01*
X125928810Y-89614664D01*
X125751652Y-89652148D01*
X125650763Y-89873516D01*
X125595000Y-90110313D01*
X125586505Y-90353438D01*
X125625605Y-90593549D01*
X125710798Y-90821418D01*
X125751652Y-90897852D01*
X125975236Y-90945159D01*
X126645395Y-90275000D01*
X126631253Y-90260858D01*
X126810858Y-90081253D01*
X126825000Y-90095395D01*
X126839143Y-90081253D01*
X127018748Y-90260858D01*
X127004605Y-90275000D01*
X127674764Y-90945159D01*
X127898348Y-90897852D01*
X127999237Y-90676484D01*
X128055000Y-90439687D01*
X128063495Y-90196562D01*
X128024395Y-89956451D01*
X127958799Y-89781000D01*
X128258302Y-89781000D01*
X129927301Y-91450000D01*
X129769312Y-91607990D01*
X117092984Y-91607990D01*
X116609758Y-91124764D01*
X126154841Y-91124764D01*
X126202148Y-91348348D01*
X126423516Y-91449237D01*
X126660313Y-91505000D01*
X126903438Y-91513495D01*
X127143549Y-91474395D01*
X127371418Y-91389202D01*
X127447852Y-91348348D01*
X127495159Y-91124764D01*
X126825000Y-90454605D01*
X126154841Y-91124764D01*
X116609758Y-91124764D01*
X116169990Y-90684997D01*
X116169990Y-90585423D01*
X116174857Y-90536009D01*
X116155433Y-90338799D01*
X116141067Y-90291443D01*
X116097909Y-90149168D01*
X116004495Y-89974402D01*
X115878781Y-89821219D01*
X115840397Y-89789718D01*
X114674276Y-88623598D01*
X114642771Y-88585209D01*
X114489588Y-88459495D01*
X114314822Y-88366081D01*
X114125190Y-88308557D01*
X113977394Y-88294000D01*
X113927980Y-88289133D01*
X113878566Y-88294000D01*
X106698627Y-88294000D01*
X106668322Y-88237304D01*
X106620711Y-88179289D01*
X106562696Y-88131678D01*
X106506000Y-88101373D01*
X106506000Y-87349764D01*
X122329841Y-87349764D01*
X122377148Y-87573348D01*
X122598516Y-87674237D01*
X122835313Y-87730000D01*
X123078438Y-87738495D01*
X123318549Y-87699395D01*
X123546418Y-87614202D01*
X123622852Y-87573348D01*
X123670159Y-87349764D01*
X129829841Y-87349764D01*
X129877148Y-87573348D01*
X130098516Y-87674237D01*
X130335313Y-87730000D01*
X130578438Y-87738495D01*
X130818549Y-87699395D01*
X131046418Y-87614202D01*
X131122852Y-87573348D01*
X131170159Y-87349764D01*
X130500000Y-86679605D01*
X129829841Y-87349764D01*
X123670159Y-87349764D01*
X123000000Y-86679605D01*
X122329841Y-87349764D01*
X106506000Y-87349764D01*
X106506000Y-85000000D01*
X119189133Y-85000000D01*
X119208557Y-85197210D01*
X119266081Y-85386842D01*
X119359495Y-85561608D01*
X119485209Y-85714791D01*
X119638392Y-85840505D01*
X119813158Y-85933919D01*
X120002790Y-85991443D01*
X120150586Y-86006000D01*
X121867927Y-86006000D01*
X121825763Y-86098516D01*
X121770000Y-86335313D01*
X121761505Y-86578438D01*
X121800605Y-86818549D01*
X121885798Y-87046418D01*
X121926652Y-87122852D01*
X122150236Y-87170159D01*
X122820395Y-86500000D01*
X122806253Y-86485858D01*
X122985858Y-86306253D01*
X123000000Y-86320395D01*
X123014143Y-86306253D01*
X123193748Y-86485858D01*
X123179605Y-86500000D01*
X123849764Y-87170159D01*
X124073348Y-87122852D01*
X124174237Y-86901484D01*
X124230000Y-86664687D01*
X124233013Y-86578438D01*
X129261505Y-86578438D01*
X129300605Y-86818549D01*
X129385798Y-87046418D01*
X129426652Y-87122852D01*
X129650236Y-87170159D01*
X130320395Y-86500000D01*
X130306253Y-86485858D01*
X130485858Y-86306253D01*
X130500000Y-86320395D01*
X130514143Y-86306253D01*
X130693748Y-86485858D01*
X130679605Y-86500000D01*
X131349764Y-87170159D01*
X131573348Y-87122852D01*
X131674237Y-86901484D01*
X131730000Y-86664687D01*
X131738495Y-86421562D01*
X131717026Y-86289725D01*
X132248591Y-86821290D01*
X132363392Y-86915504D01*
X132538158Y-87008919D01*
X132727790Y-87066443D01*
X132925000Y-87085867D01*
X133122210Y-87066443D01*
X133311842Y-87008919D01*
X133486607Y-86915504D01*
X133639791Y-86789791D01*
X133765504Y-86636607D01*
X133858919Y-86461842D01*
X133916443Y-86272210D01*
X133935867Y-86075000D01*
X133916443Y-85877790D01*
X133858919Y-85688158D01*
X133765504Y-85513392D01*
X133671290Y-85398591D01*
X132596296Y-84323598D01*
X132564791Y-84285209D01*
X132411608Y-84159495D01*
X132236842Y-84066081D01*
X132047210Y-84008557D01*
X131899414Y-83994000D01*
X131850000Y-83989133D01*
X131800586Y-83994000D01*
X130450586Y-83994000D01*
X130302790Y-84008557D01*
X130274439Y-84017157D01*
X129900000Y-84017157D01*
X129825311Y-84024513D01*
X129753492Y-84046299D01*
X129687304Y-84081678D01*
X129629289Y-84129289D01*
X129581678Y-84187304D01*
X129546299Y-84253492D01*
X129524513Y-84325311D01*
X129517157Y-84400000D01*
X129517157Y-84774439D01*
X129508557Y-84802790D01*
X129489133Y-85000000D01*
X129508557Y-85197210D01*
X129517157Y-85225561D01*
X129517157Y-85600000D01*
X129524513Y-85674689D01*
X129535373Y-85710491D01*
X129533128Y-85712736D01*
X129537329Y-85716937D01*
X129546299Y-85746508D01*
X129581678Y-85812696D01*
X129603810Y-85839664D01*
X129426652Y-85877148D01*
X129325763Y-86098516D01*
X129270000Y-86335313D01*
X129261505Y-86578438D01*
X124233013Y-86578438D01*
X124238495Y-86421562D01*
X124199395Y-86181451D01*
X124114202Y-85953582D01*
X124073348Y-85877148D01*
X123908363Y-85842240D01*
X123911608Y-85840505D01*
X124064791Y-85714791D01*
X124096296Y-85676402D01*
X126021290Y-83751409D01*
X126115504Y-83636608D01*
X126208918Y-83461842D01*
X126266443Y-83272211D01*
X126285867Y-83075001D01*
X126266443Y-82877791D01*
X126208918Y-82688159D01*
X126115504Y-82513393D01*
X125989790Y-82360210D01*
X125836607Y-82234496D01*
X125661841Y-82141082D01*
X125472209Y-82083557D01*
X125274999Y-82064133D01*
X125077789Y-82083557D01*
X124888158Y-82141082D01*
X124713392Y-82234496D01*
X124598591Y-82328710D01*
X122933302Y-83994000D01*
X120150586Y-83994000D01*
X120002790Y-84008557D01*
X119813158Y-84066081D01*
X119638392Y-84159495D01*
X119485209Y-84285209D01*
X119359495Y-84438392D01*
X119266081Y-84613158D01*
X119208557Y-84802790D01*
X119189133Y-85000000D01*
X106506000Y-85000000D01*
X106506000Y-80500000D01*
X113917157Y-80500000D01*
X113917157Y-83100000D01*
X113924513Y-83174689D01*
X113946299Y-83246508D01*
X113981678Y-83312696D01*
X114029289Y-83370711D01*
X114087304Y-83418322D01*
X114153492Y-83453701D01*
X114225311Y-83475487D01*
X114300000Y-83482843D01*
X116900000Y-83482843D01*
X116974689Y-83475487D01*
X117046508Y-83453701D01*
X117112696Y-83418322D01*
X117170711Y-83370711D01*
X117218322Y-83312696D01*
X117253701Y-83246508D01*
X117275487Y-83174689D01*
X117282843Y-83100000D01*
X117282843Y-82806000D01*
X118800586Y-82806000D01*
X118850000Y-82810867D01*
X118899414Y-82806000D01*
X119047210Y-82791443D01*
X119236842Y-82733919D01*
X119411608Y-82640505D01*
X119564791Y-82514791D01*
X119596296Y-82476402D01*
X120072698Y-82000000D01*
X134489133Y-82000000D01*
X134508557Y-82197209D01*
X134566081Y-82386841D01*
X134659496Y-82561607D01*
X134785210Y-82714790D01*
X134938393Y-82840504D01*
X135113159Y-82933919D01*
X135302791Y-82991443D01*
X135500000Y-83010867D01*
X135697209Y-82991443D01*
X135886841Y-82933919D01*
X136061607Y-82840504D01*
X136176408Y-82746290D01*
X137416699Y-81506000D01*
X137879843Y-81506000D01*
X137940587Y-81546588D01*
X138155515Y-81635614D01*
X138383682Y-81681000D01*
X138616318Y-81681000D01*
X138844485Y-81635614D01*
X139059413Y-81546588D01*
X139252843Y-81417342D01*
X139417342Y-81252843D01*
X139546588Y-81059413D01*
X139635614Y-80844485D01*
X139681000Y-80616318D01*
X139681000Y-80383682D01*
X139635614Y-80155515D01*
X139546588Y-79940587D01*
X139417342Y-79747157D01*
X139252843Y-79582658D01*
X139139450Y-79506891D01*
X146068519Y-79506891D01*
X146165843Y-79781252D01*
X146314822Y-80031355D01*
X146509731Y-80247588D01*
X146743080Y-80421641D01*
X147005901Y-80546825D01*
X147153110Y-80591476D01*
X147383000Y-80470155D01*
X147383000Y-79277000D01*
X146189186Y-79277000D01*
X146068519Y-79506891D01*
X139139450Y-79506891D01*
X139059413Y-79453412D01*
X138844485Y-79364386D01*
X138616318Y-79319000D01*
X138383682Y-79319000D01*
X138155515Y-79364386D01*
X137940587Y-79453412D01*
X137879843Y-79494000D01*
X137049406Y-79494000D01*
X136999999Y-79489134D01*
X136950592Y-79494000D01*
X136950586Y-79494000D01*
X136822689Y-79506597D01*
X136802789Y-79508557D01*
X136745265Y-79526007D01*
X136613158Y-79566081D01*
X136438392Y-79659495D01*
X136285209Y-79785209D01*
X136253708Y-79823593D01*
X134753710Y-81323592D01*
X134659496Y-81438393D01*
X134566081Y-81613159D01*
X134508557Y-81802791D01*
X134489133Y-82000000D01*
X120072698Y-82000000D01*
X123279589Y-78793109D01*
X146068519Y-78793109D01*
X146189186Y-79023000D01*
X147383000Y-79023000D01*
X147383000Y-77829845D01*
X147153110Y-77708524D01*
X147005901Y-77753175D01*
X146743080Y-77878359D01*
X146509731Y-78052412D01*
X146314822Y-78268645D01*
X146165843Y-78518748D01*
X146068519Y-78793109D01*
X123279589Y-78793109D01*
X124322698Y-77750000D01*
X131139133Y-77750000D01*
X131158557Y-77947209D01*
X131216081Y-78136841D01*
X131309496Y-78311607D01*
X131435210Y-78464790D01*
X131588393Y-78590504D01*
X131763159Y-78683919D01*
X131952791Y-78741443D01*
X132150000Y-78760867D01*
X132347209Y-78741443D01*
X132536841Y-78683919D01*
X132711607Y-78590504D01*
X132826408Y-78496290D01*
X133676407Y-77646292D01*
X133714791Y-77614791D01*
X133840505Y-77461608D01*
X133933919Y-77286842D01*
X133991443Y-77097210D01*
X134006000Y-76949414D01*
X134010867Y-76900000D01*
X134006000Y-76850586D01*
X134006000Y-76447029D01*
X134072693Y-76380336D01*
X134223826Y-76154149D01*
X134327929Y-75902823D01*
X134381000Y-75636017D01*
X134381000Y-75363983D01*
X134327929Y-75097177D01*
X134223826Y-74845851D01*
X134072693Y-74619664D01*
X134006000Y-74552971D01*
X134006000Y-74400000D01*
X142961928Y-74400000D01*
X142974188Y-74524482D01*
X143010498Y-74644180D01*
X143069463Y-74754494D01*
X143148815Y-74851185D01*
X143245506Y-74930537D01*
X143355820Y-74989502D01*
X143475518Y-75025812D01*
X143600000Y-75038072D01*
X144214250Y-75035000D01*
X144373000Y-74876250D01*
X144373000Y-73627000D01*
X144627000Y-73627000D01*
X144627000Y-74876250D01*
X144785750Y-75035000D01*
X145400000Y-75038072D01*
X145524482Y-75025812D01*
X145644180Y-74989502D01*
X145754494Y-74930537D01*
X145851185Y-74851185D01*
X145930537Y-74754494D01*
X145989502Y-74644180D01*
X146025812Y-74524482D01*
X146038072Y-74400000D01*
X146035000Y-73785750D01*
X145876250Y-73627000D01*
X144627000Y-73627000D01*
X144373000Y-73627000D01*
X143123750Y-73627000D01*
X142965000Y-73785750D01*
X142961928Y-74400000D01*
X134006000Y-74400000D01*
X134006000Y-71447029D01*
X134072693Y-71380336D01*
X134223826Y-71154149D01*
X134327929Y-70902823D01*
X134381000Y-70636017D01*
X134381000Y-70363983D01*
X134376230Y-70340000D01*
X137313286Y-70340000D01*
X137336088Y-70571516D01*
X137403619Y-70794136D01*
X137513283Y-70999303D01*
X137660866Y-71179134D01*
X137840697Y-71326717D01*
X138045864Y-71436381D01*
X138229340Y-71492038D01*
X138373704Y-71636402D01*
X138405209Y-71674791D01*
X138558392Y-71800505D01*
X138733158Y-71893919D01*
X138865265Y-71933993D01*
X138922789Y-71951443D01*
X138942689Y-71953403D01*
X139070586Y-71966000D01*
X139070592Y-71966000D01*
X139119999Y-71970866D01*
X139169406Y-71966000D01*
X143558655Y-71966000D01*
X143475518Y-71974188D01*
X143355820Y-72010498D01*
X143245506Y-72069463D01*
X143148815Y-72148815D01*
X143069463Y-72245506D01*
X143010498Y-72355820D01*
X142974188Y-72475518D01*
X142961928Y-72600000D01*
X142965000Y-73214250D01*
X143123750Y-73373000D01*
X144373000Y-73373000D01*
X144373000Y-73353000D01*
X144627000Y-73353000D01*
X144627000Y-73373000D01*
X145876250Y-73373000D01*
X146035000Y-73214250D01*
X146038072Y-72600000D01*
X146025812Y-72475518D01*
X145989502Y-72355820D01*
X145930537Y-72245506D01*
X145851185Y-72148815D01*
X145754494Y-72069463D01*
X145644180Y-72010498D01*
X145524482Y-71974188D01*
X145400000Y-71961928D01*
X145305541Y-71962400D01*
X145316590Y-71955018D01*
X145495018Y-71776590D01*
X145635207Y-71566781D01*
X145731772Y-71333654D01*
X145781000Y-71086167D01*
X145781000Y-70833833D01*
X145731772Y-70586346D01*
X145635207Y-70353219D01*
X145495018Y-70143410D01*
X145316590Y-69964982D01*
X145106781Y-69824793D01*
X144873654Y-69728228D01*
X144626167Y-69679000D01*
X144373833Y-69679000D01*
X144126346Y-69728228D01*
X143893219Y-69824793D01*
X143699846Y-69954000D01*
X139617050Y-69954000D01*
X139596381Y-69885864D01*
X139486717Y-69680697D01*
X139339134Y-69500866D01*
X139159303Y-69353283D01*
X138954136Y-69243619D01*
X138731516Y-69176088D01*
X138558016Y-69159000D01*
X138441984Y-69159000D01*
X138268484Y-69176088D01*
X138045864Y-69243619D01*
X137840697Y-69353283D01*
X137660866Y-69500866D01*
X137513283Y-69680697D01*
X137403619Y-69885864D01*
X137336088Y-70108484D01*
X137313286Y-70340000D01*
X134376230Y-70340000D01*
X134327929Y-70097177D01*
X134223826Y-69845851D01*
X134072693Y-69619664D01*
X133880336Y-69427307D01*
X133654149Y-69276174D01*
X133402823Y-69172071D01*
X133136017Y-69119000D01*
X132863983Y-69119000D01*
X132597177Y-69172071D01*
X132345851Y-69276174D01*
X132119664Y-69427307D01*
X131927307Y-69619664D01*
X131776174Y-69845851D01*
X131672071Y-70097177D01*
X131619000Y-70363983D01*
X131619000Y-70636017D01*
X131672071Y-70902823D01*
X131776174Y-71154149D01*
X131927307Y-71380336D01*
X131994000Y-71447029D01*
X131994001Y-74552970D01*
X131927307Y-74619664D01*
X131776174Y-74845851D01*
X131672071Y-75097177D01*
X131619000Y-75363983D01*
X131619000Y-75636017D01*
X131672071Y-75902823D01*
X131776174Y-76154149D01*
X131927307Y-76380336D01*
X131994001Y-76447030D01*
X131994001Y-76483301D01*
X131403710Y-77073592D01*
X131309496Y-77188393D01*
X131216081Y-77363159D01*
X131158557Y-77552791D01*
X131139133Y-77750000D01*
X124322698Y-77750000D01*
X125566699Y-76506000D01*
X126052971Y-76506000D01*
X126119664Y-76572693D01*
X126345851Y-76723826D01*
X126597177Y-76827929D01*
X126863983Y-76881000D01*
X127136017Y-76881000D01*
X127402823Y-76827929D01*
X127654149Y-76723826D01*
X127880336Y-76572693D01*
X128072693Y-76380336D01*
X128223826Y-76154149D01*
X128327929Y-75902823D01*
X128381000Y-75636017D01*
X128381000Y-75363983D01*
X128327929Y-75097177D01*
X128223826Y-74845851D01*
X128072693Y-74619664D01*
X128006000Y-74552971D01*
X128006000Y-71447029D01*
X128072693Y-71380336D01*
X128223826Y-71154149D01*
X128327929Y-70902823D01*
X128381000Y-70636017D01*
X128381000Y-70363983D01*
X128327929Y-70097177D01*
X128223826Y-69845851D01*
X128072693Y-69619664D01*
X127880336Y-69427307D01*
X127654149Y-69276174D01*
X127402823Y-69172071D01*
X127136017Y-69119000D01*
X126863983Y-69119000D01*
X126597177Y-69172071D01*
X126345851Y-69276174D01*
X126119664Y-69427307D01*
X125927307Y-69619664D01*
X125776174Y-69845851D01*
X125672071Y-70097177D01*
X125619000Y-70363983D01*
X125619000Y-70636017D01*
X125672071Y-70902823D01*
X125776174Y-71154149D01*
X125927307Y-71380336D01*
X125994000Y-71447029D01*
X125994001Y-74494000D01*
X125199406Y-74494000D01*
X125149999Y-74489134D01*
X125100592Y-74494000D01*
X125100586Y-74494000D01*
X124972689Y-74506597D01*
X124952789Y-74508557D01*
X124900292Y-74524482D01*
X124763158Y-74566081D01*
X124588392Y-74659495D01*
X124435209Y-74785209D01*
X124403708Y-74823593D01*
X118433302Y-80794000D01*
X117282843Y-80794000D01*
X117282843Y-80500000D01*
X117275487Y-80425311D01*
X117253701Y-80353492D01*
X117218322Y-80287304D01*
X117170711Y-80229289D01*
X117112696Y-80181678D01*
X117046508Y-80146299D01*
X116974689Y-80124513D01*
X116900000Y-80117157D01*
X114300000Y-80117157D01*
X114225311Y-80124513D01*
X114153492Y-80146299D01*
X114087304Y-80181678D01*
X114029289Y-80229289D01*
X113981678Y-80287304D01*
X113946299Y-80353492D01*
X113924513Y-80425311D01*
X113917157Y-80500000D01*
X106506000Y-80500000D01*
X106506000Y-80348627D01*
X106562696Y-80318322D01*
X106620711Y-80270711D01*
X106668322Y-80212696D01*
X106703701Y-80146508D01*
X106725487Y-80074689D01*
X106732843Y-80000000D01*
X106732843Y-78634436D01*
X109219000Y-78634436D01*
X109219000Y-78965564D01*
X109283600Y-79290330D01*
X109410317Y-79596252D01*
X109594282Y-79871575D01*
X109828425Y-80105718D01*
X110103748Y-80289683D01*
X110409670Y-80416400D01*
X110734436Y-80481000D01*
X111065564Y-80481000D01*
X111390330Y-80416400D01*
X111696252Y-80289683D01*
X111971575Y-80105718D01*
X112205718Y-79871575D01*
X112389683Y-79596252D01*
X112516400Y-79290330D01*
X112581000Y-78965564D01*
X112581000Y-78634436D01*
X112516400Y-78309670D01*
X112389683Y-78003748D01*
X112205718Y-77728425D01*
X111971575Y-77494282D01*
X111696252Y-77310317D01*
X111390330Y-77183600D01*
X111217511Y-77149224D01*
X114430381Y-77149224D01*
X114562317Y-77444312D01*
X114903045Y-77615159D01*
X115270557Y-77716250D01*
X115650729Y-77743701D01*
X116028951Y-77696457D01*
X116390690Y-77576333D01*
X116637683Y-77444312D01*
X116769619Y-77149224D01*
X115600000Y-75979605D01*
X114430381Y-77149224D01*
X111217511Y-77149224D01*
X111065564Y-77119000D01*
X110734436Y-77119000D01*
X110409670Y-77183600D01*
X110103748Y-77310317D01*
X109828425Y-77494282D01*
X109594282Y-77728425D01*
X109410317Y-78003748D01*
X109283600Y-78309670D01*
X109219000Y-78634436D01*
X106732843Y-78634436D01*
X106732843Y-78300000D01*
X106725487Y-78225311D01*
X106703701Y-78153492D01*
X106668322Y-78087304D01*
X106620711Y-78029289D01*
X106562696Y-77981678D01*
X106496508Y-77946299D01*
X106424689Y-77924513D01*
X106350000Y-77917157D01*
X104650000Y-77917157D01*
X104575311Y-77924513D01*
X104503492Y-77946299D01*
X104437304Y-77981678D01*
X104379289Y-78029289D01*
X104331678Y-78087304D01*
X104296299Y-78153492D01*
X104274513Y-78225311D01*
X104267157Y-78300000D01*
X104267157Y-78456633D01*
X104155178Y-78268645D01*
X103960269Y-78052412D01*
X103726920Y-77878359D01*
X103464099Y-77753175D01*
X103316890Y-77708524D01*
X103087000Y-77829845D01*
X103087000Y-79023000D01*
X103107000Y-79023000D01*
X103107000Y-79277000D01*
X103087000Y-79277000D01*
X103087000Y-80470155D01*
X103316890Y-80591476D01*
X103464099Y-80546825D01*
X103726920Y-80421641D01*
X103960269Y-80247588D01*
X104155178Y-80031355D01*
X104267157Y-79843367D01*
X104267157Y-80000000D01*
X104274513Y-80074689D01*
X104296299Y-80146508D01*
X104331678Y-80212696D01*
X104379289Y-80270711D01*
X104437304Y-80318322D01*
X104494000Y-80348627D01*
X104494001Y-88101372D01*
X104437304Y-88131678D01*
X104379289Y-88179289D01*
X104331678Y-88237304D01*
X104296299Y-88303492D01*
X104274513Y-88375311D01*
X104267157Y-88450000D01*
X104267157Y-88606633D01*
X104155178Y-88418645D01*
X103960269Y-88202412D01*
X103726920Y-88028359D01*
X103464099Y-87903175D01*
X103316890Y-87858524D01*
X103087000Y-87979845D01*
X103087000Y-89173000D01*
X103107000Y-89173000D01*
X103107000Y-89427000D01*
X103087000Y-89427000D01*
X103087000Y-90620155D01*
X103316890Y-90741476D01*
X103464099Y-90696825D01*
X103726920Y-90571641D01*
X103960269Y-90397588D01*
X104155178Y-90181355D01*
X104267157Y-89993367D01*
X104267157Y-90150000D01*
X104274513Y-90224689D01*
X104296299Y-90296508D01*
X104331678Y-90362696D01*
X104379289Y-90420711D01*
X104437304Y-90468322D01*
X104503492Y-90503701D01*
X104575311Y-90525487D01*
X104650000Y-90532843D01*
X106350000Y-90532843D01*
X106424689Y-90525487D01*
X106496508Y-90503701D01*
X106562696Y-90468322D01*
X106620711Y-90420711D01*
X106668322Y-90362696D01*
X106698627Y-90306000D01*
X113511282Y-90306000D01*
X114157990Y-90952709D01*
X114157990Y-91052281D01*
X114153123Y-91101695D01*
X114172547Y-91298904D01*
X114230071Y-91488536D01*
X114250873Y-91527453D01*
X114323486Y-91663303D01*
X114449200Y-91816486D01*
X114487583Y-91847986D01*
X115697596Y-93058000D01*
X100506000Y-93058000D01*
X100506000Y-89656891D01*
X101518519Y-89656891D01*
X101615843Y-89931252D01*
X101764822Y-90181355D01*
X101959731Y-90397588D01*
X102193080Y-90571641D01*
X102455901Y-90696825D01*
X102603110Y-90741476D01*
X102833000Y-90620155D01*
X102833000Y-89427000D01*
X101639186Y-89427000D01*
X101518519Y-89656891D01*
X100506000Y-89656891D01*
X100506000Y-88943109D01*
X101518519Y-88943109D01*
X101639186Y-89173000D01*
X102833000Y-89173000D01*
X102833000Y-87979845D01*
X102603110Y-87858524D01*
X102455901Y-87903175D01*
X102193080Y-88028359D01*
X101959731Y-88202412D01*
X101764822Y-88418645D01*
X101615843Y-88668748D01*
X101518519Y-88943109D01*
X100506000Y-88943109D01*
X100506000Y-79506891D01*
X101518519Y-79506891D01*
X101615843Y-79781252D01*
X101764822Y-80031355D01*
X101959731Y-80247588D01*
X102193080Y-80421641D01*
X102455901Y-80546825D01*
X102603110Y-80591476D01*
X102833000Y-80470155D01*
X102833000Y-79277000D01*
X101639186Y-79277000D01*
X101518519Y-79506891D01*
X100506000Y-79506891D01*
X100506000Y-78793109D01*
X101518519Y-78793109D01*
X101639186Y-79023000D01*
X102833000Y-79023000D01*
X102833000Y-77829845D01*
X102603110Y-77708524D01*
X102455901Y-77753175D01*
X102193080Y-77878359D01*
X101959731Y-78052412D01*
X101764822Y-78268645D01*
X101615843Y-78518748D01*
X101518519Y-78793109D01*
X100506000Y-78793109D01*
X100506000Y-75850729D01*
X113656299Y-75850729D01*
X113703543Y-76228951D01*
X113823667Y-76590690D01*
X113955688Y-76837683D01*
X114250776Y-76969619D01*
X115420395Y-75800000D01*
X115779605Y-75800000D01*
X116949224Y-76969619D01*
X117244312Y-76837683D01*
X117415159Y-76496955D01*
X117516250Y-76129443D01*
X117543701Y-75749271D01*
X117496457Y-75371049D01*
X117376333Y-75009310D01*
X117244312Y-74762317D01*
X116949224Y-74630381D01*
X115779605Y-75800000D01*
X115420395Y-75800000D01*
X114250776Y-74630381D01*
X113955688Y-74762317D01*
X113784841Y-75103045D01*
X113683750Y-75470557D01*
X113656299Y-75850729D01*
X100506000Y-75850729D01*
X100506000Y-74450776D01*
X114430381Y-74450776D01*
X115600000Y-75620395D01*
X116769619Y-74450776D01*
X116637683Y-74155688D01*
X116296955Y-73984841D01*
X115929443Y-73883750D01*
X115549271Y-73856299D01*
X115171049Y-73903543D01*
X114809310Y-74023667D01*
X114562317Y-74155688D01*
X114430381Y-74450776D01*
X100506000Y-74450776D01*
X100506000Y-68070000D01*
X152494000Y-68070000D01*
X152494001Y-93058000D01*
M02*
