G04 #@! TF.GenerationSoftware,KiCad,Pcbnew,(5.1.4)-1*
G04 #@! TF.CreationDate,2020-03-26T20:17:56-03:00*
G04 #@! TF.ProjectId,Protoboard-power,50726f74-6f62-46f6-9172-642d706f7765,rev?*
G04 #@! TF.SameCoordinates,Original*
G04 #@! TF.FileFunction,Soldermask,Top*
G04 #@! TF.FilePolarity,Negative*
%FSLAX46Y46*%
G04 Gerber Fmt 4.6, Leading zero omitted, Abs format (unit mm)*
G04 Created by KiCad (PCBNEW (5.1.4)-1) date 2020-03-26 20:17:56*
%MOMM*%
%LPD*%
G04 APERTURE LIST*
%ADD10C,0.100000*%
G04 APERTURE END LIST*
D10*
G36*
X136926200Y-91126200D02*
G01*
X134773800Y-91126200D01*
X134773800Y-89473800D01*
X136926200Y-89473800D01*
X136926200Y-91126200D01*
X136926200Y-91126200D01*
G37*
G36*
X119226200Y-91126200D02*
G01*
X117073800Y-91126200D01*
X117073800Y-89473800D01*
X119226200Y-89473800D01*
X119226200Y-91126200D01*
X119226200Y-91126200D01*
G37*
G36*
X127022241Y-89624786D02*
G01*
X127145301Y-89675759D01*
X127256054Y-89749762D01*
X127350238Y-89843946D01*
X127424241Y-89954699D01*
X127475214Y-90077759D01*
X127501200Y-90208400D01*
X127501200Y-90341600D01*
X127475214Y-90472241D01*
X127424241Y-90595301D01*
X127350238Y-90706054D01*
X127256054Y-90800238D01*
X127145301Y-90874241D01*
X127022241Y-90925214D01*
X126891600Y-90951200D01*
X126758400Y-90951200D01*
X126627759Y-90925214D01*
X126504699Y-90874241D01*
X126393946Y-90800238D01*
X126299762Y-90706054D01*
X126225759Y-90595301D01*
X126174786Y-90472241D01*
X126148800Y-90341600D01*
X126148800Y-90208400D01*
X126174786Y-90077759D01*
X126225759Y-89954699D01*
X126299762Y-89843946D01*
X126393946Y-89749762D01*
X126504699Y-89675759D01*
X126627759Y-89624786D01*
X126758400Y-89598800D01*
X126891600Y-89598800D01*
X127022241Y-89624786D01*
X127022241Y-89624786D01*
G37*
G36*
X106426200Y-90226200D02*
G01*
X104573800Y-90226200D01*
X104573800Y-88373800D01*
X106426200Y-88373800D01*
X106426200Y-90226200D01*
X106426200Y-90226200D01*
G37*
G36*
X103141563Y-88387201D02*
G01*
X103141566Y-88387202D01*
X103141567Y-88387202D01*
X103182501Y-88399619D01*
X103316155Y-88440162D01*
X103396607Y-88483165D01*
X103477059Y-88526167D01*
X103477061Y-88526168D01*
X103477060Y-88526168D01*
X103618091Y-88641909D01*
X103733832Y-88782940D01*
X103819838Y-88943845D01*
X103872799Y-89118437D01*
X103890682Y-89300000D01*
X103872799Y-89481563D01*
X103819838Y-89656155D01*
X103819837Y-89656156D01*
X103733833Y-89817059D01*
X103618091Y-89958091D01*
X103477059Y-90073833D01*
X103396608Y-90116835D01*
X103316155Y-90159838D01*
X103182501Y-90200381D01*
X103141567Y-90212798D01*
X103141566Y-90212798D01*
X103141563Y-90212799D01*
X103005501Y-90226200D01*
X102914499Y-90226200D01*
X102778437Y-90212799D01*
X102778434Y-90212798D01*
X102778433Y-90212798D01*
X102737499Y-90200381D01*
X102603845Y-90159838D01*
X102523393Y-90116835D01*
X102442941Y-90073833D01*
X102301909Y-89958091D01*
X102186167Y-89817059D01*
X102100163Y-89656156D01*
X102100162Y-89656155D01*
X102047201Y-89481563D01*
X102029318Y-89300000D01*
X102047201Y-89118437D01*
X102100162Y-88943845D01*
X102186168Y-88782940D01*
X102301909Y-88641909D01*
X102442940Y-88526168D01*
X102442939Y-88526168D01*
X102442941Y-88526167D01*
X102523393Y-88483165D01*
X102603845Y-88440162D01*
X102737499Y-88399619D01*
X102778433Y-88387202D01*
X102778434Y-88387202D01*
X102778437Y-88387201D01*
X102914499Y-88373800D01*
X103005501Y-88373800D01*
X103141563Y-88387201D01*
X103141563Y-88387201D01*
G37*
G36*
X147691563Y-88387201D02*
G01*
X147691566Y-88387202D01*
X147691567Y-88387202D01*
X147732501Y-88399619D01*
X147866155Y-88440162D01*
X147946607Y-88483165D01*
X148027059Y-88526167D01*
X148027061Y-88526168D01*
X148027060Y-88526168D01*
X148168091Y-88641909D01*
X148283832Y-88782940D01*
X148369838Y-88943845D01*
X148422799Y-89118437D01*
X148440682Y-89300000D01*
X148422799Y-89481563D01*
X148369838Y-89656155D01*
X148369837Y-89656156D01*
X148283833Y-89817059D01*
X148168091Y-89958091D01*
X148027059Y-90073833D01*
X147946608Y-90116835D01*
X147866155Y-90159838D01*
X147732501Y-90200381D01*
X147691567Y-90212798D01*
X147691566Y-90212798D01*
X147691563Y-90212799D01*
X147555501Y-90226200D01*
X147464499Y-90226200D01*
X147328437Y-90212799D01*
X147328434Y-90212798D01*
X147328433Y-90212798D01*
X147287499Y-90200381D01*
X147153845Y-90159838D01*
X147073393Y-90116835D01*
X146992941Y-90073833D01*
X146851909Y-89958091D01*
X146736167Y-89817059D01*
X146650163Y-89656156D01*
X146650162Y-89656155D01*
X146597201Y-89481563D01*
X146579318Y-89300000D01*
X146597201Y-89118437D01*
X146650162Y-88943845D01*
X146736168Y-88782940D01*
X146851909Y-88641909D01*
X146992940Y-88526168D01*
X146992939Y-88526168D01*
X146992941Y-88526167D01*
X147073393Y-88483165D01*
X147153845Y-88440162D01*
X147287499Y-88399619D01*
X147328433Y-88387202D01*
X147328434Y-88387202D01*
X147328437Y-88387201D01*
X147464499Y-88373800D01*
X147555501Y-88373800D01*
X147691563Y-88387201D01*
X147691563Y-88387201D01*
G37*
G36*
X150976200Y-90226200D02*
G01*
X149123800Y-90226200D01*
X149123800Y-88373800D01*
X150976200Y-88373800D01*
X150976200Y-90226200D01*
X150976200Y-90226200D01*
G37*
G36*
X143226200Y-89976200D02*
G01*
X141073800Y-89976200D01*
X141073800Y-86023800D01*
X143226200Y-86023800D01*
X143226200Y-89976200D01*
X143226200Y-89976200D01*
G37*
G36*
X112926200Y-89976200D02*
G01*
X110773800Y-89976200D01*
X110773800Y-86023800D01*
X112926200Y-86023800D01*
X112926200Y-89976200D01*
X112926200Y-89976200D01*
G37*
G36*
X127501200Y-89451200D02*
G01*
X126148800Y-89451200D01*
X126148800Y-88098800D01*
X127501200Y-88098800D01*
X127501200Y-89451200D01*
X127501200Y-89451200D01*
G37*
G36*
X136926200Y-88826200D02*
G01*
X134773800Y-88826200D01*
X134773800Y-87173800D01*
X136926200Y-87173800D01*
X136926200Y-88826200D01*
X136926200Y-88826200D01*
G37*
G36*
X119226200Y-88826200D02*
G01*
X117073800Y-88826200D01*
X117073800Y-87173800D01*
X119226200Y-87173800D01*
X119226200Y-88826200D01*
X119226200Y-88826200D01*
G37*
G36*
X123197241Y-85849786D02*
G01*
X123320301Y-85900759D01*
X123431054Y-85974762D01*
X123525238Y-86068946D01*
X123599241Y-86179699D01*
X123650214Y-86302759D01*
X123676200Y-86433400D01*
X123676200Y-86566600D01*
X123650214Y-86697241D01*
X123599241Y-86820301D01*
X123525238Y-86931054D01*
X123431054Y-87025238D01*
X123320301Y-87099241D01*
X123197241Y-87150214D01*
X123066600Y-87176200D01*
X122933400Y-87176200D01*
X122802759Y-87150214D01*
X122679699Y-87099241D01*
X122568946Y-87025238D01*
X122474762Y-86931054D01*
X122400759Y-86820301D01*
X122349786Y-86697241D01*
X122323800Y-86566600D01*
X122323800Y-86433400D01*
X122349786Y-86302759D01*
X122400759Y-86179699D01*
X122474762Y-86068946D01*
X122568946Y-85974762D01*
X122679699Y-85900759D01*
X122802759Y-85849786D01*
X122933400Y-85823800D01*
X123066600Y-85823800D01*
X123197241Y-85849786D01*
X123197241Y-85849786D01*
G37*
G36*
X130697241Y-85849786D02*
G01*
X130820301Y-85900759D01*
X130931054Y-85974762D01*
X131025238Y-86068946D01*
X131099241Y-86179699D01*
X131150214Y-86302759D01*
X131176200Y-86433400D01*
X131176200Y-86566600D01*
X131150214Y-86697241D01*
X131099241Y-86820301D01*
X131025238Y-86931054D01*
X130931054Y-87025238D01*
X130820301Y-87099241D01*
X130697241Y-87150214D01*
X130566600Y-87176200D01*
X130433400Y-87176200D01*
X130302759Y-87150214D01*
X130179699Y-87099241D01*
X130068946Y-87025238D01*
X129974762Y-86931054D01*
X129900759Y-86820301D01*
X129849786Y-86697241D01*
X129823800Y-86566600D01*
X129823800Y-86433400D01*
X129849786Y-86302759D01*
X129900759Y-86179699D01*
X129974762Y-86068946D01*
X130068946Y-85974762D01*
X130179699Y-85900759D01*
X130302759Y-85849786D01*
X130433400Y-85823800D01*
X130566600Y-85823800D01*
X130697241Y-85849786D01*
X130697241Y-85849786D01*
G37*
G36*
X119226200Y-86526200D02*
G01*
X117073800Y-86526200D01*
X117073800Y-84873800D01*
X119226200Y-84873800D01*
X119226200Y-86526200D01*
X119226200Y-86526200D01*
G37*
G36*
X136926200Y-86526200D02*
G01*
X134773800Y-86526200D01*
X134773800Y-84873800D01*
X136926200Y-84873800D01*
X136926200Y-86526200D01*
X136926200Y-86526200D01*
G37*
G36*
X123676200Y-85676200D02*
G01*
X122323800Y-85676200D01*
X122323800Y-84323800D01*
X123676200Y-84323800D01*
X123676200Y-85676200D01*
X123676200Y-85676200D01*
G37*
G36*
X131176200Y-85676200D02*
G01*
X129823800Y-85676200D01*
X129823800Y-84323800D01*
X131176200Y-84323800D01*
X131176200Y-85676200D01*
X131176200Y-85676200D01*
G37*
G36*
X116976200Y-83176200D02*
G01*
X114223800Y-83176200D01*
X114223800Y-80423800D01*
X116976200Y-80423800D01*
X116976200Y-83176200D01*
X116976200Y-83176200D01*
G37*
G36*
X133476200Y-81726200D02*
G01*
X130823800Y-81726200D01*
X130823800Y-79273800D01*
X133476200Y-79273800D01*
X133476200Y-81726200D01*
X133476200Y-81726200D01*
G37*
G36*
X129176200Y-81726200D02*
G01*
X126523800Y-81726200D01*
X126523800Y-79273800D01*
X129176200Y-79273800D01*
X129176200Y-81726200D01*
X129176200Y-81726200D01*
G37*
G36*
X138755578Y-79657471D02*
G01*
X138915037Y-79723521D01*
X139058545Y-79819411D01*
X139180589Y-79941455D01*
X139276479Y-80084963D01*
X139342529Y-80244422D01*
X139376200Y-80413702D01*
X139376200Y-80586298D01*
X139342529Y-80755578D01*
X139276479Y-80915037D01*
X139180589Y-81058545D01*
X139058545Y-81180589D01*
X138915037Y-81276479D01*
X138755578Y-81342529D01*
X138586298Y-81376200D01*
X138413702Y-81376200D01*
X138244422Y-81342529D01*
X138084963Y-81276479D01*
X137941455Y-81180589D01*
X137819411Y-81058545D01*
X137723521Y-80915037D01*
X137657471Y-80755578D01*
X137623800Y-80586298D01*
X137623800Y-80413702D01*
X137657471Y-80244422D01*
X137723521Y-80084963D01*
X137819411Y-79941455D01*
X137941455Y-79819411D01*
X138084963Y-79723521D01*
X138244422Y-79657471D01*
X138413702Y-79623800D01*
X138586298Y-79623800D01*
X138755578Y-79657471D01*
X138755578Y-79657471D01*
G37*
G36*
X111301423Y-77476686D02*
G01*
X111551876Y-77580427D01*
X111777278Y-77731036D01*
X111968964Y-77922722D01*
X112119573Y-78148124D01*
X112223314Y-78398577D01*
X112276200Y-78664456D01*
X112276200Y-78935544D01*
X112223314Y-79201423D01*
X112119573Y-79451876D01*
X111968964Y-79677278D01*
X111777278Y-79868964D01*
X111551876Y-80019573D01*
X111301423Y-80123314D01*
X111035544Y-80176200D01*
X110764456Y-80176200D01*
X110498577Y-80123314D01*
X110248124Y-80019573D01*
X110022722Y-79868964D01*
X109831036Y-79677278D01*
X109680427Y-79451876D01*
X109576686Y-79201423D01*
X109523800Y-78935544D01*
X109523800Y-78664456D01*
X109576686Y-78398577D01*
X109680427Y-78148124D01*
X109831036Y-77922722D01*
X110022722Y-77731036D01*
X110248124Y-77580427D01*
X110498577Y-77476686D01*
X110764456Y-77423800D01*
X111035544Y-77423800D01*
X111301423Y-77476686D01*
X111301423Y-77476686D01*
G37*
G36*
X103141563Y-78237201D02*
G01*
X103141566Y-78237202D01*
X103141567Y-78237202D01*
X103182501Y-78249619D01*
X103316155Y-78290162D01*
X103396607Y-78333165D01*
X103477059Y-78376167D01*
X103618091Y-78491909D01*
X103733832Y-78632940D01*
X103819838Y-78793845D01*
X103872799Y-78968437D01*
X103890682Y-79150000D01*
X103872799Y-79331563D01*
X103819838Y-79506155D01*
X103819837Y-79506156D01*
X103733833Y-79667059D01*
X103618091Y-79808091D01*
X103477059Y-79923833D01*
X103444090Y-79941455D01*
X103316155Y-80009838D01*
X103182501Y-80050381D01*
X103141567Y-80062798D01*
X103141566Y-80062798D01*
X103141563Y-80062799D01*
X103005501Y-80076200D01*
X102914499Y-80076200D01*
X102778437Y-80062799D01*
X102778434Y-80062798D01*
X102778433Y-80062798D01*
X102737499Y-80050381D01*
X102603845Y-80009838D01*
X102475910Y-79941455D01*
X102442941Y-79923833D01*
X102301909Y-79808091D01*
X102186167Y-79667059D01*
X102100163Y-79506156D01*
X102100162Y-79506155D01*
X102047201Y-79331563D01*
X102029318Y-79150000D01*
X102047201Y-78968437D01*
X102100162Y-78793845D01*
X102186168Y-78632940D01*
X102301909Y-78491909D01*
X102442941Y-78376167D01*
X102523393Y-78333165D01*
X102603845Y-78290162D01*
X102737499Y-78249619D01*
X102778433Y-78237202D01*
X102778434Y-78237202D01*
X102778437Y-78237201D01*
X102914499Y-78223800D01*
X103005501Y-78223800D01*
X103141563Y-78237201D01*
X103141563Y-78237201D01*
G37*
G36*
X147691563Y-78237201D02*
G01*
X147691566Y-78237202D01*
X147691567Y-78237202D01*
X147732501Y-78249619D01*
X147866155Y-78290162D01*
X147946607Y-78333165D01*
X148027059Y-78376167D01*
X148168091Y-78491909D01*
X148283832Y-78632940D01*
X148369838Y-78793845D01*
X148422799Y-78968437D01*
X148440682Y-79150000D01*
X148422799Y-79331563D01*
X148369838Y-79506155D01*
X148369837Y-79506156D01*
X148283833Y-79667059D01*
X148168091Y-79808091D01*
X148027059Y-79923833D01*
X147994090Y-79941455D01*
X147866155Y-80009838D01*
X147732501Y-80050381D01*
X147691567Y-80062798D01*
X147691566Y-80062798D01*
X147691563Y-80062799D01*
X147555501Y-80076200D01*
X147464499Y-80076200D01*
X147328437Y-80062799D01*
X147328434Y-80062798D01*
X147328433Y-80062798D01*
X147287499Y-80050381D01*
X147153845Y-80009838D01*
X147025910Y-79941455D01*
X146992941Y-79923833D01*
X146851909Y-79808091D01*
X146736167Y-79667059D01*
X146650163Y-79506156D01*
X146650162Y-79506155D01*
X146597201Y-79331563D01*
X146579318Y-79150000D01*
X146597201Y-78968437D01*
X146650162Y-78793845D01*
X146736168Y-78632940D01*
X146851909Y-78491909D01*
X146992941Y-78376167D01*
X147073393Y-78333165D01*
X147153845Y-78290162D01*
X147287499Y-78249619D01*
X147328433Y-78237202D01*
X147328434Y-78237202D01*
X147328437Y-78237201D01*
X147464499Y-78223800D01*
X147555501Y-78223800D01*
X147691563Y-78237201D01*
X147691563Y-78237201D01*
G37*
G36*
X106426200Y-80076200D02*
G01*
X104573800Y-80076200D01*
X104573800Y-78223800D01*
X106426200Y-78223800D01*
X106426200Y-80076200D01*
X106426200Y-80076200D01*
G37*
G36*
X150976200Y-80076200D02*
G01*
X149123800Y-80076200D01*
X149123800Y-78223800D01*
X150976200Y-78223800D01*
X150976200Y-80076200D01*
X150976200Y-80076200D01*
G37*
G36*
X116001423Y-74476686D02*
G01*
X116251876Y-74580427D01*
X116477278Y-74731036D01*
X116668964Y-74922722D01*
X116819573Y-75148124D01*
X116923314Y-75398577D01*
X116976200Y-75664456D01*
X116976200Y-75935544D01*
X116923314Y-76201423D01*
X116819573Y-76451876D01*
X116668964Y-76677278D01*
X116477278Y-76868964D01*
X116251876Y-77019573D01*
X116001423Y-77123314D01*
X115735544Y-77176200D01*
X115464456Y-77176200D01*
X115198577Y-77123314D01*
X114948124Y-77019573D01*
X114722722Y-76868964D01*
X114531036Y-76677278D01*
X114380427Y-76451876D01*
X114276686Y-76201423D01*
X114223800Y-75935544D01*
X114223800Y-75664456D01*
X114276686Y-75398577D01*
X114380427Y-75148124D01*
X114531036Y-74922722D01*
X114722722Y-74731036D01*
X114948124Y-74580427D01*
X115198577Y-74476686D01*
X115464456Y-74423800D01*
X115735544Y-74423800D01*
X116001423Y-74476686D01*
X116001423Y-74476686D01*
G37*
G36*
X127313916Y-74465158D02*
G01*
X127509772Y-74546284D01*
X127686039Y-74664062D01*
X127835938Y-74813961D01*
X127953716Y-74990228D01*
X128034842Y-75186084D01*
X128076200Y-75394003D01*
X128076200Y-75605997D01*
X128034842Y-75813916D01*
X127953716Y-76009772D01*
X127835938Y-76186039D01*
X127686039Y-76335938D01*
X127509772Y-76453716D01*
X127313916Y-76534842D01*
X127105997Y-76576200D01*
X126894003Y-76576200D01*
X126686084Y-76534842D01*
X126490228Y-76453716D01*
X126313961Y-76335938D01*
X126164062Y-76186039D01*
X126046284Y-76009772D01*
X125965158Y-75813916D01*
X125923800Y-75605997D01*
X125923800Y-75394003D01*
X125965158Y-75186084D01*
X126046284Y-74990228D01*
X126164062Y-74813961D01*
X126313961Y-74664062D01*
X126490228Y-74546284D01*
X126686084Y-74465158D01*
X126894003Y-74423800D01*
X127105997Y-74423800D01*
X127313916Y-74465158D01*
X127313916Y-74465158D01*
G37*
G36*
X133313916Y-74465158D02*
G01*
X133509772Y-74546284D01*
X133686039Y-74664062D01*
X133835938Y-74813961D01*
X133953716Y-74990228D01*
X134034842Y-75186084D01*
X134076200Y-75394003D01*
X134076200Y-75605997D01*
X134034842Y-75813916D01*
X133953716Y-76009772D01*
X133835938Y-76186039D01*
X133686039Y-76335938D01*
X133509772Y-76453716D01*
X133313916Y-76534842D01*
X133105997Y-76576200D01*
X132894003Y-76576200D01*
X132686084Y-76534842D01*
X132490228Y-76453716D01*
X132313961Y-76335938D01*
X132164062Y-76186039D01*
X132046284Y-76009772D01*
X131965158Y-75813916D01*
X131923800Y-75605997D01*
X131923800Y-75394003D01*
X131965158Y-75186084D01*
X132046284Y-74990228D01*
X132164062Y-74813961D01*
X132313961Y-74664062D01*
X132490228Y-74546284D01*
X132686084Y-74465158D01*
X132894003Y-74423800D01*
X133105997Y-74423800D01*
X133313916Y-74465158D01*
X133313916Y-74465158D01*
G37*
G36*
X145476200Y-74476200D02*
G01*
X143523800Y-74476200D01*
X143523800Y-72523800D01*
X145476200Y-72523800D01*
X145476200Y-74476200D01*
X145476200Y-74476200D01*
G37*
G36*
X144784747Y-70021315D02*
G01*
X144962404Y-70094902D01*
X145122293Y-70201737D01*
X145258263Y-70337707D01*
X145365098Y-70497596D01*
X145438685Y-70675253D01*
X145476200Y-70863852D01*
X145476200Y-71056148D01*
X145438685Y-71244747D01*
X145365098Y-71422404D01*
X145258263Y-71582293D01*
X145122293Y-71718263D01*
X144962404Y-71825098D01*
X144784747Y-71898685D01*
X144596148Y-71936200D01*
X144403852Y-71936200D01*
X144215253Y-71898685D01*
X144037596Y-71825098D01*
X143877707Y-71718263D01*
X143741737Y-71582293D01*
X143634902Y-71422404D01*
X143561315Y-71244747D01*
X143523800Y-71056148D01*
X143523800Y-70863852D01*
X143561315Y-70675253D01*
X143634902Y-70497596D01*
X143741737Y-70337707D01*
X143877707Y-70201737D01*
X144037596Y-70094902D01*
X144215253Y-70021315D01*
X144403852Y-69983800D01*
X144596148Y-69983800D01*
X144784747Y-70021315D01*
X144784747Y-70021315D01*
G37*
G36*
X127313916Y-69465158D02*
G01*
X127509772Y-69546284D01*
X127686039Y-69664062D01*
X127835938Y-69813961D01*
X127953716Y-69990228D01*
X128034842Y-70186084D01*
X128076200Y-70394003D01*
X128076200Y-70605997D01*
X128034842Y-70813916D01*
X127953716Y-71009772D01*
X127835938Y-71186039D01*
X127686039Y-71335938D01*
X127509772Y-71453716D01*
X127313916Y-71534842D01*
X127105997Y-71576200D01*
X126894003Y-71576200D01*
X126686084Y-71534842D01*
X126490228Y-71453716D01*
X126313961Y-71335938D01*
X126164062Y-71186039D01*
X126046284Y-71009772D01*
X125965158Y-70813916D01*
X125923800Y-70605997D01*
X125923800Y-70394003D01*
X125965158Y-70186084D01*
X126046284Y-69990228D01*
X126164062Y-69813961D01*
X126313961Y-69664062D01*
X126490228Y-69546284D01*
X126686084Y-69465158D01*
X126894003Y-69423800D01*
X127105997Y-69423800D01*
X127313916Y-69465158D01*
X127313916Y-69465158D01*
G37*
G36*
X133313916Y-69465158D02*
G01*
X133509772Y-69546284D01*
X133686039Y-69664062D01*
X133835938Y-69813961D01*
X133953716Y-69990228D01*
X134034842Y-70186084D01*
X134076200Y-70394003D01*
X134076200Y-70605997D01*
X134034842Y-70813916D01*
X133953716Y-71009772D01*
X133835938Y-71186039D01*
X133686039Y-71335938D01*
X133509772Y-71453716D01*
X133313916Y-71534842D01*
X133105997Y-71576200D01*
X132894003Y-71576200D01*
X132686084Y-71534842D01*
X132490228Y-71453716D01*
X132313961Y-71335938D01*
X132164062Y-71186039D01*
X132046284Y-71009772D01*
X131965158Y-70813916D01*
X131923800Y-70605997D01*
X131923800Y-70394003D01*
X131965158Y-70186084D01*
X132046284Y-69990228D01*
X132164062Y-69813961D01*
X132313961Y-69664062D01*
X132490228Y-69546284D01*
X132686084Y-69465158D01*
X132894003Y-69423800D01*
X133105997Y-69423800D01*
X133313916Y-69465158D01*
X133313916Y-69465158D01*
G37*
G36*
X138671762Y-69476477D02*
G01*
X138671765Y-69476478D01*
X138836929Y-69526580D01*
X138873792Y-69546284D01*
X138989145Y-69607941D01*
X139122565Y-69717435D01*
X139232058Y-69850854D01*
X139313420Y-70003071D01*
X139341277Y-70094903D01*
X139363523Y-70168238D01*
X139380440Y-70340000D01*
X139363523Y-70511762D01*
X139363522Y-70511765D01*
X139313420Y-70676929D01*
X139313419Y-70676930D01*
X139232059Y-70829145D01*
X139122565Y-70962565D01*
X138989145Y-71072059D01*
X138913038Y-71112739D01*
X138836929Y-71153420D01*
X138690651Y-71197793D01*
X138671762Y-71203523D01*
X138543047Y-71216200D01*
X138456953Y-71216200D01*
X138328238Y-71203523D01*
X138309349Y-71197793D01*
X138163071Y-71153420D01*
X138086962Y-71112739D01*
X138010855Y-71072059D01*
X137877435Y-70962565D01*
X137767941Y-70829145D01*
X137686581Y-70676930D01*
X137686580Y-70676929D01*
X137636478Y-70511765D01*
X137636477Y-70511762D01*
X137619560Y-70340000D01*
X137636477Y-70168238D01*
X137658723Y-70094903D01*
X137686580Y-70003071D01*
X137767942Y-69850854D01*
X137877435Y-69717435D01*
X138010855Y-69607941D01*
X138126208Y-69546284D01*
X138163071Y-69526580D01*
X138328235Y-69476478D01*
X138328238Y-69476477D01*
X138456953Y-69463800D01*
X138543047Y-69463800D01*
X138671762Y-69476477D01*
X138671762Y-69476477D01*
G37*
M02*
